<?xml version="1.0" encoding="utf-8"?>
<!-- Generator: Adobe Illustrator 24.1.1, SVG Export Plug-In . SVG Version: 6.00 Build 0)  -->
<svg version="1.1" id="_x2018_ëîé_x5F_1" xmlns="http://www.w3.org/2000/svg" xmlns:xlink="http://www.w3.org/1999/xlink"
	 x="0px" y="0px" viewBox="0 0 2113.6 1184.2" style="enable-background:new 0 0 2113.6 1184.2;" xml:space="preserve">
<style type="text/css">
	.st0{display:none;fill:#FFFFFF;}
	.st1{fill:url(#SVGID_1_);}
	.st2{fill:url(#SVGID_2_);}
	.st3{fill:#E6E6E6;}
	.st4{fill:#FFFFFF;}
	.st5{fill:#B8B8B8;}
	.st6{fill:#8A8A8A;}
	.st7{opacity:0.3;}
	.st8{opacity:0;fill:#FFFFFF;}
	.st9{opacity:3.921569e-03;fill:#FEFEFE;}
	.st10{opacity:7.843138e-03;fill:#FDFDFD;}
	.st11{opacity:1.176471e-02;fill:#FCFCFC;}
	.st12{opacity:1.568628e-02;fill:#FBFBFB;}
	.st13{opacity:1.960784e-02;fill:#FAFAFA;}
	.st14{opacity:2.352941e-02;fill:#F9F9F9;}
	.st15{opacity:2.745098e-02;fill:#F8F8F8;}
	.st16{opacity:3.137255e-02;fill:#F7F7F7;}
	.st17{opacity:3.529412e-02;fill:#F6F6F6;}
	.st18{opacity:3.921569e-02;fill:#F5F5F5;}
	.st19{opacity:4.313726e-02;fill:#F4F4F4;}
	.st20{opacity:4.705882e-02;fill:#F3F3F3;}
	.st21{opacity:5.098039e-02;fill:#F2F2F2;}
	.st22{opacity:5.490196e-02;fill:#F1F1F1;}
	.st23{opacity:5.882353e-02;fill:#F0F0F0;}
	.st24{opacity:6.274510e-02;fill:#EFEFEF;}
	.st25{opacity:6.666667e-02;fill:#EEEEEE;}
	.st26{opacity:7.058824e-02;fill:#EDEDED;}
	.st27{opacity:7.450981e-02;fill:#ECECEC;}
	.st28{opacity:7.843138e-02;fill:#EBEBEB;}
	.st29{opacity:8.235294e-02;fill:#EAEAEA;}
	.st30{opacity:8.627451e-02;fill:#E9E9E9;}
	.st31{opacity:9.019608e-02;fill:#E8E8E8;}
	.st32{opacity:9.411765e-02;fill:#E7E7E7;}
	.st33{opacity:9.803922e-02;fill:#E6E6E6;}
	.st34{opacity:0.102;fill:#E5E5E5;}
	.st35{opacity:0.1059;fill:#E4E4E4;}
	.st36{opacity:0.1098;fill:#E3E3E3;}
	.st37{opacity:0.1137;fill:#E2E2E2;}
	.st38{opacity:0.1176;fill:#E1E1E1;}
	.st39{opacity:0.1216;fill:#E0E0E0;}
	.st40{opacity:0.1255;fill:#DFDFDF;}
	.st41{opacity:0.1294;fill:#DEDEDE;}
	.st42{opacity:0.1333;fill:#DDDDDD;}
	.st43{opacity:0.1373;fill:#DCDCDC;}
	.st44{opacity:0.1412;fill:#DBDBDB;}
	.st45{opacity:0.1451;fill:#DADADA;}
	.st46{opacity:0.149;fill:#D9D9D9;}
	.st47{opacity:0.1529;fill:#D8D8D8;}
	.st48{opacity:0.1569;fill:#D7D7D7;}
	.st49{opacity:0.1608;fill:#D6D6D6;}
	.st50{opacity:0.1647;fill:#D5D5D5;}
	.st51{opacity:0.1686;fill:#D4D4D4;}
	.st52{opacity:0.1725;fill:#D3D3D3;}
	.st53{opacity:0.1765;fill:#D2D2D2;}
	.st54{opacity:0.1804;fill:#D1D1D1;}
	.st55{opacity:0.1843;fill:#D0D0D0;}
	.st56{opacity:0.1882;fill:#CFCFCF;}
	.st57{opacity:0.1922;fill:#CECECE;}
	.st58{opacity:0.1961;fill:#CDCDCD;}
	.st59{opacity:0.2;fill:#CCCCCC;}
	.st60{opacity:0.2039;fill:#CBCBCB;}
	.st61{opacity:0.2078;fill:#CACACA;}
	.st62{opacity:0.2118;fill:#C9C9C9;}
	.st63{opacity:0.2157;fill:#C8C8C8;}
	.st64{opacity:0.2196;fill:#C7C7C7;}
	.st65{opacity:0.2235;fill:#C6C6C6;}
	.st66{opacity:0.2275;fill:#C5C5C5;}
	.st67{opacity:0.2314;fill:#C4C4C4;}
	.st68{opacity:0.2353;fill:#C3C3C3;}
	.st69{opacity:0.2392;fill:#C2C2C2;}
	.st70{opacity:0.2431;fill:#C1C1C1;}
	.st71{opacity:0.2471;fill:#C0C0C0;}
	.st72{opacity:0.251;fill:#BFBFBF;}
	.st73{opacity:0.2549;fill:#BEBEBE;}
	.st74{opacity:0.2588;fill:#BDBDBD;}
	.st75{opacity:0.2627;fill:#BCBCBC;}
	.st76{opacity:0.2667;fill:#BBBBBB;}
	.st77{opacity:0.2706;fill:#BABABA;}
	.st78{opacity:0.2745;fill:#B9B9B9;}
	.st79{opacity:0.2784;fill:#B8B8B8;}
	.st80{opacity:0.2824;fill:#B7B7B7;}
	.st81{opacity:0.2863;fill:#B6B6B6;}
	.st82{opacity:0.2902;fill:#B5B5B5;}
	.st83{opacity:0.2941;fill:#B4B4B4;}
	.st84{opacity:0.298;fill:#B3B3B3;}
	.st85{opacity:0.302;fill:#B2B2B2;}
	.st86{opacity:0.3059;fill:#B1B1B1;}
	.st87{opacity:0.3098;fill:#B0B0B0;}
	.st88{opacity:0.3137;fill:#AFAFAF;}
	.st89{opacity:0.3176;fill:#AEAEAE;}
	.st90{opacity:0.3216;fill:#ADADAD;}
	.st91{opacity:0.3255;fill:#ACACAC;}
	.st92{opacity:0.3294;fill:#ABABAB;}
	.st93{opacity:0.3333;fill:#AAAAAA;}
	.st94{opacity:0.3373;fill:#A9A9A9;}
	.st95{opacity:0.3412;fill:#A8A8A8;}
	.st96{opacity:0.3451;fill:#A7A7A7;}
	.st97{opacity:0.349;fill:#A6A6A6;}
	.st98{opacity:0.3529;fill:#A5A5A5;}
	.st99{opacity:0.3569;fill:#A4A4A4;}
	.st100{opacity:0.3608;fill:#A3A3A3;}
	.st101{opacity:0.3647;fill:#A2A2A2;}
	.st102{opacity:0.3686;fill:#A1A1A1;}
	.st103{opacity:0.3725;fill:#A0A0A0;}
	.st104{opacity:0.3765;fill:#9F9F9F;}
	.st105{opacity:0.3804;fill:#9E9E9E;}
	.st106{opacity:0.3843;fill:#9D9D9D;}
	.st107{opacity:0.3882;fill:#9C9C9C;}
	.st108{opacity:0.3922;fill:#9B9B9B;}
	.st109{opacity:0.3961;fill:#9A9A9A;}
	.st110{opacity:0.4;fill:#999999;}
	.st111{opacity:0.4039;fill:#989898;}
	.st112{opacity:0.4078;fill:#979797;}
	.st113{opacity:0.4118;fill:#969696;}
	.st114{opacity:0.4157;fill:#959595;}
	.st115{opacity:0.4196;fill:#949494;}
	.st116{opacity:0.4235;fill:#939393;}
	.st117{opacity:0.4275;fill:#929292;}
	.st118{opacity:0.4314;fill:#919191;}
	.st119{opacity:0.4353;fill:#909090;}
	.st120{opacity:0.4392;fill:#8F8F8F;}
	.st121{opacity:0.4431;fill:#8E8E8E;}
	.st122{opacity:0.4471;fill:#8D8D8D;}
	.st123{opacity:0.451;fill:#8C8C8C;}
	.st124{opacity:0.4549;fill:#8B8B8B;}
	.st125{opacity:0.4588;fill:#8A8A8A;}
	.st126{opacity:0.4627;fill:#898989;}
	.st127{opacity:0.4667;fill:#888888;}
	.st128{opacity:0.4706;fill:#878787;}
	.st129{opacity:0.4745;fill:#868686;}
	.st130{opacity:0.4784;fill:#858585;}
	.st131{opacity:0.4824;fill:#848484;}
	.st132{opacity:0.4863;fill:#838383;}
	.st133{opacity:0.4902;fill:#828282;}
	.st134{opacity:0.4941;fill:#818181;}
	.st135{opacity:0.498;fill:#808080;}
	.st136{opacity:0.502;fill:#7F7F7F;}
	.st137{opacity:0.5059;fill:#7E7E7E;}
	.st138{opacity:0.5098;fill:#7D7D7D;}
	.st139{opacity:0.5137;fill:#7C7C7C;}
	.st140{opacity:0.5176;fill:#7B7B7B;}
	.st141{opacity:0.5216;fill:#7A7A7A;}
	.st142{opacity:0.5255;fill:#797979;}
	.st143{opacity:0.5294;fill:#787878;}
	.st144{opacity:0.5333;fill:#777777;}
	.st145{opacity:0.5373;fill:#767676;}
	.st146{opacity:0.5412;fill:#757575;}
	.st147{opacity:0.5451;fill:#747474;}
	.st148{opacity:0.549;fill:#737373;}
	.st149{opacity:0.5529;fill:#727272;}
	.st150{opacity:0.5569;fill:#717171;}
	.st151{opacity:0.5608;fill:#707070;}
	.st152{opacity:0.5647;fill:#6F6F6F;}
	.st153{opacity:0.5686;fill:#6E6E6E;}
	.st154{opacity:0.5725;fill:#6D6D6D;}
	.st155{opacity:0.5765;fill:#6C6C6C;}
	.st156{opacity:0.5804;fill:#6B6B6B;}
	.st157{opacity:0.5843;fill:#6A6A6A;}
	.st158{opacity:0.5882;fill:#696969;}
	.st159{opacity:0.5922;fill:#686868;}
	.st160{opacity:0.5961;fill:#676767;}
	.st161{opacity:0.6;fill:#666666;}
	.st162{opacity:0.6039;fill:#656565;}
	.st163{opacity:0.6078;fill:#646464;}
	.st164{opacity:0.6118;fill:#636363;}
	.st165{opacity:0.6157;fill:#626262;}
	.st166{opacity:0.6196;fill:#616161;}
	.st167{opacity:0.6235;fill:#606060;}
	.st168{opacity:0.6275;fill:#5F5F5F;}
	.st169{opacity:0.6314;fill:#5E5E5E;}
	.st170{opacity:0.6353;fill:#5D5D5D;}
	.st171{opacity:0.6392;fill:#5C5C5C;}
	.st172{opacity:0.6431;fill:#5B5B5B;}
	.st173{opacity:0.6471;fill:#5A5A5A;}
	.st174{opacity:0.651;fill:#595959;}
	.st175{opacity:0.6549;fill:#585858;}
	.st176{opacity:0.6588;fill:#575757;}
	.st177{opacity:0.6627;fill:#565656;}
	.st178{opacity:0.6667;fill:#555555;}
	.st179{opacity:0.6706;fill:#545454;}
	.st180{opacity:0.6745;fill:#535353;}
	.st181{opacity:0.6784;fill:#525252;}
	.st182{opacity:0.6824;fill:#515151;}
	.st183{opacity:0.6863;fill:#505050;}
	.st184{opacity:0.6902;fill:#4F4F4F;}
	.st185{opacity:0.6941;fill:#4E4E4E;}
	.st186{opacity:0.698;fill:#4D4D4D;}
	.st187{opacity:0.702;fill:#4C4C4C;}
	.st188{opacity:0.7059;fill:#4B4B4B;}
	.st189{opacity:0.7098;fill:#4A4A4A;}
	.st190{opacity:0.7137;fill:#494949;}
	.st191{opacity:0.7176;fill:#484848;}
	.st192{opacity:0.7216;fill:#474747;}
	.st193{opacity:0.7255;fill:#464646;}
	.st194{opacity:0.7294;fill:#454545;}
	.st195{opacity:0.7333;fill:#444444;}
	.st196{opacity:0.7373;fill:#434343;}
	.st197{opacity:0.7412;fill:#424242;}
	.st198{opacity:0.7451;fill:#414141;}
	.st199{opacity:0.749;fill:#404040;}
	.st200{opacity:0.7529;fill:#3F3F3F;}
	.st201{opacity:0.7569;fill:#3E3E3E;}
	.st202{opacity:0.7608;fill:#3D3D3D;}
	.st203{opacity:0.7647;fill:#3C3C3C;}
	.st204{opacity:0.7686;fill:#3B3B3B;}
	.st205{opacity:0.7725;fill:#3A3A3A;}
	.st206{opacity:0.7765;fill:#393939;}
	.st207{opacity:0.7804;fill:#383838;}
	.st208{opacity:0.7843;fill:#373737;}
	.st209{opacity:0.7882;fill:#363636;}
	.st210{opacity:0.7922;fill:#353535;}
	.st211{opacity:0.7961;fill:#343434;}
	.st212{opacity:0.8;fill:#333333;}
	.st213{opacity:0.8039;fill:#323232;}
	.st214{opacity:0.8078;fill:#313131;}
	.st215{opacity:0.8118;fill:#303030;}
	.st216{opacity:0.8157;fill:#2F2F2F;}
	.st217{opacity:0.8196;fill:#2E2E2E;}
	.st218{opacity:0.8235;fill:#2D2D2D;}
	.st219{opacity:0.8275;fill:#2C2C2C;}
	.st220{opacity:0.8314;fill:#2B2B2B;}
	.st221{opacity:0.8353;fill:#2A2A2A;}
	.st222{opacity:0.8392;fill:#292929;}
	.st223{opacity:0.8431;fill:#282828;}
	.st224{opacity:0.8471;fill:#272727;}
	.st225{opacity:0.851;fill:#262626;}
	.st226{opacity:0.8549;fill:#252525;}
	.st227{opacity:0.8588;fill:#242424;}
	.st228{opacity:0.8627;fill:#232323;}
	.st229{opacity:0.8667;fill:#222222;}
	.st230{opacity:0.8706;fill:#212121;}
	.st231{opacity:0.8745;fill:#202020;}
	.st232{opacity:0.8784;fill:#1F1F1F;}
	.st233{opacity:0.8824;fill:#1E1E1E;}
	.st234{opacity:0.8863;fill:#1D1D1D;}
	.st235{opacity:0.8902;fill:#1C1C1C;}
	.st236{opacity:0.8941;fill:#1B1B1B;}
	.st237{opacity:0.898;fill:#1A1A1A;}
	.st238{opacity:0.902;fill:#191919;}
	.st239{opacity:0.9059;fill:#181818;}
	.st240{opacity:0.9098;fill:#171717;}
	.st241{opacity:0.9137;fill:#161616;}
	.st242{opacity:0.9176;fill:#151515;}
	.st243{opacity:0.9216;fill:#141414;}
	.st244{opacity:0.9255;fill:#131313;}
	.st245{opacity:0.9294;fill:#121212;}
	.st246{opacity:0.9333;fill:#111111;}
	.st247{opacity:0.9373;fill:#101010;}
	.st248{opacity:0.9412;fill:#0F0F0F;}
	.st249{opacity:0.9451;fill:#0E0E0E;}
	.st250{opacity:0.949;fill:#0D0D0D;}
	.st251{opacity:0.9529;fill:#0C0C0C;}
	.st252{opacity:0.9569;fill:#0B0B0B;}
	.st253{opacity:0.9608;fill:#0A0A0A;}
	.st254{opacity:0.9647;fill:#090909;}
	.st255{opacity:0.9686;fill:#080808;}
	.st256{opacity:0.9725;fill:#070707;}
	.st257{opacity:0.9765;fill:#060606;}
	.st258{opacity:0.9804;fill:#050505;}
	.st259{opacity:0.9843;fill:#040404;}
	.st260{opacity:0.9882;fill:#030303;}
	.st261{opacity:0.9922;fill:#020202;}
	.st262{opacity:0.9961;fill:#010101;}
	.st263{fill:url(#SVGID_3_);}
	.st264{fill:url(#SVGID_4_);}
	.st265{fill:#1A1A1A;}
</style>
<g>
	<rect x="-407" y="-399.1" class="st0" width="2949.5" height="2000"/>
	<g>
		<linearGradient id="SVGID_1_" gradientUnits="userSpaceOnUse" x1="1067.7233" y1="1097.2876" x2="1067.7233" y2="45.1817">
			<stop  offset="0" style="stop-color:#BFBFBF"/>
			<stop  offset="4.207357e-03" style="stop-color:#C0C0C0"/>
			<stop  offset="5.979176e-02" style="stop-color:#D1D1D1"/>
			<stop  offset="0.1287" style="stop-color:#DDDDDD"/>
			<stop  offset="0.2257" style="stop-color:#E4E4E4"/>
			<stop  offset="0.495" style="stop-color:#E6E6E6"/>
			<stop  offset="0.7698" style="stop-color:#E4E4E4"/>
			<stop  offset="0.8687" style="stop-color:#DDDDDD"/>
			<stop  offset="0.939" style="stop-color:#D1D1D1"/>
			<stop  offset="0.9957" style="stop-color:#C0C0C0"/>
			<stop  offset="1" style="stop-color:#BFBFBF"/>
		</linearGradient>
		<path class="st1" d="M1818.4,1097.3H317.1c-10.8,0-19.5-8.7-19.5-19.5V90.1c0-24.8,20.1-44.9,44.9-44.9H1793
			c24.8,0,44.9,20.1,44.9,44.9v987.7C1837.9,1088.6,1829.2,1097.3,1818.4,1097.3z"/>
		<linearGradient id="SVGID_2_" gradientUnits="userSpaceOnUse" x1="300.4878" y1="571.2349" x2="1834.959" y2="571.2349">
			<stop  offset="0" style="stop-color:#F2F2F2"/>
			<stop  offset="0.2461" style="stop-color:#FAFAFA"/>
			<stop  offset="0.5721" style="stop-color:#FFFFFF"/>
			<stop  offset="0.8645" style="stop-color:#F8F8F8"/>
			<stop  offset="1" style="stop-color:#F2F2F2"/>
		</linearGradient>
		<path class="st2" d="M300.5,1076.5V91.1c0-23.7,19.2-42.9,42.9-42.9H1792c23.7,0,42.9,19.2,42.9,42.9v985.4
			c0,9.8-8,17.8-17.8,17.8H318.3C308.4,1094.3,300.5,1086.3,300.5,1076.5z"/>
		<path class="st3" d="M303.4,1075.8V92.2c0-22.6,18.3-40.9,40.9-40.9h1446.8c22.6,0,40.9,18.3,40.9,40.9v983.7
			c0,8.5-6.9,15.4-15.4,15.4H318.8C310.3,1091.2,303.4,1084.3,303.4,1075.8z"/>
		<rect x="337.2" y="112.5" class="st4" width="1461.1" height="917.6"/>
		<g>
			<circle class="st5" cx="1067.7" cy="82.7" r="11"/>
			<circle class="st6" cx="1067.7" cy="82.7" r="3.6"/>
		</g>
		<g class="st7">
			<path class="st8" d="M1962.7,1156.5l109,0c9.1,0,10.3-23.5,1.4-26.5l-148.7-50.2c-29.1-8.3-58.3-12.5-87.5-12.5H298.5
				c-29.2,0-58.4,4.1-87.5,12.5l0,0L62.3,1130c-8.9,3-7.7,26.5,1.4,26.5H1962.7z"/>
			<path class="st9" d="M212.1,1079.9L212.1,1079.9c-0.1,0-148.4,50.1-148.6,50.1c-9.1,2.2-7.7,26.4,1.3,26.4h1896.9l108.9,0
				c0,0,0,0,0,0c9,0,10.4-24.2,1.3-26.4c-0.2,0-148.5-50.1-148.6-50.1c-29.6-5.9-58.2-12.4-87.3-12.4H299.5
				C270.3,1067.4,241.2,1071.6,212.1,1079.9z"/>
			<path class="st10" d="M213.3,1080L213.3,1080c-0.2,0-148.1,49.9-148.5,50c-9.1,2.2-7.8,26.3,1.2,26.3h1894.7l108.8,0c0,0,0,0,0,0
				c8.9,0,10.3-24.2,1.2-26.3c-0.4-0.1-148.3-49.9-148.5-50c-29.6-5.9-58.1-12.4-87.2-12.4H300.5
				C271.4,1067.6,242.3,1071.7,213.3,1080z"/>
			<path class="st11" d="M214.4,1080.1L214.4,1080.1c-0.3,0-147.8,49.7-148.4,49.8c-9.1,2.2-7.8,26.2,1.1,26.3h1892.6l108.6,0
				c0,0,0,0,0,0c8.9,0,10.2-24.1,1.1-26.3c-0.6-0.1-148.1-49.8-148.4-49.8c-29.6-5.8-58-12.4-87.1-12.4H301.5
				C272.5,1067.7,243.4,1071.8,214.4,1080.1z"/>
			<path class="st12" d="M215.6,1080.2L215.6,1080.2c-0.4,0-147.5,49.5-148.3,49.7c-9.1,2.2-7.8,26.1,1,26.2h1890.4l108.5,0
				c0,0,0,0,0,0c8.8,0,10.1-24,1-26.2c-0.8-0.2-147.9-49.6-148.3-49.7c-29.5-5.8-58-12.3-87-12.3H302.6
				C273.5,1067.8,244.5,1071.9,215.6,1080.2z"/>
			<path class="st13" d="M216.7,1080.3L216.7,1080.3c-0.5,0.1-147.2,49.3-148.2,49.6c-9.1,2.2-7.9,26,0.9,26.1h1888.3h108.4
				c0,0,0,0,0,0c8.7,0,10-23.9,0.9-26.1c-1-0.2-147.7-49.5-148.2-49.6c-29.5-5.8-57.9-12.3-86.9-12.3H303.6
				C274.6,1068,245.6,1072,216.7,1080.3z"/>
			<path class="st14" d="M217.9,1080.3L217.9,1080.3c-0.7,0.1-146.9,49.2-148.1,49.4c-9.1,2.2-7.9,26,0.8,26h1886.1l108.3,0
				c0,0,0,0,0,0c8.7,0,9.9-23.8,0.8-26c-1.2-0.3-147.4-49.3-148.1-49.4c-29.4-5.8-57.8-12.3-86.8-12.3H304.6
				C275.7,1068.1,246.7,1072.2,217.9,1080.3z"/>
			<path class="st15" d="M219,1080.4L219,1080.4c-0.8,0.1-146.6,49-148,49.3c-9.1,2.2-7.9,25.9,0.7,25.9h1884l108.1,0c0,0,0,0,0,0
				c8.6,0,9.8-23.7,0.6-25.9c-1.4-0.3-147.2-49.2-148-49.3c-29.4-5.8-57.7-12.2-86.6-12.2H305.7
				C276.7,1068.2,247.8,1072.3,219,1080.4z"/>
			<path class="st16" d="M220.2,1080.5L220.2,1080.5c-0.9,0.1-146.3,48.8-147.9,49.2c-9.1,2.2-8,25.8,0.5,25.8h1881.8l108,0
				c0,0,0,0,0,0c8.5,0,9.7-23.6,0.5-25.8c-1.6-0.4-147-49-147.9-49.2c-29.3-5.8-57.6-12.2-86.5-12.2H306.7
				C277.8,1068.3,248.9,1072.4,220.2,1080.5z"/>
			<path class="st17" d="M221.3,1080.6L221.3,1080.6c-1,0.1-146,48.6-147.8,49c-9.1,2.2-8,25.7,0.4,25.7h1879.7l107.9,0c0,0,0,0,0,0
				c8.4,0,9.6-23.6,0.4-25.7c-1.8-0.4-146.8-48.8-147.8-49c-29.3-5.8-57.6-12.2-86.4-12.2h-1520
				C278.9,1068.5,250,1072.5,221.3,1080.6z"/>
			<path class="st18" d="M222.4,1080.7L222.4,1080.7c-1.1,0.1-145.7,48.4-147.7,48.9c-9.1,2.2-8,25.6,0.3,25.6h1877.5l107.8,0
				c0,0,0,0,0,0c8.4,0,9.4-23.5,0.3-25.6c-2-0.5-146.6-48.7-147.7-48.9c-29.3-5.7-57.5-12.1-86.3-12.1h-1518
				C279.9,1068.6,251.1,1072.6,222.4,1080.7z"/>
			<path class="st19" d="M223.6,1080.8L223.6,1080.8c-1.2,0.1-145.4,48.2-147.6,48.8c-9.1,2.2-8.1,25.5,0.2,25.5h1875.4h107.7
				c0,0,0,0,0,0c8.3,0,9.3-23.4,0.2-25.5c-2.2-0.5-146.4-48.5-147.6-48.8c-29.2-5.7-57.4-12.1-86.2-12.1H309.8
				C281,1068.7,252.3,1072.7,223.6,1080.8z"/>
			<path class="st20" d="M224.7,1080.9L224.7,1080.9c-1.3,0.1-145.1,48.1-147.5,48.6c-9.1,2.2-8.1,25.4,0.1,25.5h1873.2h107.5
				c0,0,0,0,0,0c8.2,0,9.2-23.3,0.1-25.5c-2.4-0.6-146.2-48.4-147.5-48.6c-29.2-5.7-57.3-12-86.1-12H310.8
				C282.1,1068.9,253.4,1072.9,224.7,1080.9z"/>
			<path class="st21" d="M225.9,1081L225.9,1081c-1.4,0.2-144.8,47.9-147.4,48.5c-9.1,2.1-8.2,25.3,0,25.4h1871.1l107.4,0
				c0,0,0,0,0,0c8.2,0,9.1-23.2,0-25.4c-2.6-0.6-146-48.2-147.4-48.5c-29.1-5.7-57.3-12-85.9-12H311.8
				C283.1,1069,254.5,1073,225.9,1081z"/>
			<path class="st22" d="M227,1081.1L227,1081.1c-1.5,0.2-144.5,47.7-147.3,48.4c-9.1,2.1-8.2,25.2-0.1,25.3h1868.9l107.3,0
				c0,0,0,0,0,0c8.1,0,9-23.1-0.1-25.3c-2.8-0.7-145.8-48.1-147.3-48.4c-29.1-5.7-57.2-12-85.8-12H312.9
				C284.2,1069.1,255.6,1073.1,227,1081.1z"/>
			<path class="st23" d="M228.2,1081.2L228.2,1081.2c-1.6,0.2-144.2,47.5-147.2,48.2c-9.1,2.1-8.2,25.1-0.2,25.2h1866.8l107.2,0
				c0,0,0,0,0,0c8,0,8.9-23-0.2-25.2c-3-0.7-145.6-47.9-147.2-48.2c-29.1-5.7-57.1-11.9-85.7-11.9H313.9
				C285.3,1069.2,256.7,1073.2,228.2,1081.2z"/>
			<path class="st24" d="M229.3,1081.3L229.3,1081.3c-1.7,0.2-143.9,47.3-147.1,48.1c-9.1,2.1-8.3,25-0.3,25.1h1864.6l107,0
				c0,0,0,0,0,0c8,0,8.8-23-0.3-25.1c-3.2-0.8-145.4-47.8-147.1-48.1c-29-5.7-57-11.9-85.6-11.9H314.9
				C286.3,1069.4,257.8,1073.3,229.3,1081.3z"/>
			<path class="st25" d="M230.5,1081.4L230.5,1081.4c-1.8,0.2-143.6,47.2-147,48c-9.1,2.1-8.3,24.9-0.4,25h1862.5l106.9,0
				c0,0,0,0,0,0c7.9,0,8.7-22.9-0.4-25c-3.4-0.8-145.2-47.6-147-48c-29-5.6-56.9-11.9-85.5-11.9H315.9
				C287.4,1069.5,258.9,1073.4,230.5,1081.4z"/>
			<path class="st26" d="M231.6,1081.5L231.6,1081.5c-2,0.2-143.3,47-146.9,47.8c-9.1,2.1-8.3,24.8-0.5,24.9h1860.3h106.8
				c0,0,0,0,0,0c7.8,0,8.6-22.8-0.5-24.9c-3.6-0.8-145-47.5-146.9-47.8c-28.9-5.6-56.9-11.8-85.4-11.8H317
				C288.5,1069.6,260,1073.6,231.6,1081.5z"/>
			<path class="st27" d="M232.8,1081.6L232.8,1081.6c-2.1,0.2-143,46.8-146.9,47.7c-9.1,2.1-8.4,24.7-0.6,24.8h1858.2h106.7
				c0,0,0,0,0,0c7.8,0,8.5-22.7-0.6-24.8c-3.8-0.9-144.8-47.3-146.9-47.7c-28.9-5.6-56.8-11.8-85.2-11.8H318
				C289.5,1069.8,261.1,1073.7,232.8,1081.6z"/>
			<path class="st28" d="M233.9,1081.6L233.9,1081.6c-2.2,0.2-142.7,46.6-146.8,47.6c-9.1,2.1-8.4,24.6-0.7,24.7h1856l106.5,0
				c0,0,0,0,0,0c7.7-0.1,8.4-22.6-0.7-24.7c-4-0.9-144.6-47.2-146.8-47.6c-28.8-5.6-56.7-11.8-85.1-11.8H319
				C290.6,1069.9,262.2,1073.8,233.9,1081.6z"/>
			<path class="st29" d="M235,1081.7L235,1081.7c-2.3,0.3-142.4,46.5-146.7,47.4c-9.1,2.1-8.4,24.5-0.8,24.6h1853.9l106.4,0
				c0,0,0,0,0,0c7.6-0.1,8.3-22.5-0.8-24.6c-4.2-1-144.4-47-146.7-47.4c-28.8-5.6-56.6-11.7-85-11.7H320.1
				C291.7,1070,263.3,1073.9,235,1081.7z"/>
			<path class="st30" d="M236.2,1081.8L236.2,1081.8c-2.4,0.3-142.1,46.3-146.6,47.3c-9.1,2.1-8.5,24.4-0.9,24.6h1851.7l106.3,0
				c0,0,0,0,0,0c7.5-0.1,8.1-22.4-0.9-24.6c-4.4-1-144.2-46.8-146.6-47.3c-28.8-5.6-56.6-11.7-84.9-11.7H321.1
				C292.7,1070.2,264.4,1074,236.2,1081.8z"/>
			<path class="st31" d="M237.3,1081.9L237.3,1081.9c-2.5,0.3-141.9,46.1-146.5,47.2c-9.1,2.1-8.5,24.4-1,24.5h1849.6l106.2,0
				c0,0,0,0,0,0c7.5-0.1,8-22.4-1-24.5c-4.6-1.1-144-46.7-146.5-47.2c-28.7-5.5-56.5-11.6-84.8-11.6H322.1
				C293.8,1070.3,265.5,1074.2,237.3,1081.9z"/>
			<path class="st32" d="M238.5,1082L238.5,1082c-2.6,0.3-141.6,45.9-146.4,47c-9.1,2.1-8.5,24.3-1.1,24.4h1847.5l106.1,0
				c0,0,0,0,0,0c7.4-0.1,7.9-22.3-1.1-24.4c-4.8-1.1-143.8-46.5-146.4-47c-28.7-5.5-56.4-11.6-84.7-11.6H323.1
				C294.9,1070.4,266.6,1074.3,238.5,1082z"/>
			<path class="st33" d="M239.6,1082.1L239.6,1082.1c-2.7,0.3-141.3,45.7-146.3,46.9c-9.1,2.1-8.6,24.2-1.2,24.3h1845.3h105.9
				c0,0,0,0,0,0c7.3-0.1,7.8-22.2-1.2-24.3c-5-1.2-143.6-46.4-146.3-46.9c-28.6-5.5-56.3-11.6-84.5-11.6H324.2
				C295.9,1070.5,267.7,1074.4,239.6,1082.1z"/>
			<path class="st34" d="M240.8,1082.2L240.8,1082.2c-2.8,0.3-141,45.6-146.2,46.8c-9.1,2.1-8.6,24.1-1.3,24.2h1843.2h105.8
				c0,0,0,0,0,0c7.3-0.1,7.7-22.1-1.3-24.2c-5.2-1.2-143.4-46.2-146.2-46.8c-28.6-5.5-56.2-11.5-84.4-11.5H325.2
				C297,1070.7,268.8,1074.5,240.8,1082.2z"/>
			<path class="st35" d="M241.9,1082.3L241.9,1082.3c-2.9,0.3-140.7,45.4-146.1,46.6c-9.1,2.1-8.6,24-1.5,24.1h1841l105.7,0
				c0,0,0,0,0,0c7.2-0.1,7.6-22-1.5-24.1c-5.4-1.3-143.2-46.1-146.1-46.6c-28.5-5.5-56.2-11.5-84.3-11.5h-1483
				C298.1,1070.8,270,1074.6,241.9,1082.3z"/>
			<path class="st36" d="M243.1,1082.4L243.1,1082.4c-3,0.3-140.4,45.2-146,46.5c-9,2.1-8.7,23.9-1.6,24h1838.9l105.6,0c0,0,0,0,0,0
				c7.1-0.1,7.5-21.9-1.6-24c-5.6-1.3-143-45.9-146-46.5c-28.5-5.5-56.1-11.5-84.2-11.5H327.3
				C299.1,1070.9,271.1,1074.7,243.1,1082.4z"/>
			<path class="st37" d="M244.2,1082.5L244.2,1082.5c-3.2,0.4-140.1,45-145.9,46.4c-9,2.1-8.7,23.8-1.7,23.9h1836.7l105.4,0
				c0,0,0,0,0,0c7.1-0.1,7.4-21.9-1.7-23.9c-5.8-1.3-142.8-45.8-145.9-46.4c-28.5-5.5-56-11.4-84.1-11.4H328.3
				C300.2,1071.1,272.2,1074.9,244.2,1082.5z"/>
			<path class="st38" d="M245.4,1082.6L245.4,1082.6c-3.3,0.4-139.8,44.8-145.8,46.2c-9,2.1-8.8,23.7-1.8,23.8h1834.6l105.3,0
				c0,0,0,0,0,0c7-0.1,7.3-21.8-1.8-23.8c-6-1.4-142.6-45.6-145.8-46.2c-28.4-5.4-55.9-11.4-84-11.4H329.3
				C301.3,1071.2,273.3,1075,245.4,1082.6z"/>
			<path class="st39" d="M246.5,1082.7L246.5,1082.7c-3.4,0.4-139.5,44.7-145.7,46.1c-9,2.1-8.8,23.6-1.9,23.8h1832.4l105.2,0
				c0,0,0,0,0,0c6.9-0.1,7.2-21.7-1.9-23.8c-6.2-1.4-142.4-45.5-145.7-46.1c-28.4-5.4-55.9-11.4-83.8-11.4H330.3
				C302.4,1071.3,274.4,1075.1,246.5,1082.7z"/>
			<path class="st40" d="M247.6,1082.8L247.6,1082.8c-3.5,0.4-139.2,44.5-145.6,46c-9,2.1-8.8,23.5-2,23.7h1830.3h105.1c0,0,0,0,0,0
				c6.9-0.1,7.1-21.6-2-23.7c-6.4-1.5-142.2-45.3-145.6-46c-28.3-5.4-55.8-11.3-83.7-11.3H331.4
				C303.4,1071.4,275.5,1075.2,247.6,1082.8z"/>
			<path class="st41" d="M248.8,1082.9L248.8,1082.9c-3.6,0.4-138.9,44.3-145.5,45.8c-9,2.1-8.9,23.4-2.1,23.6h1828.1h104.9
				c0,0,0,0,0,0c6.8-0.1,6.9-21.5-2.1-23.6c-6.6-1.5-142-45.2-145.5-45.8c-28.3-5.4-55.7-11.3-83.6-11.3H332.4
				C304.5,1071.6,276.6,1075.3,248.8,1082.9z"/>
			<path class="st42" d="M249.9,1083L249.9,1083c-3.7,0.4-138.6,44.1-145.4,45.7c-9,2.1-8.9,23.3-2.2,23.5h1826l104.8,0c0,0,0,0,0,0
				c6.7-0.1,6.8-21.4-2.2-23.5c-6.8-1.6-141.8-45-145.4-45.7c-28.3-5.4-55.6-11.2-83.5-11.2H333.4
				C305.6,1071.7,277.7,1075.4,249.9,1083z"/>
			<path class="st43" d="M251.1,1083L251.1,1083c-3.8,0.4-138.3,44-145.3,45.6c-9,2.1-8.9,23.2-2.3,23.4h1823.8l104.7,0c0,0,0,0,0,0
				c6.6-0.1,6.7-21.3-2.3-23.4c-7-1.6-141.6-44.8-145.3-45.6c-28.2-5.4-55.5-11.2-83.4-11.2H334.5
				C306.6,1071.8,278.8,1075.6,251.1,1083z"/>
			<path class="st44" d="M252.2,1083.1L252.2,1083.1c-3.9,0.4-138,43.8-145.2,45.4c-9,2.1-9,23.1-2.4,23.3h1821.7l104.6,0
				c0,0,0,0,0,0c6.6-0.1,6.6-21.3-2.4-23.3c-7.2-1.6-141.4-44.7-145.2-45.4c-28.2-5.4-55.5-11.2-83.3-11.2H335.5
				C307.7,1072,279.9,1075.7,252.2,1083.1z"/>
			<path class="st45" d="M253.4,1083.2L253.4,1083.2c-4,0.5-137.7,43.6-145.1,45.3c-9,2.1-9,23-2.5,23.2h1819.5l104.4,0c0,0,0,0,0,0
				c6.5-0.1,6.5-21.2-2.5-23.2c-7.4-1.7-141.2-44.5-145.1-45.3c-28.1-5.3-55.4-11.1-83.1-11.1H336.5
				C308.8,1072.1,281,1075.8,253.4,1083.2z"/>
			<path class="st46" d="M254.5,1083.3L254.5,1083.3c-4.1,0.5-137.4,43.4-145,45.2c-9,2-9,22.9-2.6,23.1h1817.4l104.3,0c0,0,0,0,0,0
				c6.4-0.1,6.4-21.1-2.6-23.1c-7.6-1.7-140.9-44.4-145-45.2c-28.1-5.3-55.3-11.1-83-11.1H337.5
				C309.8,1072.2,282.1,1075.9,254.5,1083.3z"/>
			<path class="st47" d="M255.7,1083.4L255.7,1083.4c-4.2,0.5-137.1,43.2-144.9,45c-9,2-9.1,22.8-2.7,23h1815.2h104.2c0,0,0,0,0,0
				c6.4-0.1,6.3-21-2.7-23c-7.8-1.8-140.7-44.2-144.9-45c-28-5.3-55.2-11.1-82.9-11.1H338.6C310.9,1072.4,283.2,1076,255.7,1083.4z"
				/>
			<path class="st48" d="M256.8,1083.5L256.8,1083.5c-4.3,0.5-136.8,43.1-144.8,44.9c-9,2-9.1,22.7-2.8,23h1813.1h104.1c0,0,0,0,0,0
				c6.3-0.1,6.2-20.9-2.8-23c-8-1.8-140.5-44.1-144.8-44.9c-28-5.3-55.2-11-82.8-11H339.6C312,1072.5,284.3,1076.1,256.8,1083.5z"/>
			<path class="st49" d="M258,1083.6L258,1083.6c-4.5,0.5-136.5,42.9-144.7,44.8c-9,2-9.1,22.7-2.9,22.9h1810.9l104,0c0,0,0,0,0,0
				c6.2-0.1,6.1-20.8-2.9-22.9c-8.2-1.9-140.3-43.9-144.7-44.8c-28-5.3-55.1-11-82.7-11H340.6C313,1072.6,285.4,1076.3,258,1083.6z"
				/>
			<path class="st50" d="M259.1,1083.7L259.1,1083.7c-4.6,0.5-136.2,42.7-144.7,44.6c-9,2-9.2,22.6-3,22.8h1808.8l103.8,0
				c0,0,0,0,0,0c6.2-0.1,6-20.7-3-22.8c-8.4-1.9-140.1-43.8-144.7-44.6c-27.9-5.3-55-11-82.6-11H341.7
				C314.1,1072.7,286.6,1076.4,259.1,1083.7z"/>
			<path class="st51" d="M260.2,1083.8L260.2,1083.8c-4.7,0.5-135.9,42.5-144.6,44.5c-9,2-9.2,22.5-3.1,22.7h1806.6l103.7,0
				c0,0,0,0,0,0c6.1-0.1,5.9-20.7-3.1-22.7c-8.6-2-139.9-43.6-144.6-44.5c-27.9-5.3-54.9-10.9-82.4-10.9H342.7
				C315.2,1072.9,287.7,1076.5,260.2,1083.8z"/>
			<path class="st52" d="M261.4,1083.9L261.4,1083.9c-4.8,0.5-135.6,42.4-144.5,44.4c-9,2-9.3,22.4-3.2,22.6h1804.5l103.6,0
				c0,0,0,0,0,0c6-0.1,5.7-20.6-3.2-22.6c-8.8-2-139.7-43.5-144.5-44.4c-27.8-5.2-54.8-10.9-82.3-10.9h-1448
				C316.2,1073,288.8,1076.6,261.4,1083.9z"/>
			<path class="st53" d="M262.5,1084L262.5,1084c-4.9,0.6-135.3,42.2-144.4,44.2c-9,2-9.3,22.3-3.3,22.5h1802.3l103.5,0c0,0,0,0,0,0
				c6-0.1,5.6-20.5-3.3-22.5c-9-2-139.5-43.3-144.4-44.2c-27.8-5.2-54.8-10.9-82.2-10.9h-1446C317.3,1073.1,289.9,1076.7,262.5,1084
				z"/>
			<path class="st54" d="M263.7,1084.1L263.7,1084.1c-5,0.6-135,42-144.3,44.1c-9,2-9.3,22.2-3.4,22.4h1800.2h103.3c0,0,0,0,0,0
				c5.9-0.1,5.5-20.4-3.4-22.4c-9.3-2.1-139.3-43.2-144.3-44.1c-27.8-5.2-54.7-10.8-82.1-10.8H345.8
				C318.4,1073.3,291,1076.9,263.7,1084.1z"/>
			<path class="st55" d="M264.8,1084.2L264.8,1084.2c-5.1,0.6-134.7,41.8-144.2,44c-9,2-9.4,22.1-3.6,22.3h1798h103.2c0,0,0,0,0,0
				c5.8-0.1,5.4-20.3-3.6-22.3c-9.5-2.1-139.1-43-144.2-44c-27.7-5.2-54.6-10.8-82-10.8H346.8C319.4,1073.4,292.1,1077,264.8,1084.2
				z"/>
			<path class="st56" d="M266,1084.3L266,1084.3c-5.2,0.6-134.4,41.7-144.1,43.8c-9,2-9.4,22-3.7,22.2h1795.9l103.1,0c0,0,0,0,0,0
				c5.7-0.1,5.3-20.2-3.7-22.2c-9.7-2.2-138.9-42.9-144.1-43.8c-27.7-5.2-54.5-10.7-81.9-10.7H347.8
				C320.5,1073.5,293.2,1077.1,266,1084.3z"/>
			<path class="st57" d="M267.1,1084.4L267.1,1084.4c-5.3,0.6-134.1,41.5-144,43.7c-9,2-9.4,21.9-3.8,22.2h1793.7l103,0c0,0,0,0,0,0
				c5.7-0.1,5.2-20.2-3.8-22.2c-9.9-2.2-138.7-42.7-144-43.7c-27.6-5.2-54.4-10.7-81.7-10.7H348.9
				C321.6,1073.6,294.3,1077.2,267.1,1084.4z"/>
			<path class="st58" d="M268.3,1084.4L268.3,1084.4c-5.4,0.6-133.8,41.3-143.9,43.6c-9,2-9.5,21.8-3.9,22.1h1791.6l102.8,0
				c0,0,0,0,0,0c5.6-0.1,5.1-20.1-3.9-22.1c-10.1-2.2-138.5-42.6-143.9-43.6c-27.6-5.2-54.4-10.7-81.6-10.7H349.9
				C322.6,1073.8,295.4,1077.3,268.3,1084.4z"/>
			<path class="st59" d="M269.4,1084.5L269.4,1084.5c-5.5,0.6-133.5,41.1-143.8,43.4c-9,2-9.5,21.7-4,22h1789.4l102.7,0c0,0,0,0,0,0
				c5.5-0.1,5-20-4-22c-10.3-2.3-138.3-42.4-143.8-43.4c-27.5-5.1-54.3-10.6-81.5-10.6H350.9
				C323.7,1073.9,296.5,1077.4,269.4,1084.5z"/>
			<path class="st60" d="M270.6,1084.6L270.6,1084.6c-5.7,0.6-133.2,41-143.7,43.3c-9,2-9.5,21.6-4.1,21.9h1787.3l102.6,0
				c0,0,0,0,0,0c5.5-0.1,4.9-19.9-4.1-21.9c-10.5-2.3-138.1-42.2-143.7-43.3c-27.5-5.1-54.2-10.6-81.4-10.6H351.9
				C324.8,1074,297.6,1077.6,270.6,1084.6z"/>
			<path class="st61" d="M271.7,1084.7L271.7,1084.7c-5.8,0.7-132.9,40.8-143.6,43.2c-9,2-9.6,21.5-4.2,21.8h1785.1h102.5
				c0,0,0,0,0,0c5.4-0.1,4.8-19.8-4.2-21.8c-10.7-2.4-137.9-42.1-143.6-43.2c-27.5-5.1-54.1-10.6-81.3-10.6H353
				C325.8,1074.2,298.7,1077.7,271.7,1084.7z"/>
			<path class="st62" d="M272.8,1084.8L272.8,1084.8c-5.9,0.7-132.6,40.6-143.5,43c-9,2-9.6,21.4-4.3,21.7h1783h102.3c0,0,0,0,0,0
				c5.3-0.1,4.7-19.7-4.3-21.7c-10.9-2.4-137.7-41.9-143.5-43c-27.4-5.1-54.1-10.5-81.1-10.5H354
				C326.9,1074.3,299.8,1077.8,272.8,1084.8z"/>
			<path class="st63" d="M274,1084.9L274,1084.9c-6,0.7-132.3,40.4-143.4,42.9c-8.9,2-9.6,21.3-4.4,21.6H1907l102.2,0c0,0,0,0,0,0
				c5.3-0.1,4.6-19.6-4.4-21.6c-11.1-2.5-137.5-41.8-143.4-42.9c-27.4-5.1-54-10.5-81-10.5H355C328,1074.4,300.9,1077.9,274,1084.9z
				"/>
			<path class="st64" d="M275.1,1085L275.1,1085c-6.1,0.7-132,40.3-143.3,42.8c-8.9,2-9.7,21.2-4.5,21.5H1906l102.1,0c0,0,0,0,0,0
				c5.2-0.1,4.4-19.6-4.5-21.5c-11.3-2.5-137.3-41.6-143.3-42.8c-27.3-5.1-53.9-10.5-80.9-10.5H356.1
				C329,1074.6,302,1078,275.1,1085z"/>
			<path class="st65" d="M276.3,1085.1L276.3,1085.1c-6.2,0.7-131.7,40.1-143.2,42.6c-8.9,2-9.7,21.1-4.6,21.4H1905l102,0
				c0,0,0,0,0,0c5.1-0.1,4.3-19.5-4.6-21.4c-11.5-2.5-137.1-41.5-143.2-42.6c-27.3-5-53.8-10.4-80.8-10.4H357.1
				C330.1,1074.7,303.2,1078.1,276.3,1085.1z"/>
			<path class="st66" d="M277.4,1085.2L277.4,1085.2c-6.3,0.7-131.4,39.9-143.1,42.5c-8.9,2-9.8,21.1-4.7,21.4H1904l101.9,0
				c0,0,0,0,0,0c5.1-0.2,4.2-19.4-4.7-21.4c-11.7-2.6-136.9-41.3-143.1-42.5c-27.3-5-53.7-10.4-80.7-10.4H358.1
				C331.2,1074.8,304.3,1078.3,277.4,1085.2z"/>
			<path class="st67" d="M278.6,1085.3L278.6,1085.3c-6.4,0.7-131.1,39.7-143,42.4c-8.9,2-9.8,21-4.8,21.3H1903l101.7,0c0,0,0,0,0,0
				c5-0.2,4.1-19.3-4.8-21.3c-11.9-2.6-136.7-41.2-143-42.4c-27.2-5-53.7-10.3-80.6-10.3H359.1
				C332.2,1074.9,305.4,1078.4,278.6,1085.3z"/>
			<path class="st68" d="M279.7,1085.4L279.7,1085.4c-6.5,0.7-130.9,39.6-142.9,42.2c-8.9,2-9.8,20.9-4.9,21.2H1902h101.6
				c0,0,0,0,0,0c4.9-0.2,4-19.2-4.9-21.2c-12.1-2.7-136.5-41-142.9-42.2c-27.2-5-53.6-10.3-80.4-10.3H360.2
				C333.3,1075.1,306.5,1078.5,279.7,1085.4z"/>
			<path class="st69" d="M280.9,1085.5L280.9,1085.5c-6.6,0.7-130.6,39.4-142.8,42.1c-8.9,2-9.9,20.8-5,21.1h1768h101.5c0,0,0,0,0,0
				c4.8-0.2,3.9-19.1-5-21.1c-12.3-2.7-136.3-40.9-142.8-42.1c-27.1-5-53.5-10.3-80.3-10.3H361.2
				C334.4,1075.2,307.6,1078.6,280.9,1085.5z"/>
			<path class="st70" d="M282,1085.6L282,1085.6c-6.7,0.8-130.3,39.2-142.7,42c-8.9,2-9.9,20.7-5.1,21h1765.8l101.4,0c0,0,0,0,0,0
				c4.8-0.2,3.8-19-5.1-21c-12.5-2.7-136.1-40.7-142.7-42c-27.1-5-53.4-10.2-80.2-10.2h-1411C335.4,1075.3,308.7,1078.7,282,1085.6z
				"/>
			<path class="st71" d="M283.2,1085.7L283.2,1085.7c-6.8,0.8-130,39-142.6,41.8c-8.9,2-9.9,20.6-5.2,20.9h1763.7l101.2,0
				c0,0,0,0,0,0c4.7-0.2,3.7-19-5.2-20.9c-12.7-2.8-135.9-40.6-142.6-41.8c-27-5-53.4-10.2-80.1-10.2H363.3
				C336.5,1075.5,309.8,1078.8,283.2,1085.7z"/>
			<path class="st72" d="M284.3,1085.8L284.3,1085.8c-7,0.8-129.7,38.9-142.5,41.7c-8.9,1.9-10,20.5-5.3,20.8h1761.5l101.1,0
				c0,0,0,0,0,0c4.6-0.2,3.6-18.9-5.3-20.8c-12.9-2.8-135.7-40.4-142.5-41.7c-27-4.9-53.3-10.2-80-10.2H364.3
				C337.6,1075.6,310.9,1079,284.3,1085.8z"/>
			<path class="st73" d="M285.4,1085.8L285.4,1085.8c-7.1,0.8-129.4,38.7-142.5,41.5c-8.9,1.9-10,20.4-5.4,20.7h1759.4l101,0
				c0,0,0,0,0,0c4.6-0.2,3.5-18.8-5.4-20.7c-13.1-2.9-135.5-40.3-142.5-41.5c-27-4.9-53.2-10.1-79.9-10.1H365.3
				C338.7,1075.7,312,1079.1,285.4,1085.8z"/>
			<path class="st74" d="M286.6,1085.9L286.6,1085.9c-7.2,0.8-129.1,38.5-142.4,41.4c-8.9,1.9-10,20.3-5.6,20.6h1757.2h100.9
				c0,0,0,0,0,0c4.5-0.2,3.4-18.7-5.6-20.6c-13.3-2.9-135.3-40.1-142.4-41.4c-26.9-4.9-53.1-10.1-79.7-10.1H366.3
				C339.7,1075.9,313.1,1079.2,286.6,1085.9z"/>
			<path class="st75" d="M287.7,1086L287.7,1086c-7.3,0.8-128.8,38.3-142.3,41.3c-8.9,1.9-10.1,20.2-5.7,20.6h1755.1h100.7
				c0,0,0,0,0,0c4.4-0.2,3.3-18.6-5.7-20.6c-13.5-2.9-135.1-40-142.3-41.3c-26.9-4.9-53-10.1-79.6-10.1H367.4
				C340.8,1076,314.2,1079.3,287.7,1086z"/>
			<path class="st76" d="M288.9,1086.1L288.9,1086.1c-7.4,0.8-128.5,38.2-142.2,41.1c-8.9,1.9-10.1,20.1-5.8,20.5h1752.9h100.6
				c0,0,0,0,0,0c4.4-0.2,3.1-18.5-5.8-20.5c-13.7-3-134.8-39.8-142.2-41.1c-26.8-4.9-53-10-79.5-10H368.4
				C341.9,1076.1,315.3,1079.4,288.9,1086.1z"/>
			<path class="st77" d="M290,1086.2L290,1086.2c-7.5,0.8-128.2,38-142.1,41c-8.9,1.9-10.1,20-5.9,20.4h1750.8l100.5,0c0,0,0,0,0,0
				c4.3-0.2,3-18.4-5.9-20.4c-13.9-3-134.6-39.7-142.1-41c-26.8-4.9-52.9-10-79.4-10H369.4C342.9,1076.2,316.4,1079.6,290,1086.2z"
				/>
			<path class="st78" d="M291.2,1086.3L291.2,1086.3c-7.6,0.9-127.9,37.8-142,40.9c-8.9,1.9-10.2,19.9-6,20.3h1748.6l100.4,0
				c0,0,0,0,0,0c4.2-0.2,2.9-18.4-6-20.3c-14.1-3-134.4-39.5-142-40.9c-26.8-4.9-52.8-9.9-79.3-9.9H370.5
				C344,1076.4,317.5,1079.7,291.2,1086.3z"/>
			<path class="st79" d="M292.3,1086.4L292.3,1086.4c-7.7,0.9-127.6,37.7-141.9,40.7c-8.9,1.9-10.2,19.8-6.1,20.2h1746.5l100.2,0
				c0,0,0,0,0,0c4.2-0.2,2.8-18.3-6.1-20.2c-14.3-3.1-134.2-39.4-141.9-40.7c-26.7-4.8-52.7-9.9-79.2-9.9H371.5
				C345.1,1076.5,318.6,1079.8,292.3,1086.4z"/>
			<path class="st80" d="M293.5,1086.5L293.5,1086.5c-7.8,0.9-127.3,37.5-141.8,40.6c-8.9,1.9-10.3,19.7-6.2,20.1h1744.3l100.1,0
				c0,0,0,0,0,0c4.1-0.2,2.7-18.2-6.2-20.1c-14.5-3.1-134-39.2-141.8-40.6c-26.7-4.8-52.7-9.9-79-9.9H372.5
				C346.1,1076.6,319.8,1079.9,293.5,1086.5z"/>
			<path class="st81" d="M294.6,1086.6L294.6,1086.6c-7.9,0.9-127,37.3-141.7,40.5c-8.9,1.9-10.3,19.6-6.3,20h1742.2h100
				c0,0,0,0,0,0c4-0.2,2.6-18.1-6.3-20c-14.7-3.2-133.8-39.1-141.7-40.5c-26.6-4.8-52.6-9.8-78.9-9.8H373.5
				C347.2,1076.8,320.9,1080,294.6,1086.6z"/>
			<path class="st82" d="M295.8,1086.7L295.8,1086.7c-8,0.9-126.7,37.1-141.6,40.3c-8.9,1.9-10.3,19.5-6.4,19.9h1740h99.9
				c0,0,0,0,0,0c3.9-0.2,2.5-18-6.4-19.9c-14.9-3.2-133.6-38.9-141.6-40.3c-26.6-4.8-52.5-9.8-78.8-9.8H374.6
				C348.3,1076.9,322,1080.1,295.8,1086.7z"/>
			<path class="st83" d="M296.9,1086.8L296.9,1086.8c-8.2,0.9-126.4,37-141.5,40.2c-8.9,1.9-10.4,19.5-6.5,19.8h1737.9h99.8
				c0,0,0,0,0,0c3.9-0.2,2.4-17.9-6.5-19.8c-15.1-3.2-133.4-38.8-141.5-40.2c-26.5-4.8-52.4-9.8-78.7-9.8H375.6
				C349.3,1077,323.1,1080.3,296.9,1086.8z"/>
			<path class="st84" d="M298,1086.9L298,1086.9c-8.3,0.9-126.1,36.8-141.4,40.1c-8.9,1.9-10.4,19.4-6.6,19.8h1735.7l99.6,0
				c0,0,0,0,0,0c3.8-0.2,2.3-17.9-6.6-19.8c-15.3-3.3-133.2-38.6-141.4-40.1c-26.5-4.8-52.3-9.7-78.6-9.7H376.6
				C350.4,1077.1,324.2,1080.4,298,1086.9z"/>
			<path class="st85" d="M299.2,1087L299.2,1087c-8.4,0.9-125.8,36.6-141.3,39.9c-8.9,1.9-10.4,19.3-6.7,19.7h1733.6l99.5,0
				c0,0,0,0,0,0c3.7-0.2,2.2-17.8-6.7-19.7c-15.5-3.3-133-38.5-141.3-39.9c-26.5-4.8-52.3-9.7-78.5-9.7H377.7
				C351.5,1077.3,325.3,1080.5,299.2,1087z"/>
			<path class="st86" d="M300.3,1087.1L300.3,1087.1c-8.5,1-125.5,36.5-141.2,39.8c-8.9,1.9-10.5,19.2-6.8,19.6h1731.4l99.4,0
				c0,0,0,0,0,0c3.7-0.2,2.1-17.7-6.8-19.6c-15.7-3.4-132.8-38.3-141.2-39.8c-26.4-4.7-52.2-9.7-78.3-9.7H378.7
				C352.5,1077.4,326.4,1080.6,300.3,1087.1z"/>
			<path class="st87" d="M301.5,1087.2L301.5,1087.2c-8.6,1-125.2,36.3-141.1,39.7c-8.9,1.9-10.5,19.1-6.9,19.5h1729.3l99.3,0
				c0,0,0,0,0,0c3.6-0.2,1.9-17.6-6.9-19.5c-15.9-3.4-132.6-38.2-141.1-39.7c-26.4-4.7-52.1-9.6-78.2-9.6h-1376
				C353.6,1077.5,327.5,1080.7,301.5,1087.2z"/>
			<path class="st88" d="M302.6,1087.2L302.6,1087.2c-8.7,1-124.9,36.1-141,39.5c-8.9,1.9-10.5,19-7,19.4h1727.1h99.1c0,0,0,0,0,0
				c3.5-0.2,1.8-17.5-7-19.4c-16.1-3.4-132.4-38-141-39.5c-26.3-4.7-52-9.6-78.1-9.6h-1374C354.7,1077.7,328.6,1080.8,302.6,1087.2z
				"/>
			<path class="st89" d="M303.8,1087.3L303.8,1087.3c-8.8,1-124.6,35.9-140.9,39.4c-8.9,1.9-10.6,18.9-7.1,19.3h1725h99c0,0,0,0,0,0
				c3.5-0.2,1.7-17.4-7.1-19.3c-16.3-3.5-132.2-37.9-140.9-39.4c-26.3-4.7-52-9.5-78-9.5H381.8
				C355.7,1077.8,329.7,1081,303.8,1087.3z"/>
			<path class="st90" d="M304.9,1087.4L304.9,1087.4c-8.9,1-124.3,35.8-140.8,39.3c-8.9,1.9-10.6,18.8-7.2,19.2h1722.8h98.9
				c0,0,0,0,0,0c3.4-0.2,1.6-17.3-7.2-19.2c-16.5-3.5-132-37.7-140.8-39.3c-26.3-4.7-51.9-9.5-77.9-9.5H382.8
				C356.8,1077.9,330.8,1081.1,304.9,1087.4z"/>
			<path class="st91" d="M306.1,1087.5L306.1,1087.5c-9,1-124,35.6-140.7,39.1c-8.8,1.9-10.6,18.7-7.3,19.1h1720.7l98.8,0
				c0,0,0,0,0,0c3.3-0.2,1.5-17.3-7.3-19.1c-16.7-3.5-131.8-37.6-140.7-39.1c-26.2-4.7-51.8-9.5-77.8-9.5H383.8
				C357.9,1078.1,331.9,1081.2,306.1,1087.5z"/>
			<path class="st92" d="M307.2,1087.6L307.2,1087.6c-9.1,1-123.7,35.4-140.6,39c-8.8,1.9-10.7,18.6-7.4,19h1718.5l98.6,0
				c0,0,0,0,0,0c3.3-0.2,1.4-17.2-7.4-19c-16.9-3.6-131.6-37.4-140.6-39c-26.2-4.7-51.7-9.4-77.6-9.4H384.9
				C358.9,1078.2,333,1081.3,307.2,1087.6z"/>
			<path class="st93" d="M308.4,1087.7L308.4,1087.7c-9.2,1-123.4,35.3-140.5,38.9c-8.8,1.9-10.7,18.5-7.5,19h1716.4l98.5,0
				c0,0,0,0,0,0c3.2-0.2,1.3-17.1-7.5-19c-17.1-3.6-131.4-37.2-140.5-38.9c-26.1-4.6-51.6-9.4-77.5-9.4H385.9
				C360,1078.3,334.1,1081.4,308.4,1087.7z"/>
			<path class="st94" d="M309.5,1087.8L309.5,1087.8c-9.3,1.1-123.1,35.1-140.4,38.7c-8.8,1.9-10.8,18.4-7.7,18.9h1714.2l98.4,0
				c0,0,0,0,0,0c3.1-0.2,1.2-17-7.7-18.9c-17.3-3.7-131.2-37.1-140.4-38.7c-26.1-4.6-51.6-9.4-77.4-9.4H386.9
				C361.1,1078.4,335.2,1081.6,309.5,1087.8z"/>
			<path class="st95" d="M310.6,1087.9L310.6,1087.9c-9.5,1.1-122.8,34.9-140.3,38.6c-8.8,1.9-10.8,18.3-7.8,18.8h1712.1h98.3
				c0,0,0,0,0,0c3.1-0.2,1.1-16.9-7.8-18.8c-17.5-3.7-131-36.9-140.3-38.6c-26-4.6-51.5-9.3-77.3-9.3H387.9
				C362.1,1078.6,336.4,1081.7,310.6,1087.9z"/>
			<path class="st96" d="M311.8,1088L311.8,1088c-9.6,1.1-122.5,34.7-140.3,38.5c-8.8,1.9-10.8,18.2-7.9,18.7h1709.9h98.1
				c0,0,0,0,0,0c3-0.2,1-16.8-7.9-18.7c-17.7-3.7-130.8-36.8-140.3-38.5c-26-4.6-51.4-9.3-77.2-9.3H389
				C363.2,1078.7,337.5,1081.8,311.8,1088z"/>
			<path class="st97" d="M312.9,1088.1L312.9,1088.1c-9.7,1.1-122.2,34.6-140.2,38.3c-8.8,1.8-10.9,18.1-8,18.6h1707.8h98
				c0,0,0,0,0,0c2.9-0.2,0.9-16.7-8-18.6c-18-3.8-130.6-36.6-140.2-38.3c-26-4.6-51.3-9.3-77.1-9.3H390
				C364.3,1078.8,338.6,1081.9,312.9,1088.1z"/>
			<path class="st98" d="M314.1,1088.2L314.1,1088.2c-9.8,1.1-121.9,34.4-140.1,38.2c-8.8,1.8-10.9,18-8.1,18.5h1705.6l97.9,0
				c0,0,0,0,0,0c2.9-0.2,0.8-16.7-8.1-18.5c-18.2-3.8-130.4-36.5-140.1-38.2c-25.9-4.6-51.3-9.2-76.9-9.2H391
				C365.3,1079,339.7,1082,314.1,1088.2z"/>
			<path class="st99" d="M315.2,1088.3L315.2,1088.3c-9.9,1.1-121.6,34.2-140,38.1c-8.8,1.8-10.9,17.9-8.2,18.4h1703.5l97.8,0
				c0,0,0,0,0,0c2.8-0.2,0.6-16.6-8.2-18.4c-18.4-3.8-130.2-36.3-140-38.1c-25.9-4.6-51.2-9.2-76.8-9.2H392.1
				C366.4,1079.1,340.8,1082.1,315.2,1088.3z"/>
			<path class="st100" d="M316.4,1088.4L316.4,1088.4c-10,1.1-121.3,34.1-139.9,37.9c-8.8,1.8-11,17.8-8.3,18.3h1701.3l97.7,0
				c0,0,0,0,0,0c2.7-0.2,0.5-16.5-8.3-18.3c-18.6-3.9-130-36.2-139.9-37.9c-25.8-4.5-51.1-9.1-76.7-9.1H393.1
				C367.5,1079.2,341.9,1082.3,316.4,1088.4z"/>
			<path class="st101" d="M317.5,1088.5L317.5,1088.5c-10.1,1.1-121,33.9-139.8,37.8c-8.8,1.8-11,17.8-8.4,18.2h1699.2l97.5,0
				c0,0,0,0,0,0c2.6-0.2,0.4-16.4-8.4-18.2c-18.8-3.9-129.8-36-139.8-37.8c-25.8-4.5-51-9.1-76.6-9.1H394.1
				C368.5,1079.3,343,1082.4,317.5,1088.5z"/>
			<path class="st102" d="M318.7,1088.6L318.7,1088.6c-10.2,1.2-120.7,33.7-139.7,37.7c-8.8,1.8-11,17.7-8.5,18.1h1697h97.4
				c0,0,0,0,0,0c2.6-0.2,0.3-16.3-8.5-18.1c-19-3.9-129.6-35.9-139.7-37.7c-25.8-4.5-50.9-9.1-76.5-9.1H395.1
				C369.6,1079.5,344.1,1082.5,318.7,1088.6z"/>
			<path class="st103" d="M319.8,1088.6L319.8,1088.6c-10.3,1.2-120.4,33.6-139.6,37.5c-8.8,1.8-11.1,17.6-8.6,18.1h1694.9h97.3
				c0,0,0,0,0,0c2.5-0.2,0.2-16.2-8.6-18.1c-19.2-4-129.3-35.7-139.6-37.5c-25.7-4.5-50.9-9-76.4-9H396.2
				C370.7,1079.6,345.2,1082.6,319.8,1088.6z"/>
			<path class="st104" d="M321,1088.7L321,1088.7c-10.4,1.2-120.1,33.4-139.5,37.4c-8.8,1.8-11.1,17.5-8.7,18h1692.7h97.2
				c0,0,0,0,0,0c2.4-0.3,0.1-16.1-8.7-18c-19.4-4-129.1-35.6-139.5-37.4c-25.7-4.5-50.8-9-76.2-9H397.2
				C371.7,1079.7,346.3,1082.7,321,1088.7z"/>
			<path class="st105" d="M322.1,1088.8L322.1,1088.8c-10.5,1.2-119.8,33.2-139.4,37.3c-8.8,1.8-11.1,17.4-8.8,17.9h1690.6l97,0
				c0,0,0,0,0,0c2.4-0.3,0-16.1-8.8-17.9c-19.6-4-128.9-35.4-139.4-37.3c-25.6-4.5-50.7-9-76.1-9h-1339
				C372.8,1079.9,347.4,1082.8,322.1,1088.8z"/>
			<path class="st106" d="M323.2,1088.9L323.2,1088.9c-10.7,1.2-119.5,33.1-139.3,37.1c-8.8,1.8-11.2,17.3-8.9,17.8h1688.5l96.9,0
				c0,0,0,0,0,0c2.3-0.3-0.1-16-8.9-17.8c-19.8-4.1-128.7-35.3-139.3-37.1c-25.6-4.4-50.6-8.9-76-8.9H399.3
				C373.9,1080,348.5,1083,323.2,1088.9z"/>
			<path class="st107" d="M324.4,1089L324.4,1089c-10.8,1.2-119.2,32.9-139.2,37c-8.8,1.8-11.2,17.2-9,17.7h1686.3l96.8,0
				c0,0,0,0,0,0c2.2-0.3-0.2-15.9-9-17.7c-20-4.1-128.5-35.2-139.2-37c-25.5-4.4-50.6-8.9-75.9-8.9H400.3
				C374.9,1080.1,349.6,1083.1,324.4,1089z"/>
			<path class="st108" d="M325.5,1089.1L325.5,1089.1c-10.9,1.2-118.9,32.7-139.1,36.9c-8.8,1.8-11.3,17.1-9.1,17.6h1684.2l96.7,0
				c0,0,0,0,0,0c2.2-0.3-0.3-15.8-9.1-17.6c-20.2-4.2-128.3-35-139.1-36.9c-25.5-4.4-50.5-8.9-75.8-8.9H401.3
				C376,1080.3,350.7,1083.2,325.5,1089.1z"/>
			<path class="st109" d="M326.7,1089.2L326.7,1089.2c-11,1.2-118.6,32.6-139,36.7c-8.8,1.8-11.3,17-9.2,17.5h1682h96.5c0,0,0,0,0,0
				c2.1-0.3-0.4-15.7-9.2-17.5c-20.4-4.2-128.1-34.9-139-36.7c-25.5-4.4-50.4-8.8-75.7-8.8H402.3
				C377.1,1080.4,351.8,1083.3,326.7,1089.2z"/>
			<path class="st110" d="M327.8,1089.3L327.8,1089.3c-11.1,1.3-118.3,32.4-138.9,36.6c-8.8,1.8-11.3,16.9-9.3,17.4h1679.9h96.4
				c0,0,0,0,0,0c2-0.3-0.6-15.6-9.3-17.4c-20.6-4.2-127.9-34.7-138.9-36.6c-25.4-4.4-50.3-8.8-75.5-8.8H403.4
				C378.2,1080.5,353,1083.4,327.8,1089.3z"/>
			<path class="st111" d="M329,1089.4L329,1089.4c-11.2,1.3-118,32.2-138.8,36.5c-8.8,1.8-11.4,16.8-9.4,17.3h1677.7h96.3
				c0,0,0,0,0,0c2-0.3-0.7-15.6-9.4-17.3c-20.8-4.3-127.7-34.6-138.8-36.5c-25.4-4.4-50.2-8.8-75.4-8.8H404.4
				C379.2,1080.6,354.1,1083.5,329,1089.4z"/>
			<path class="st112" d="M330.1,1089.5L330.1,1089.5c-11.3,1.3-117.7,32-138.7,36.3c-8.8,1.8-11.4,16.7-9.5,17.3h1675.6l96.2,0
				c0,0,0,0,0,0c1.9-0.3-0.8-15.5-9.5-17.3c-21-4.3-127.5-34.4-138.7-36.3c-25.3-4.4-50.2-8.7-75.3-8.7H405.4
				C380.3,1080.8,355.2,1083.7,330.1,1089.5z"/>
			<path class="st113" d="M331.3,1089.6L331.3,1089.6c-11.4,1.3-117.4,31.9-138.6,36.2c-8.8,1.8-11.4,16.6-9.6,17.2h1673.4l96,0
				c0,0,0,0,0,0c1.8-0.3-0.9-15.4-9.6-17.2c-21.2-4.3-127.3-34.3-138.6-36.2c-25.3-4.3-50.1-8.7-75.2-8.7H406.5
				C381.4,1080.9,356.3,1083.8,331.3,1089.6z"/>
			<path class="st114" d="M332.4,1089.7L332.4,1089.7c-11.5,1.3-117.1,31.7-138.5,36.1c-8.8,1.8-11.5,16.5-9.8,17.1h1671.3l95.9,0
				c0,0,0,0,0,0c1.8-0.3-1-15.3-9.8-17.1c-21.4-4.4-127.1-34.1-138.5-36.1c-25.3-4.3-50-8.6-75.1-8.6H407.5
				C382.4,1081,357.4,1083.9,332.4,1089.7z"/>
			<path class="st115" d="M333.6,1089.8L333.6,1089.8c-11.6,1.3-116.8,31.5-138.4,35.9c-8.8,1.8-11.5,16.4-9.9,17h1669.1l95.8,0
				c0,0,0,0,0,0c1.7-0.3-1.1-15.2-9.9-17c-21.6-4.4-126.9-34-138.4-35.9c-25.2-4.3-49.9-8.6-75-8.6H408.5
				C383.5,1081.2,358.5,1084,333.6,1089.8z"/>
			<path class="st116" d="M334.7,1089.9L334.7,1089.9c-11.7,1.3-116.5,31.4-138.3,35.8c-8.8,1.8-11.5,16.3-10,16.9h1667h95.7
				c0,0,0,0,0,0c1.6-0.3-1.2-15.1-10-16.9c-21.8-4.4-126.7-33.8-138.3-35.8c-25.2-4.3-49.9-8.6-74.8-8.6H409.5
				C384.6,1081.3,359.6,1084.1,334.7,1089.9z"/>
			<path class="st117" d="M335.9,1090L335.9,1090c-11.8,1.3-116.2,31.2-138.2,35.7c-8.8,1.8-11.6,16.2-10.1,16.8h1664.8h95.6
				c0,0,0,0,0,0c1.5-0.6-1.3-15-10.1-16.8c-22-4.5-126.5-33.7-138.2-35.7c-25.1-4.3-49.8-8.5-74.7-8.5H410.6
				C385.6,1081.4,360.7,1084.3,335.9,1090z"/>
			<path class="st118" d="M337,1090L337,1090c-12,1.4-115.9,31-138.1,35.5c-8.8,1.8-11.6,16.2-10.2,16.7h1662.7h95.4c0,0,0,0,0,0
				c1.4-0.6-1.4-15-10.2-16.7c-22.2-4.5-126.3-33.5-138.1-35.5c-25.1-4.3-49.7-8.5-74.6-8.5H411.6
				C386.7,1081.5,361.8,1084.4,337,1090z"/>
			<path class="st119" d="M338.1,1090.1L338.1,1090.1c-12.1,1.4-115.6,30.9-138.1,35.4c-8.8,1.8-11.6,16.1-10.3,16.6h1660.5l95.3,0
				c0,0,0,0,0,0c1.4-0.6-1.5-14.9-10.3-16.6c-22.4-4.5-126.1-33.4-138.1-35.4c-25-4.3-49.6-8.5-74.5-8.5H412.6
				C387.8,1081.7,362.9,1084.5,338.1,1090.1z"/>
			<path class="st120" d="M339.3,1090.2L339.3,1090.2c-12.2,1.4-115.3,30.7-138,35.3c-8.7,1.8-11.7,16-10.4,16.5h1658.4l95.2,0
				c0,0,0,0,0,0c1.3-0.6-1.6-14.8-10.4-16.5c-22.6-4.6-125.9-33.2-138-35.3c-25-4.2-49.5-8.4-74.4-8.4H413.7
				C388.8,1081.8,364,1084.6,339.3,1090.2z"/>
			<path class="st121" d="M340.4,1090.3L340.4,1090.3c-12.3,1.4-115,30.5-137.9,35.1c-8.7,1.8-11.7,15.9-10.5,16.5h1656.2l95.1,0
				c0,0,0,0,0,0c1.2-0.6-1.7-14.7-10.5-16.5c-22.8-4.6-125.7-33.1-137.9-35.1c-25-4.2-49.5-8.4-74.2-8.4H414.7
				C389.9,1081.9,365.1,1084.7,340.4,1090.3z"/>
			<path class="st122" d="M341.6,1090.4L341.6,1090.4c-12.4,1.4-114.7,30.4-137.8,35c-8.7,1.8-11.8,15.8-10.6,16.4h1654.1h94.9
				c0,0,0,0,0,0c1.2-0.6-1.9-14.6-10.6-16.4c-23-4.6-125.5-32.9-137.8-35c-24.9-4.2-49.4-8.4-74.1-8.4h-1304
				C391,1082.1,366.2,1084.8,341.6,1090.4z"/>
			<path class="st123" d="M342.7,1090.5L342.7,1090.5c-12.5,1.4-114.4,30.2-137.7,34.9c-8.7,1.7-11.8,15.7-10.7,16.3h1651.9h94.8
				c0,0,0,0,0,0c1.1-0.6-2-14.5-10.7-16.3c-23.2-4.7-125.3-32.8-137.7-34.9c-24.9-4.2-49.3-8.3-74-8.3h-1302
				C392,1082.2,367.3,1085,342.7,1090.5z"/>
			<path class="st124" d="M343.9,1090.6L343.9,1090.6c-12.6,1.4-114.1,30-137.6,34.7c-8.7,1.7-11.8,15.6-10.8,16.2h1649.8h94.7
				c0,0,0,0,0,0c1-0.6-2.1-14.4-10.8-16.2c-23.4-4.7-125.1-32.6-137.6-34.7c-24.8-4.2-49.2-8.3-73.9-8.3H417.8
				C393.1,1082.3,368.4,1085.1,343.9,1090.6z"/>
			<path class="st125" d="M345,1090.7L345,1090.7c-12.7,1.4-113.8,29.9-137.5,34.6c-8.7,1.7-11.9,15.5-10.9,16.1h1647.6h94.6
				c0,0,0,0,0,0c0.9-0.6-2.2-14.4-10.9-16.1c-23.6-4.7-124.9-32.5-137.5-34.6c-24.8-4.2-49.2-8.2-73.8-8.2H418.8
				C394.2,1082.5,369.6,1085.2,345,1090.7z"/>
			<path class="st126" d="M346.2,1090.8L346.2,1090.8c-12.8,1.4-113.5,29.7-137.4,34.5c-8.7,1.7-11.9,15.4-11,16h1645.5l94.4,0
				c0,0,0,0,0,0c0.9-0.6-2.3-14.3-11-16c-23.9-4.7-124.7-32.3-137.4-34.5c-24.8-4.2-49.1-8.2-73.7-8.2H419.8
				C395.2,1082.6,370.7,1085.3,346.2,1090.8z"/>
			<path class="st127" d="M347.3,1090.9L347.3,1090.9c-12.9,1.5-113.2,29.5-137.3,34.3c-8.7,1.7-11.9,15.3-11.1,15.9h1643.3l94.3,0
				c0,0,0,0,0,0c0.8-0.6-2.4-14.2-11.1-15.9c-24.1-4.8-124.5-32.2-137.3-34.3c-24.7-4.1-49-8.2-73.5-8.2H420.9
				C396.3,1082.7,371.8,1085.4,347.3,1090.9z"/>
			<path class="st128" d="M348.5,1091L348.5,1091c-13,1.5-112.9,29.4-137.2,34.2c-8.7,1.7-12,15.2-11.2,15.8h1641.2l94.2,0
				c0,0,0,0,0,0c0.7-0.6-2.5-14.1-11.2-15.8c-24.3-4.8-124.2-32-137.2-34.2c-24.7-4.1-48.9-8.1-73.4-8.1H421.9
				C397.4,1082.8,372.9,1085.5,348.5,1091z"/>
			<path class="st129" d="M349.6,1091.1L349.6,1091.1c-13.2,1.5-112.6,29.2-137.1,34.1c-8.7,1.7-12,15.1-11.3,15.7h1639h94.1
				c0,0,0,0,0,0c0.7-0.6-2.6-14-11.3-15.7c-24.5-4.8-124-31.9-137.1-34.1c-24.6-4.1-48.8-8.1-73.3-8.1H422.9
				C398.4,1083,374,1085.7,349.6,1091.1z"/>
			<path class="st130" d="M350.7,1091.2L350.7,1091.2c-13.3,1.5-112.3,29.1-137,33.9c-8.7,1.7-12,15-11.4,15.7h1636.9h93.9
				c0,0,0,0,0,0c0.6-0.6-2.7-13.9-11.4-15.7c-24.7-4.9-123.8-31.7-137-33.9c-24.6-4.1-48.8-8.1-73.2-8.1H423.9
				C399.5,1083.1,375.1,1085.8,350.7,1091.2z"/>
			<path class="st131" d="M351.9,1091.3L351.9,1091.3c-13.4,1.5-112,28.9-136.9,33.8c-8.7,1.7-12.1,14.9-11.5,15.6h1634.7h93.8
				c0,0,0,0,0,0c0.5-0.6-2.8-13.8-11.5-15.6c-24.9-4.9-123.6-31.6-136.9-33.8c-24.6-4.1-48.7-8-73.1-8H425
				C400.6,1083.2,376.2,1085.9,351.9,1091.3z"/>
			<path class="st132" d="M353,1091.4L353,1091.4c-13.5,1.5-111.7,28.7-136.8,33.7c-8.7,1.7-12.1,14.8-11.6,15.5h1632.6h93.7
				c0,0,0,0,0,0c0.5-0.6-2.9-13.8-11.6-15.5c-25.1-4.9-123.4-31.4-136.8-33.7c-24.5-4.1-48.6-8-73-8H426
				C401.6,1083.4,377.3,1086,353,1091.4z"/>
			<path class="st133" d="M354.2,1091.4L354.2,1091.4c-13.6,1.5-111.4,28.6-136.7,33.5c-8.7,1.7-12.1,14.7-11.8,15.4h1630.4l93.6,0
				c0,0,0,0,0,0c0.4-0.7-3-13.7-11.8-15.4c-25.3-5-123.2-31.3-136.7-33.5c-24.5-4.1-48.5-8-72.8-8H427
				C402.7,1083.5,378.4,1086.1,354.2,1091.4z"/>
			<path class="st134" d="M355.3,1091.5L355.3,1091.5c-13.7,1.5-111.1,28.4-136.6,33.4c-8.7,1.7-12.2,14.6-11.9,15.3h1628.3l93.5,0
				c0,0,0,0,0,0c0.3-0.7-3.2-13.6-11.9-15.3c-25.5-5-123-31.1-136.6-33.4c-24.4-4-48.5-7.9-72.7-7.9H428.1
				C403.8,1083.6,379.5,1086.3,355.3,1091.5z"/>
			<path class="st135" d="M356.5,1091.6L356.5,1091.6c-13.8,1.6-110.8,28.2-136.5,33.3c-8.7,1.7-12.2,14.5-12,15.2h1626.1l93.3,0
				c0,0,0,0,0,0c0.3-0.7-3.3-13.5-12-15.2c-25.7-5-122.8-31-136.5-33.3c-24.4-4-48.4-7.9-72.6-7.9H429.1
				C404.8,1083.7,380.6,1086.4,356.5,1091.6z"/>
			<path class="st136" d="M357.6,1091.7L357.6,1091.7c-13.9,1.6-110.5,28.1-136.4,33.1c-8.7,1.7-12.2,14.5-12.1,15.1h1624h93.2
				c0,0,0,0,0,0c0.2-0.7-3.4-13.4-12.1-15.1c-25.9-5.1-122.6-30.8-136.4-33.1c-24.3-4-48.3-7.8-72.5-7.8H430.1
				C405.9,1083.9,381.7,1086.5,357.6,1091.7z"/>
			<path class="st137" d="M358.8,1091.8L358.8,1091.8c-14,1.6-110.2,27.9-136.3,33c-8.7,1.7-12.3,14.4-12.2,15h1621.8h93.1
				c0,0,0,0,0,0c0.1-0.7-3.5-13.3-12.2-15c-26.1-5.1-122.4-30.7-136.3-33c-24.3-4-48.2-7.8-72.4-7.8H431.1
				C407,1084,382.8,1086.6,358.8,1091.8z"/>
			<path class="st138" d="M359.9,1091.9L359.9,1091.9c-14.1,1.6-109.9,27.7-136.2,32.9c-8.7,1.7-12.3,14.3-12.3,14.9h1619.7h93
				c0,0,0,0,0,0c0-0.7-3.6-13.3-12.3-14.9c-26.3-5.1-122.2-30.6-136.2-32.9c-24.3-4-48.1-7.8-72.3-7.8H432.2
				C408,1084.1,383.9,1086.7,359.9,1091.9z"/>
			<path class="st139" d="M361.1,1092L361.1,1092c-14.2,1.6-109.6,27.6-136.1,32.7c-8.7,1.7-12.4,14.2-12.4,14.9h1617.5h92.8
				c0,0,0,0,0,0c0-0.7-3.7-13.2-12.4-14.9c-26.5-5.1-122-30.4-136.1-32.7c-24.2-4-48.1-7.7-72.1-7.7H433.2
				C409.1,1084.3,385,1086.8,361.1,1092z"/>
			<path class="st140" d="M362.2,1092.1L362.2,1092.1c-14.3,1.6-109.3,27.4-136,32.6c-8.7,1.7-12.4,14.1-12.5,14.8h1615.4l92.7,0
				c0,0,0,0,0,0c-0.1-0.7-3.8-13.1-12.5-14.8c-26.7-5.2-121.8-30.3-136-32.6c-24.2-4-48-7.7-72-7.7h-1267
				C410.2,1084.4,386.2,1087,362.2,1092.1z"/>
			<path class="st141" d="M363.3,1092.2L363.3,1092.2c-14.5,1.6-109,27.2-135.9,32.5c-8.7,1.7-12.4,14-12.6,14.7h1613.2l92.6,0
				c0,0,0,0,0,0c-0.2-0.7-3.9-13-12.6-14.7c-26.9-5.2-121.6-30.1-135.9-32.5c-24.1-3.9-47.9-7.7-71.9-7.7H435.3
				C411.2,1084.5,387.3,1087.1,363.3,1092.2z"/>
			<path class="st142" d="M364.5,1092.3L364.5,1092.3c-14.6,1.6-108.7,27.1-135.9,32.3c-8.7,1.7-12.5,13.9-12.7,14.6H1827l92.5,0
				c0,0,0,0,0,0c-0.2-0.7-4-12.9-12.7-14.6c-27.1-5.2-121.4-30-135.9-32.3c-24.1-3.9-47.8-7.6-71.8-7.6H436.3
				C412.3,1084.7,388.4,1087.2,364.5,1092.3z"/>
			<path class="st143" d="M365.6,1092.4L365.6,1092.4c-14.7,1.7-108.4,26.9-135.8,32.2c-8.7,1.7-12.5,13.8-12.8,14.5h1609h92.3
				c0,0,0,0,0,0c-0.3-0.7-4.1-12.8-12.8-14.5c-27.3-5.3-121.2-29.8-135.8-32.2c-24.1-3.9-47.7-7.6-71.7-7.6H437.3
				C413.4,1084.8,389.5,1087.3,365.6,1092.4z"/>
			<path class="st144" d="M366.8,1092.5L366.8,1092.5c-14.8,1.7-108.1,26.8-135.7,32.1c-8.7,1.7-12.5,13.7-12.9,14.4H1825h92.2
				c0,0,0,0,0,0c-0.4-0.7-4.2-12.7-12.9-14.4c-27.5-5.3-121-29.7-135.7-32.1c-24-3.9-47.7-7.6-71.6-7.6H438.3
				C414.5,1084.9,390.6,1087.4,366.8,1092.5z"/>
			<path class="st145" d="M367.9,1092.6L367.9,1092.6c-14.9,1.7-107.8,26.6-135.6,31.9c-8.7,1.7-12.6,13.6-13,14.3H1824h92.1
				c0,0,0,0,0,0c-0.4-0.7-4.3-12.7-13-14.3c-27.7-5.3-120.8-29.5-135.6-31.9c-24-3.9-47.6-7.5-71.4-7.5H439.4
				C415.5,1085,391.7,1087.5,367.9,1092.6z"/>
			<path class="st146" d="M369.1,1092.7L369.1,1092.7c-15,1.7-107.5,26.4-135.5,31.8c-8.7,1.7-12.6,13.5-13.1,14.2H1823h92
				c0,0,0,0,0,0c-0.5-0.7-4.5-12.6-13.1-14.2c-27.9-5.4-120.6-29.4-135.5-31.8c-23.9-3.9-47.5-7.5-71.3-7.5H440.4
				C416.6,1085.2,392.8,1087.7,369.1,1092.7z"/>
			<path class="st147" d="M370.2,1092.7L370.2,1092.7c-15.1,1.7-107.2,26.3-135.4,31.7c-8.7,1.7-12.6,13.4-13.2,14.1H1822l91.9,0
				c0,0,0,0,0,0c-0.6-0.7-4.6-12.5-13.2-14.1c-28.1-5.4-120.4-29.2-135.4-31.7c-23.9-3.8-47.4-7.4-71.2-7.4H441.4
				C417.7,1085.3,393.9,1087.8,370.2,1092.7z"/>
			<path class="st148" d="M371.4,1092.8L371.4,1092.8c-15.2,1.7-106.9,26.1-135.3,31.5c-8.7,1.7-12.7,13.3-13.3,14.1H1821l91.7,0
				c0,0,0,0,0,0c-0.6-0.7-4.7-12.4-13.3-14.1c-28.3-5.4-120.2-29.1-135.3-31.5c-23.8-3.8-47.4-7.4-71.1-7.4H442.5
				C418.7,1085.4,395,1087.9,371.4,1092.8z"/>
			<path class="st149" d="M372.5,1092.9L372.5,1092.9c-15.3,1.7-106.6,25.9-135.2,31.4c-8.7,1.6-12.7,13.2-13.4,14H1820l91.6,0
				c0,0,0,0,0,0c-0.7-0.7-4.8-12.3-13.4-14c-28.5-5.4-120-28.9-135.2-31.4c-23.8-3.8-47.3-7.4-71-7.4H443.5
				C419.8,1085.6,396.1,1088,372.5,1092.9z"/>
			<path class="st150" d="M373.7,1093L373.7,1093c-15.4,1.7-106.3,25.8-135.1,31.3c-8.6,1.6-12.7,13.1-13.5,13.9h1593.9h91.5
				c0,0,0,0,0,0c-0.8-0.7-4.9-12.2-13.5-13.9c-28.8-5.5-119.8-28.8-135.1-31.3c-23.8-3.8-47.2-7.3-70.9-7.3H444.5
				C420.9,1085.7,397.2,1088.1,373.7,1093z"/>
			<path class="st151" d="M374.8,1093.1L374.8,1093.1c-15.5,1.8-106,25.6-135,31.1c-8.6,1.6-12.8,13-13.6,13.8h1591.8h91.4
				c0,0,0,0,0,0c-0.9-0.7-5-12.1-13.6-13.8c-29-5.5-119.5-28.7-135-31.1c-23.7-3.8-47.1-7.3-70.7-7.3H445.5
				C421.9,1085.8,398.3,1088.2,374.8,1093.1z"/>
			<path class="st152" d="M375.9,1093.2L375.9,1093.2c-15.7,1.8-105.7,25.5-134.9,31c-8.6,1.6-12.8,12.9-13.7,13.7h1589.6h91.2
				c0,0,0,0,0,0c-0.9-0.8-5.1-12.1-13.7-13.7c-29.2-5.5-119.3-28.5-134.9-31c-23.7-3.8-47-7.3-70.6-7.3H446.6
				C423,1086,399.4,1088.4,375.9,1093.2z"/>
			<path class="st153" d="M377.1,1093.3L377.1,1093.3c-15.8,1.8-105.4,25.3-134.8,30.9c-8.6,1.6-12.9,12.9-13.9,13.6h1587.5h91.1
				c0,0,0,0,0,0c-1-0.8-5.2-12-13.9-13.6c-29.4-5.6-119.1-28.4-134.8-30.9c-23.6-3.8-47-7.2-70.5-7.2H447.6
				C424.1,1086.1,400.5,1088.5,377.1,1093.3z"/>
			<path class="st154" d="M378.2,1093.4L378.2,1093.4c-15.9,1.8-105.1,25.1-134.7,30.7c-8.6,1.6-12.9,12.8-14,13.5h1585.3l91,0
				c0,0,0,0,0,0c-1.1-0.8-5.3-11.9-14-13.5c-29.6-5.6-118.9-28.2-134.7-30.7c-23.6-3.7-46.9-7.2-70.4-7.2H448.6
				C425.1,1086.2,401.6,1088.6,378.2,1093.4z"/>
			<path class="st155" d="M379.4,1093.5L379.4,1093.5c-16,1.8-104.8,25-134.6,30.6c-8.6,1.6-12.9,12.7-14.1,13.4h1583.2l90.9,0
				c0,0,0,0,0,0c-1.1-0.8-5.4-11.8-14.1-13.4c-29.8-5.6-118.7-28.1-134.6-30.6c-23.6-3.7-46.8-7.2-70.3-7.2H449.7
				C426.2,1086.3,402.8,1088.7,379.4,1093.5z"/>
			<path class="st156" d="M380.5,1093.6L380.5,1093.6c-16.1,1.8-104.5,24.8-134.5,30.4c-8.6,1.6-13,12.6-14.2,13.3h1581l90.7,0
				c0,0,0,0,0,0c-1.2-0.8-5.5-11.7-14.2-13.3c-30-5.6-118.5-27.9-134.5-30.4c-23.5-3.7-46.7-7.1-70.2-7.1H450.7
				C427.3,1086.5,403.9,1088.8,380.5,1093.6z"/>
			<path class="st157" d="M381.7,1093.7L381.7,1093.7c-16.2,1.8-104.2,24.7-134.4,30.3c-8.6,1.6-13,12.5-14.3,13.3h1578.9h90.6
				c0,0,0,0,0,0c-1.3-0.8-5.6-11.6-14.3-13.3c-30.2-5.7-118.3-27.8-134.4-30.3c-23.5-3.7-46.7-7.1-70-7.1h-1232
				C428.3,1086.6,405,1089,381.7,1093.7z"/>
			<path class="st158" d="M382.8,1093.8L382.8,1093.8c-16.3,1.8-103.9,24.5-134.3,30.2c-8.6,1.6-13,12.4-14.4,13.2h1576.7h90.5
				c0,0,0,0,0,0c-1.3-0.8-5.8-11.5-14.4-13.2c-30.4-5.7-118.1-27.6-134.3-30.2c-23.4-3.7-46.6-7-69.9-7h-1230
				C429.4,1086.7,406.1,1089.1,382.8,1093.8z"/>
			<path class="st159" d="M384,1093.9L384,1093.9c-16.4,1.9-103.6,24.3-134.2,30c-8.6,1.6-13.1,12.3-14.5,13.1h1574.6h90.4
				c0,0,0,0,0,0c-1.4-0.8-5.9-11.5-14.5-13.1c-30.6-5.7-117.9-27.5-134.2-30c-23.4-3.7-46.5-7-69.8-7H453.8
				C430.5,1086.9,407.2,1089.2,384,1093.9z"/>
			<path class="st160" d="M385.1,1094L385.1,1094c-16.5,1.9-103.3,24.2-134.1,29.9c-8.6,1.6-13.1,12.2-14.6,13h1572.4h90.2
				c0,0,0,0,0,0c-1.5-0.8-6-11.4-14.6-13c-30.8-5.7-117.7-27.3-134.1-29.9c-23.4-3.7-46.4-7-69.7-7H454.8
				C431.5,1087,408.3,1089.3,385.1,1094z"/>
			<path class="st161" d="M386.3,1094.1L386.3,1094.1c-16.6,1.9-103,24-134,29.8c-8.6,1.6-13.1,12.1-14.7,12.9h1570.3l90.1,0
				c0,0,0,0,0,0c-1.6-0.8-6.1-11.3-14.7-12.9c-31-5.8-117.5-27.2-134-29.8c-23.3-3.6-46.3-6.9-69.6-6.9H455.8
				C432.6,1087.1,409.4,1089.4,386.3,1094.1z"/>
			<path class="st162" d="M387.4,1094.1L387.4,1094.1c-16.7,1.9-102.7,23.8-133.9,29.6c-8.6,1.6-13.2,12-14.8,12.8h1568.1l90,0
				c0,0,0,0,0,0c-1.6-0.8-6.2-11.2-14.8-12.8c-31.2-5.8-117.3-27.1-133.9-29.6c-23.3-3.6-46.3-6.9-69.5-6.9H456.9
				C433.7,1087.2,410.5,1089.5,387.4,1094.1z"/>
			<path class="st163" d="M388.5,1094.2L388.5,1094.2c-16.8,1.9-102.4,23.7-133.8,29.5c-8.6,1.6-13.2,11.9-14.9,12.7h1566l89.9,0
				c0,0,0,0,0,0c-1.7-0.8-6.3-11.1-14.9-12.7c-31.4-5.8-117.1-26.9-133.8-29.5c-23.2-3.6-46.2-6.9-69.3-6.9H457.9
				C434.7,1087.4,411.6,1089.7,388.5,1094.2z"/>
			<path class="st164" d="M389.7,1094.3L389.7,1094.3c-17,1.9-102.1,23.5-133.7,29.4c-8.6,1.6-13.2,11.8-15,12.6h1563.8h89.8
				c0,0,0,0,0,0c-1.8-0.8-6.4-11-15-12.6c-31.6-5.8-116.9-26.8-133.7-29.4c-23.2-3.6-46.1-6.8-69.2-6.8H458.9
				C435.8,1087.5,412.7,1089.8,389.7,1094.3z"/>
			<path class="st165" d="M390.8,1094.4L390.8,1094.4c-17.1,1.9-101.8,23.4-133.7,29.2c-8.6,1.6-13.3,11.7-15.1,12.5h1561.7h89.6
				c0,0,0,0,0,0c-1.8-0.8-6.5-11-15.1-12.5c-31.8-5.9-116.7-26.6-133.7-29.2c-23.1-3.6-46-6.8-69.1-6.8H459.9
				C436.9,1087.6,413.8,1089.9,390.8,1094.4z"/>
			<path class="st166" d="M392,1094.5L392,1094.5c-17.2,1.9-101.5,23.2-133.6,29.1c-8.6,1.6-13.3,11.6-15.2,12.5h1559.5h89.5
				c0,0,0,0,0,0c-1.9-0.8-6.6-10.9-15.2-12.5c-32-5.9-116.5-26.5-133.6-29.1c-23.1-3.6-46-6.8-69-6.8H461
				C437.9,1087.8,414.9,1090,392,1094.5z"/>
			<path class="st167" d="M393.1,1094.6L393.1,1094.6c-17.3,2-101.2,23.1-133.5,29c-8.6,1.6-13.4,11.5-15.3,12.4h1557.4h89.4
				c0,0,0,0,0,0c-2-0.8-6.7-10.8-15.3-12.4c-32.2-5.9-116.3-26.3-133.5-29c-23.1-3.6-45.9-6.7-68.9-6.7H462
				C439,1087.9,416,1090.1,393.1,1094.6z"/>
			<path class="st168" d="M394.3,1094.7L394.3,1094.7c-17.4,2-100.9,22.9-133.4,28.8c-8.6,1.6-13.4,11.4-15.4,12.3h1555.2l89.3,0
				c0,0,0,0,0,0c-2-0.8-6.8-10.7-15.4-12.3c-32.4-6-116.1-26.2-133.4-28.8c-23-3.5-45.8-6.7-68.8-6.7H463
				C440.1,1088,417.1,1090.2,394.3,1094.7z"/>
			<path class="st169" d="M395.4,1094.8L395.4,1094.8c-17.5,2-100.6,22.7-133.3,28.7c-8.6,1.6-13.4,11.3-15.5,12.2h1553.1l89.1,0
				c0,0,0,0,0,0c-2.1-0.8-6.9-10.6-15.5-12.2c-32.6-6-115.9-26-133.3-28.7c-23-3.5-45.7-6.6-68.6-6.6H464.1
				C441.1,1088.2,418.2,1090.4,395.4,1094.8z"/>
			<path class="st170" d="M396.6,1094.9L396.6,1094.9c-17.6,2-100.3,22.6-133.2,28.6c-8.6,1.6-13.5,11.3-15.6,12.1h1550.9l89,0
				c0,0,0,0,0,0c-2.2-0.8-7.1-10.5-15.6-12.1c-32.8-6-115.7-25.9-133.2-28.6c-22.9-3.5-45.6-6.6-68.5-6.6H465.1
				C442.2,1088.3,419.4,1090.5,396.6,1094.9z"/>
			<path class="st171" d="M397.7,1095L397.7,1095c-17.7,2-100,22.4-133.1,28.4c-8.6,1.6-13.5,11.2-15.7,12h1548.8h88.9c0,0,0,0,0,0
				c-2.2-0.8-7.2-10.4-15.7-12c-33-6-115.5-25.8-133.1-28.4c-22.9-3.5-45.6-6.6-68.4-6.6H466.1
				C443.3,1088.4,420.5,1090.6,397.7,1095z"/>
			<path class="st172" d="M398.9,1095.1L398.9,1095.1c-17.8,2-99.7,22.3-133,28.3c-8.6,1.6-13.5,11.1-15.8,11.9h1546.6h88.8
				c0,0,0,0,0,0c-2.3-0.9-7.3-10.4-15.8-11.9c-33.3-6.1-115.3-25.6-133-28.3c-22.9-3.5-45.5-6.5-68.3-6.5H467.1
				C444.3,1088.5,421.6,1090.7,398.9,1095.1z"/>
			<path class="st173" d="M400,1095.2L400,1095.2c-17.9,2-99.4,22.1-132.9,28.2c-8.6,1.6-13.6,11-16,11.8h1544.5h88.6c0,0,0,0,0,0
				c-2.4-0.9-7.4-10.3-16-11.8c-33.5-6.1-115-25.5-132.9-28.2c-22.8-3.5-45.4-6.5-68.2-6.5H468.2
				C445.4,1088.7,422.7,1090.8,400,1095.2z"/>
			<path class="st174" d="M401.1,1095.3L401.1,1095.3c-18,2-99.1,21.9-132.8,28c-8.6,1.6-13.6,10.9-16.1,11.7h1542.3h88.5
				c0,0,0,0,0,0c-2.5-0.9-7.5-10.2-16.1-11.7c-33.7-6.1-114.8-25.3-132.8-28c-22.8-3.5-45.3-6.5-68.1-6.5H469.2
				C446.5,1088.8,423.8,1090.9,401.1,1095.3z"/>
			<path class="st175" d="M402.3,1095.4L402.3,1095.4c-18.1,2.1-98.8,21.8-132.7,27.9c-8.6,1.5-13.6,10.8-16.2,11.6h1540.2l88.4,0
				c0,0,0,0,0,0c-2.5-0.9-7.6-10.1-16.2-11.6c-33.9-6.1-114.6-25.2-132.7-27.9c-22.7-3.4-45.3-6.4-67.9-6.4h-1195
				C447.5,1088.9,424.9,1091.1,402.3,1095.4z"/>
			<path class="st176" d="M403.4,1095.5L403.4,1095.5c-18.3,2.1-98.5,21.6-132.6,27.8c-8.6,1.5-13.7,10.7-16.3,11.6h1538l88.3,0
				c0,0,0,0,0,0c-2.6-0.9-7.7-10-16.3-11.6c-34.1-6.2-114.4-25-132.6-27.8c-22.7-3.4-45.2-6.4-67.8-6.4H471.3
				C448.6,1089.1,426,1091.2,403.4,1095.5z"/>
			<path class="st177" d="M404.6,1095.5L404.6,1095.5c-18.4,2.1-98.2,21.5-132.5,27.6c-8.6,1.5-13.7,10.6-16.4,11.5h1535.9h88.1
				c0,0,0,0,0,0c-2.7-0.9-7.8-9.9-16.4-11.5c-34.3-6.2-114.2-24.9-132.5-27.6c-22.7-3.4-45.1-6.4-67.7-6.4H472.3
				C449.7,1089.2,427.1,1091.3,404.6,1095.5z"/>
			<path class="st178" d="M405.7,1095.6L405.7,1095.6c-18.5,2.1-97.9,21.3-132.4,27.5c-8.6,1.5-13.7,10.5-16.5,11.4h1533.7h88
				c0,0,0,0,0,0c-2.7-0.9-7.9-9.8-16.5-11.4c-34.5-6.2-114-24.7-132.4-27.5c-22.6-3.4-45-6.3-67.6-6.3H473.3
				C450.7,1089.3,428.2,1091.4,405.7,1095.6z"/>
			<path class="st179" d="M406.9,1095.7L406.9,1095.7c-18.6,2.1-97.6,21.2-132.3,27.4c-8.6,1.5-13.8,10.4-16.6,11.3h1531.6h87.9
				c0,0,0,0,0,0c-2.8-0.9-8-9.8-16.6-11.3c-34.7-6.2-113.8-24.6-132.3-27.4c-22.6-3.4-44.9-6.3-67.5-6.3H474.3
				C451.8,1089.4,429.3,1091.5,406.9,1095.7z"/>
			<path class="st180" d="M408,1095.8L408,1095.8c-18.7,2.1-97.3,21-132.2,27.2c-8.5,1.5-13.8,10.3-16.7,11.2h1529.5h87.8
				c0,0,0,0,0,0c-2.9-0.9-8.1-9.7-16.7-11.2c-34.9-6.2-113.6-24.5-132.2-27.2c-22.5-3.4-44.9-6.3-67.3-6.3H475.4
				C452.9,1089.6,430.4,1091.7,408,1095.8z"/>
			<path class="st181" d="M409.2,1095.9L409.2,1095.9c-18.8,2.1-97,20.8-132.1,27.1c-8.5,1.5-13.9,10.2-16.8,11.1h1527.3h87.7
				c0,0,0,0,0,0c-2.9-0.9-8.2-9.6-16.8-11.1c-35.1-6.3-113.4-24.3-132.1-27.1c-22.5-3.4-44.8-6.2-67.2-6.2H476.4
				C454,1089.7,431.5,1091.8,409.2,1095.9z"/>
			<path class="st182" d="M410.3,1096L410.3,1096c-18.9,2.1-96.7,20.7-132,27c-8.5,1.5-13.9,10.1-16.9,11h1525.2l87.5,0c0,0,0,0,0,0
				c-3-0.9-8.4-9.5-16.9-11c-35.3-6.3-113.2-24.2-132-27c-22.5-3.3-44.7-6.2-67.1-6.2H477.4C455,1089.8,432.6,1091.9,410.3,1096z"/>
			<path class="st183" d="M411.5,1096.1L411.5,1096.1c-19,2.1-96.4,20.5-131.9,26.8c-8.5,1.5-13.9,10-17,10.9h1523l87.4,0
				c0,0,0,0,0,0c-3.1-0.9-8.5-9.4-17-10.9c-35.5-6.3-113-24-131.9-26.8c-22.4-3.3-44.6-6.1-67-6.1H478.5
				C456.1,1090,433.7,1092,411.5,1096.1z"/>
			<path class="st184" d="M412.6,1096.2L412.6,1096.2c-19.1,2.2-96.1,20.4-131.8,26.7c-8.5,1.5-14,9.9-17.1,10.8h1520.9h87.3
				c0,0,0,0,0,0c-3.1-0.9-8.6-9.3-17.1-10.8c-35.7-6.3-112.8-23.9-131.8-26.7c-22.4-3.3-44.6-6.1-66.9-6.1H479.5
				C457.2,1090.1,434.8,1092.1,412.6,1096.2z"/>
			<path class="st185" d="M413.7,1096.3L413.7,1096.3c-19.2,2.2-95.8,20.2-131.7,26.6c-8.5,1.5-14,9.8-17.2,10.8h1518.7h87.2
				c0,0,0,0,0,0c-3.2-0.9-8.7-9.2-17.2-10.8c-35.9-6.4-112.6-23.7-131.7-26.6c-22.3-3.3-44.5-6.1-66.8-6.1H480.5
				C458.2,1090.2,436,1092.2,413.7,1096.3z"/>
			<path class="st186" d="M414.9,1096.4L414.9,1096.4c-19.3,2.2-95.5,20.1-131.6,26.4c-8.5,1.5-14,9.7-17.3,10.7h1516.6h87
				c0,0,0,0,0,0c-3.3-0.9-8.8-9.2-17.3-10.7c-36.1-6.4-112.4-23.6-131.6-26.4c-22.3-3.3-44.4-6-66.6-6H481.5
				C459.3,1090.4,437.1,1092.4,414.9,1096.4z"/>
			<path class="st187" d="M416,1096.5L416,1096.5c-19.5,2.2-95.2,19.9-131.6,26.3c-8.5,1.5-14.1,9.6-17.4,10.6h1514.4h86.9
				c0,0,0,0,0,0c-3.4-0.9-8.9-9.1-17.4-10.6c-36.3-6.4-112.2-23.5-131.5-26.3c-22.2-3.3-44.3-6-66.5-6H482.6
				C460.4,1090.5,438.2,1092.5,416,1096.5z"/>
			<path class="st188" d="M417.2,1096.6L417.2,1096.6c-19.6,2.2-94.9,19.7-131.5,26.2c-8.5,1.5-14.1,9.6-17.5,10.5h1512.3h86.8
				c0,0,0,0,0,0c-3.4-0.9-9-9-17.5-10.5c-36.5-6.4-112-23.3-131.5-26.2c-22.2-3.3-44.2-6-66.4-6H483.6
				C461.4,1090.6,439.3,1092.6,417.2,1096.6z"/>
			<path class="st189" d="M418.3,1096.7L418.3,1096.7c-19.7,2.2-94.6,19.6-131.4,26c-8.5,1.5-14.1,9.5-17.6,10.4h1510.1l86.7,0
				c0,0,0,0,0,0c-3.5-0.9-9.1-8.9-17.6-10.4c-36.7-6.4-111.8-23.2-131.4-26c-22.2-3.2-44.2-5.9-66.3-5.9H484.6
				C462.5,1090.7,440.4,1092.7,418.3,1096.7z"/>
			<path class="st190" d="M419.5,1096.8L419.5,1096.8c-19.8,2.2-94.3,19.4-131.3,25.9c-8.5,1.5-14.2,9.4-17.7,10.3h1508l86.5,0
				c0,0,0,0,0,0c-3.6-0.9-9.2-8.8-17.7-10.3c-36.9-6.5-111.6-23-131.3-25.9c-22.1-3.2-44.1-5.9-66.2-5.9H485.7
				C463.6,1090.9,441.5,1092.8,419.5,1096.8z"/>
			<path class="st191" d="M420.6,1096.9L420.6,1096.9c-19.9,2.2-94,19.3-131.2,25.8c-8.5,1.5-14.2,9.3-17.8,10.2h1505.8h86.4
				c0,0,0,0,0,0c-3.6-1-9.3-8.7-17.8-10.2c-37.2-6.5-111.4-22.9-131.2-25.8c-22.1-3.2-44-5.9-66.1-5.9H486.7
				C464.6,1091,442.6,1092.9,420.6,1096.9z"/>
			<path class="st192" d="M421.8,1096.9L421.8,1096.9c-20,2.3-93.7,19.1-131.1,25.6c-8.5,1.5-14.2,9.2-18,10.1h1503.7h86.3
				c0,0,0,0,0,0c-3.7-1-9.4-8.7-18-10.1c-37.4-6.5-111.2-22.7-131.1-25.6c-22-3.2-43.9-5.8-65.9-5.8h-1160
				C465.7,1091.1,443.7,1093.1,421.8,1096.9z"/>
			<path class="st193" d="M422.9,1097L422.9,1097c-20.1,2.3-93.4,19-131,25.5c-8.5,1.5-14.3,9.1-18.1,10h1501.5h86.2c0,0,0,0,0,0
				c-3.8-1-9.5-8.6-18.1-10c-37.6-6.5-110.9-22.6-131-25.5c-22-3.2-43.9-5.8-65.8-5.8h-1158C466.8,1091.3,444.8,1093.2,422.9,1097z"
				/>
			<path class="st194" d="M424.1,1097.1L424.1,1097.1c-20.2,2.3-93.1,18.8-130.9,25.4c-8.5,1.5-14.3,9-18.2,10h1499.4h86
				c0,0,0,0,0,0c-3.8-1-9.7-8.5-18.2-10c-37.8-6.6-110.7-22.5-130.9-25.4c-22-3.2-43.8-5.7-65.7-5.7H489.8
				C467.8,1091.4,445.9,1093.3,424.1,1097.1z"/>
			<path class="st195" d="M425.2,1097.2L425.2,1097.2c-20.3,2.3-92.8,18.7-130.8,25.2c-8.5,1.5-14.4,8.9-18.3,9.9h1497.2h85.9
				c0,0,0,0,0,0c-3.9-1-9.8-8.4-18.3-9.9c-38-6.6-110.5-22.3-130.8-25.2c-21.9-3.2-43.7-5.7-65.6-5.7H490.8
				C468.9,1091.5,447,1093.4,425.2,1097.2z"/>
			<path class="st196" d="M426.3,1097.3L426.3,1097.3c-20.4,2.3-92.5,18.5-130.7,25.1c-8.5,1.5-14.4,8.8-18.4,9.8h1495.1l85.8,0
				c0,0,0,0,0,0c-4-1-9.9-8.3-18.4-9.8c-38.2-6.6-110.3-22.2-130.7-25.1c-21.9-3.1-43.6-5.7-65.5-5.7H491.8
				C470,1091.6,448.1,1093.5,426.3,1097.3z"/>
			<path class="st197" d="M427.5,1097.4L427.5,1097.4c-20.5,2.3-92.2,18.3-130.6,25c-8.5,1.5-14.4,8.7-18.5,9.7h1492.9l85.7,0
				c0,0,0,0,0,0c-4.1-1-10-8.2-18.5-9.7c-38.4-6.6-110.1-22-130.6-25c-21.8-3.1-43.5-5.6-65.4-5.6H492.9
				C471,1091.8,449.2,1093.7,427.5,1097.4z"/>
			<path class="st198" d="M428.6,1097.5L428.6,1097.5c-20.6,2.3-91.9,18.2-130.5,24.8c-8.5,1.5-14.5,8.6-18.6,9.6h1490.8h85.6
				c0,0,0,0,0,0c-4.1-1-10.1-8.1-18.6-9.6c-38.6-6.6-109.9-21.9-130.5-24.8c-21.8-3.1-43.5-5.6-65.2-5.6H493.9
				C472.1,1091.9,450.3,1093.8,428.6,1097.5z"/>
			<path class="st199" d="M429.8,1097.6L429.8,1097.6c-20.8,2.3-91.6,18-130.4,24.7c-8.5,1.5-14.5,8.5-18.7,9.5h1488.6h85.4
				c0,0,0,0,0,0c-4.2-1-10.2-8.1-18.7-9.5c-38.8-6.7-109.7-21.8-130.4-24.7c-21.8-3.1-43.4-5.6-65.1-5.6H494.9
				C473.2,1092,451.4,1093.9,429.8,1097.6z"/>
			<path class="st200" d="M430.9,1097.7L430.9,1097.7c-20.9,2.4-91.3,17.9-130.3,24.6c-8.5,1.5-14.5,8.4-18.8,9.4h1486.5h85.3
				c0,0,0,0,0,0c-4.3-1-10.3-8-18.8-9.4c-39-6.7-109.5-21.6-130.3-24.6c-21.7-3.1-43.3-5.5-65-5.5H495.9
				C474.2,1092.2,452.5,1094,430.9,1097.7z"/>
			<path class="st201" d="M432.1,1097.8L432.1,1097.8c-21,2.4-91,17.7-130.2,24.4c-8.5,1.4-14.6,8.3-18.9,9.3h1484.3h85.2
				c0,0,0,0,0,0c-4.3-1-10.4-7.9-18.9-9.3c-39.2-6.7-109.3-21.5-130.2-24.4c-21.7-3.1-43.2-5.5-64.9-5.5H497
				C475.3,1092.3,453.7,1094.1,432.1,1097.8z"/>
			<path class="st202" d="M433.2,1097.9L433.2,1097.9c-21.1,2.4-90.7,17.6-130.1,24.3c-8.5,1.4-14.6,8.2-19,9.2h1482.2h85.1
				c0,0,0,0,0,0c-4.4-1-10.5-7.8-19-9.2c-39.4-6.7-109.1-21.3-130.1-24.3c-21.6-3-43.2-5.5-64.8-5.5H498
				C476.4,1092.4,454.8,1094.2,433.2,1097.9z"/>
			<path class="st203" d="M434.4,1098L434.4,1098c-21.2,2.4-90.4,17.4-130,24.2c-8.5,1.4-14.6,8.1-19.1,9.2h1480h84.9c0,0,0,0,0,0
				c-4.5-1-10.6-7.7-19.1-9.2c-39.6-6.7-108.9-21.2-130-24.2c-21.6-3-43.1-5.4-64.7-5.4H499C477.4,1092.6,455.9,1094.4,434.4,1098z"
				/>
			<path class="st204" d="M435.5,1098.1L435.5,1098.1c-21.3,2.4-90.1,17.3-129.9,24c-8.5,1.4-14.7,8-19.2,9.1h1477.9l84.8,0
				c0,0,0,0,0,0c-4.5-1-10.7-7.6-19.2-9.1c-39.8-6.8-108.7-21.1-129.9-24c-21.6-3-43-5.4-64.5-5.4H500.1
				C478.5,1092.7,457,1094.5,435.5,1098.1z"/>
			<path class="st205" d="M436.7,1098.2L436.7,1098.2c-21.4,2.4-89.8,17.1-129.8,23.9c-8.5,1.4-14.7,8-19.3,9h1475.7h84.7
				c0,0,0,0,0,0c-4.6-1-10.8-7.5-19.3-9c-40-6.8-108.5-20.9-129.8-23.9c-21.5-3-42.9-5.3-64.4-5.3H501.1
				C479.6,1092.8,458.1,1094.6,436.7,1098.2z"/>
			<path class="st206" d="M437.8,1098.3L437.8,1098.3c-21.5,2.4-89.5,17-129.7,23.8c-8.5,1.4-14.7,7.9-19.4,8.9h1473.6h84.6
				c0,0,0,0,0,0c-4.7-1-11-7.5-19.4-8.9c-40.2-6.8-108.3-20.8-129.7-23.8c-21.5-3-42.8-5.3-64.3-5.3H502.1
				C480.6,1092.9,459.2,1094.7,437.8,1098.3z"/>
			<path class="st207" d="M438.9,1098.3L438.9,1098.3c-21.6,2.4-89.2,16.8-129.6,23.6c-8.5,1.4-14.8,7.8-19.5,8.8h1471.4h84.4
				c0,0,0,0,0,0c-4.7-1-11.1-7.4-19.5-8.8c-40.4-6.8-108.1-20.6-129.6-23.6c-21.4-3-42.8-5.3-64.2-5.3H503.1
				C481.7,1093.1,460.3,1094.8,438.9,1098.3z"/>
			<path class="st208" d="M440.1,1098.4L440.1,1098.4c-21.7,2.5-88.9,16.7-129.5,23.5c-8.5,1.4-14.8,7.7-19.6,8.7h1469.3h84.3
				c0,0,0,0,0,0c-4.8-1-11.2-7.3-19.6-8.7c-40.6-6.8-107.9-20.5-129.5-23.5c-21.4-3-42.7-5.2-64.1-5.2H504.2
				C482.8,1093.2,461.4,1094.9,440.1,1098.4z"/>
			<path class="st209" d="M441.2,1098.5L441.2,1098.5c-21.8,2.5-88.6,16.5-129.4,23.4c-8.5,1.4-14.9,7.6-19.7,8.6h1467.1h84.2
				c0,0,0,0,0,0c-4.9-1-11.3-7.2-19.7-8.6c-40.9-6.9-107.7-20.4-129.4-23.4c-21.4-2.9-42.6-5.2-64-5.2H505.2
				C483.8,1093.3,462.5,1095.1,441.2,1098.5z"/>
			<path class="st210" d="M442.4,1098.6L442.4,1098.6c-22,2.5-88.3,16.4-129.4,23.2c-8.5,1.4-14.9,7.5-19.8,8.5h1465h84.1
				c0,0,0,0,0,0c-5-1.1-11.4-7.1-19.8-8.5c-41.1-6.9-107.5-20.2-129.3-23.2c-21.3-2.9-42.5-5.2-63.8-5.2h-1123
				C484.9,1093.5,463.6,1095.2,442.4,1098.6z"/>
			<path class="st211" d="M443.5,1098.7L443.5,1098.7c-22.1,2.5-88,16.2-129.3,23.1c-8.5,1.4-14.9,7.4-19.9,8.4h1462.8l83.9,0
				c0,0,0,0,0,0c-5-1.1-11.5-7-19.9-8.4c-41.3-6.9-107.3-20.1-129.3-23.1c-21.3-2.9-42.5-5.1-63.7-5.1H507.3
				C486,1093.6,464.7,1095.3,443.5,1098.7z"/>
			<path class="st212" d="M444.7,1098.8L444.7,1098.8c-22.2,2.5-87.7,16-129.2,23c-8.4,1.4-15,7.3-20.1,8.4h1460.7h83.8c0,0,0,0,0,0
				c-5.1-1.1-11.6-6.9-20.1-8.4c-41.5-6.9-107.1-19.9-129.2-23c-21.2-2.9-42.4-5.1-63.6-5.1H508.3
				C487,1093.7,465.8,1095.4,444.7,1098.8z"/>
			<path class="st213" d="M445.8,1098.9L445.8,1098.9c-22.3,2.5-87.4,15.9-129.1,22.8c-8.4,1.4-15,7.2-20.2,8.3h1458.5h83.7
				c0,0,0,0,0,0c-5.2-1.1-11.7-6.9-20.2-8.3c-41.7-6.9-106.8-19.8-129.1-22.8c-21.2-2.9-42.3-5.1-63.5-5.1H509.3
				C488.1,1093.9,466.9,1095.5,445.8,1098.9z"/>
			<path class="st214" d="M447,1099L447,1099c-22.4,2.5-87.1,15.7-129,22.7c-8.4,1.4-15,7.1-20.3,8.2h1456.4h83.6c0,0,0,0,0,0
				c-5.2-1.1-11.8-6.8-20.3-8.2c-41.9-6.9-106.6-19.7-129-22.7c-21.1-2.9-42.2-5-63.4-5H510.3C489.2,1094,468,1095.6,447,1099z"/>
			<path class="st215" d="M448.1,1099.1L448.1,1099.1c-22.5,2.5-86.8,15.6-128.9,22.6c-8.4,1.4-15.1,7-20.4,8.1h1454.2h83.5
				c0,0,0,0,0,0c-5.3-1.1-11.9-6.7-20.4-8.1c-42.1-7-106.4-19.5-128.9-22.6c-21.1-2.9-42.1-5-63.3-5H511.4
				C490.3,1094.1,469.1,1095.8,448.1,1099.1z"/>
			<path class="st216" d="M449.3,1099.2L449.3,1099.2c-22.6,2.6-86.5,15.4-128.8,22.4c-8.4,1.4-15.1,6.9-20.5,8h1452.1h83.3
				c0,0,0,0,0,0c-5.4-1.1-12-6.6-20.5-8c-42.3-7-106.2-19.4-128.8-22.4c-21.1-2.8-42.1-4.9-63.1-4.9H512.4
				C491.3,1094.2,470.3,1095.9,449.3,1099.2z"/>
			<path class="st217" d="M450.4,1099.3L450.4,1099.3c-22.7,2.6-86.2,15.3-128.7,22.3c-8.4,1.4-15.1,6.8-20.6,7.9h1450h83.2
				c0,0,0,0,0,0c-5.4-1.1-12.1-6.5-20.6-7.9c-42.5-7-106-19.2-128.7-22.3c-21-2.8-42-4.9-63-4.9H513.4
				C492.4,1094.4,471.4,1096,450.4,1099.3z"/>
			<path class="st218" d="M451.5,1099.4L451.5,1099.4c-22.8,2.6-85.9,15.1-128.6,22.2c-8.4,1.4-15.2,6.7-20.7,7.8h1447.8l83.1,0
				c0,0,0,0,0,0c-5.5-1.1-12.3-6.4-20.7-7.8c-42.7-7-105.8-19.1-128.6-22.2c-21-2.8-41.9-4.9-62.9-4.9H514.5
				C493.5,1094.5,472.5,1096.1,451.5,1099.4z"/>
			<path class="st219" d="M452.7,1099.5L452.7,1099.5c-22.9,2.6-85.6,15-128.5,22c-8.4,1.4-15.2,6.6-20.8,7.7h1445.7h83c0,0,0,0,0,0
				c-5.6-1.1-12.4-6.4-20.8-7.7c-42.9-7-105.6-19-128.5-22c-20.9-2.8-41.8-4.8-62.8-4.8H515.5
				C494.5,1094.6,473.6,1096.2,452.7,1099.5z"/>
			<path class="st220" d="M453.8,1099.6L453.8,1099.6c-23,2.6-85.3,14.8-128.4,21.9c-8.4,1.4-15.2,6.5-20.9,7.6h1443.5h82.8
				c0,0,0,0,0,0c-5.6-1.1-12.5-6.3-20.9-7.6c-43.1-7.1-105.4-18.8-128.4-21.9c-20.9-2.8-41.8-4.8-62.7-4.8H516.5
				C495.6,1094.8,474.7,1096.4,453.8,1099.6z"/>
			<path class="st221" d="M455,1099.7L455,1099.7c-23.1,2.6-85,14.7-128.3,21.8c-8.4,1.4-15.3,6.4-21,7.6H1747h82.7c0,0,0,0,0,0
				c-5.7-1.1-12.6-6.2-21-7.6c-43.3-7.1-105.2-18.7-128.3-21.8c-20.9-2.8-41.7-4.8-62.6-4.8H517.5
				C496.7,1094.9,475.8,1096.5,455,1099.7z"/>
			<path class="st222" d="M456.1,1099.7L456.1,1099.7c-23.3,2.6-84.7,14.5-128.2,21.6c-8.4,1.4-15.3,6.4-21.1,7.5H1746h82.6
				c0,0,0,0,0,0c-5.8-1.1-12.7-6.1-21.1-7.5c-43.5-7.1-105-18.5-128.2-21.6c-20.8-2.8-41.6-4.7-62.4-4.7H518.6
				C497.7,1095,476.9,1096.6,456.1,1099.7z"/>
			<path class="st223" d="M457.3,1099.8L457.3,1099.8c-23.4,2.6-84.4,14.4-128.1,21.5c-8.4,1.4-15.4,6.3-21.2,7.4H1745h82.5
				c0,0,0,0,0,0c-5.9-1.1-12.8-6-21.2-7.4c-43.7-7.1-104.8-18.4-128.1-21.5c-20.8-2.7-41.5-4.7-62.3-4.7H519.6
				C498.8,1095.1,478,1096.7,457.3,1099.8z"/>
			<path class="st224" d="M458.4,1099.9L458.4,1099.9c-23.5,2.7-84.1,14.2-128,21.4c-8.4,1.4-15.4,6.2-21.3,7.3H1744h82.3
				c0,0,0,0,0,0c-5.9-1.1-12.9-5.9-21.3-7.3c-43.9-7.1-104.6-18.3-128-21.4c-20.7-2.7-41.4-4.7-62.2-4.7H520.6
				C499.9,1095.3,479.1,1096.8,458.4,1099.9z"/>
			<path class="st225" d="M459.6,1100L459.6,1100c-23.6,2.7-83.8,14.1-127.9,21.2c-8.4,1.4-15.4,6.1-21.4,7.2H1743h82.2c0,0,0,0,0,0
				c-6-1.1-13-5.8-21.4-7.2c-44.2-7.1-104.4-18.1-127.9-21.2c-20.7-2.7-41.4-4.6-62.1-4.6H521.7
				C500.9,1095.4,480.2,1096.9,459.6,1100z"/>
			<path class="st226" d="M460.7,1100.1L460.7,1100.1c-23.7,2.7-83.5,13.9-127.8,21.1c-8.4,1.4-15.5,6-21.5,7.1H1742h82.1
				c0,0,0,0,0,0c-6.1-1.1-13.1-5.8-21.5-7.1c-44.4-7.2-104.2-18-127.8-21.1c-20.7-2.7-41.3-4.6-62-4.6H522.7
				C502,1095.5,481.3,1097.1,460.7,1100.1z"/>
			<path class="st227" d="M461.9,1100.2L461.9,1100.2c-23.8,2.7-83.2,13.8-127.7,21c-8.4,1.4-15.5,5.9-21.6,7H1741h82c0,0,0,0,0,0
				c-6.1-1.1-13.2-5.7-21.6-7c-44.6-7.2-104-17.9-127.7-21c-20.6-2.7-41.2-4.5-61.9-4.5h-1088
				C503.1,1095.7,482.4,1097.2,461.9,1100.2z"/>
			<path class="st228" d="M463,1100.3L463,1100.3c-23.9,2.7-82.9,13.6-127.6,20.8c-8.4,1.3-15.5,5.8-21.7,6.9H1740h81.8c0,0,0,0,0,0
				c-6.2-1.1-13.3-5.6-21.7-6.9c-44.8-7.2-103.8-17.7-127.6-20.8c-20.6-2.7-41.1-4.5-61.7-4.5h-1086
				C504.1,1095.8,483.5,1097.3,463,1100.3z"/>
			<path class="st229" d="M464.1,1100.4L464.1,1100.4c-24,2.7-82.6,13.5-127.5,20.7c-8.4,1.3-15.6,5.7-21.8,6.8h1424.2h81.7
				c0,0,0,0,0,0c-6.3-1.2-13.4-5.5-21.8-6.8c-45-7.2-103.6-17.6-127.5-20.7c-20.5-2.7-41-4.5-61.6-4.5H525.8
				C505.2,1095.9,484.6,1097.4,464.1,1100.4z"/>
			<path class="st230" d="M465.3,1100.5L465.3,1100.5c-24.1,2.7-82.3,13.3-127.4,20.6c-8.4,1.3-15.6,5.6-21.9,6.8h1422h81.6
				c0,0,0,0,0,0c-6.3-1.2-13.6-5.4-21.9-6.8c-45.2-7.2-103.4-17.4-127.4-20.6c-20.5-2.6-41-4.4-61.5-4.4H526.8
				C506.3,1096.1,485.7,1097.5,465.3,1100.5z"/>
			<path class="st231" d="M466.4,1100.6L466.4,1100.6c-24.2,2.7-82,13.2-127.3,20.4c-8.4,1.3-15.6,5.5-22,6.7h1419.9h81.5
				c0,0,0,0,0,0c-6.4-1.2-13.7-5.3-22-6.7c-45.4-7.2-103.2-17.3-127.3-20.4c-20.5-2.6-40.9-4.4-61.4-4.4H527.8
				C507.3,1096.2,486.9,1097.6,466.4,1100.6z"/>
			<path class="st232" d="M467.6,1100.7L467.6,1100.7c-24.3,2.8-81.7,13-127.2,20.3c-8.4,1.3-15.7,5.4-22.2,6.6h1417.7h81.4
				c0,0,0,0,0,0c-6.5-1.2-13.8-5.2-22.2-6.6c-45.6-7.2-102.9-17.2-127.2-20.3c-20.4-2.6-40.8-4.4-61.3-4.4H528.9
				C508.4,1096.3,488,1097.8,467.6,1100.7z"/>
			<path class="st233" d="M468.7,1100.8L468.7,1100.8c-24.5,2.8-81.4,12.9-127.2,20.2c-8.4,1.3-15.7,5.3-22.3,6.5h1415.6h81.2
				c0,0,0,0,0,0c-6.6-1.2-13.9-5.2-22.3-6.5c-45.8-7.3-102.7-17-127.2-20.2c-20.4-2.6-40.7-4.3-61.2-4.3H529.9
				C509.5,1096.4,489.1,1097.9,468.7,1100.8z"/>
			<path class="st234" d="M469.9,1100.9L469.9,1100.9c-24.6,2.8-81,12.7-127.1,20c-8.4,1.3-15.7,5.2-22.4,6.4h1413.4h81.1
				c0,0,0,0,0,0c-6.6-1.2-14-5.1-22.4-6.4c-46-7.3-102.5-16.9-127.1-20c-20.3-2.6-40.7-4.3-61-4.3H530.9
				C510.5,1096.6,490.2,1098,469.9,1100.9z"/>
			<path class="st235" d="M471,1101L471,1101c-24.7,2.8-80.7,12.6-127,19.9c-8.4,1.3-15.8,5.1-22.5,6.3h1411.3h81c0,0,0,0,0,0
				c-6.7-1.2-14.1-5-22.5-6.3c-46.2-7.3-102.3-16.8-127-19.9c-20.3-2.6-40.6-4.3-60.9-4.3H531.9C511.6,1096.7,491.3,1098.1,471,1101
				z"/>
			<path class="st236" d="M472.2,1101.1L472.2,1101.1c-24.8,2.8-80.4,12.5-126.9,19.8c-8.4,1.3-15.8,5-22.6,6.2h1409.1h80.9
				c0,0,0,0,0,0c-6.8-1.2-14.2-4.9-22.6-6.2c-46.4-7.3-102.1-16.6-126.9-19.8c-20.3-2.6-40.5-4.2-60.8-4.2H533
				C512.7,1096.8,492.4,1098.2,472.2,1101.1z"/>
			<path class="st237" d="M473.3,1101.1L473.3,1101.1c-24.9,2.8-80.1,12.3-126.8,19.6c-8.4,1.3-15.9,4.9-22.7,6.1h1407h80.7
				c0,0,0,0,0,0c-6.8-1.2-14.3-4.8-22.7-6.1c-46.6-7.3-101.9-16.5-126.8-19.6c-20.2-2.5-40.4-4.2-60.7-4.2H534
				C513.7,1097,493.5,1098.3,473.3,1101.1z"/>
			<path class="st238" d="M474.5,1101.2L474.5,1101.2c-25,2.8-79.8,12.2-126.7,19.5c-8.4,1.3-15.9,4.8-22.8,6h1404.8h80.6
				c0,0,0,0,0,0c-6.9-1.2-14.4-4.7-22.8-6c-46.8-7.3-101.7-16.4-126.7-19.5c-20.2-2.5-40.3-4.1-60.6-4.1H535
				C514.8,1097.1,494.6,1098.5,474.5,1101.2z"/>
			<path class="st239" d="M475.6,1101.3L475.6,1101.3c-25.1,2.8-79.5,12-126.6,19.3c-8.4,1.3-15.9,4.7-22.9,6h1402.7h80.5
				c0,0,0,0,0,0c-7-1.2-14.5-4.6-22.9-6c-47-7.3-101.5-16.2-126.6-19.3c-20.1-2.5-40.3-4.1-60.4-4.1H536.1
				C515.9,1097.2,495.7,1098.6,475.6,1101.3z"/>
			<path class="st240" d="M476.7,1101.4L476.7,1101.4c-25.2,2.8-79.2,11.9-126.5,19.2c-8.4,1.3-16,4.7-23,5.9h1400.5h80.4
				c0,0,0,0,0,0c-7-1.2-14.6-4.6-23-5.9c-47.2-7.4-101.3-16.1-126.5-19.2c-20.1-2.5-40.2-4.1-60.3-4.1H537.1
				C516.9,1097.3,496.8,1098.7,476.7,1101.4z"/>
			<path class="st241" d="M477.9,1101.5L477.9,1101.5c-25.3,2.9-78.9,11.7-126.4,19.1c-8.4,1.3-16,4.6-23.1,5.8h1398.4h80.2
				c0,0,0,0,0,0c-7.1-1.2-14.7-4.5-23.1-5.8c-47.5-7.4-101.1-15.9-126.4-19.1c-20.1-2.5-40.1-4-60.2-4H538.1
				C518,1097.5,497.9,1098.8,477.9,1101.5z"/>
			<path class="st242" d="M479,1101.6L479,1101.6c-25.4,2.9-78.6,11.6-126.3,18.9c-8.4,1.3-16,4.5-23.2,5.7h1396.2h80.1c0,0,0,0,0,0
				c-7.2-1.2-14.8-4.4-23.2-5.7c-47.7-7.4-100.9-15.8-126.3-18.9c-20-2.5-40-4-60.1-4H539.1C519.1,1097.6,499,1098.9,479,1101.6z"/>
			<path class="st243" d="M480.2,1101.7L480.2,1101.7c-25.5,2.9-78.3,11.4-126.2,18.8c-8.4,1.3-16.1,4.4-23.3,5.6h1394.1h80
				c0,0,0,0,0,0c-7.2-1.2-15-4.3-23.3-5.6c-47.9-7.4-100.7-15.7-126.2-18.8c-20-2.5-40-4-60-4H540.2
				C520.1,1097.7,500.1,1099.1,480.2,1101.7z"/>
			<path class="st244" d="M481.3,1101.8L481.3,1101.8c-25.6,2.9-78,11.3-126.1,18.7c-8.4,1.3-16.1,4.3-23.4,5.5h1391.9h79.9
				c0,0,0,0,0,0c-7.3-1.2-15.1-4.2-23.4-5.5c-48.1-7.4-100.5-15.5-126.1-18.7c-19.9-2.4-39.9-3.9-59.9-3.9H541.2
				C521.2,1097.9,501.2,1099.2,481.3,1101.8z"/>
			<path class="st245" d="M482.5,1101.9L482.5,1101.9c-25.8,2.9-77.7,11.1-126,18.5c-8.3,1.3-16.1,4.2-23.5,5.4h1389.8h79.7
				c0,0,0,0,0,0c-7.4-1.2-15.2-4.1-23.5-5.4c-48.3-7.4-100.3-15.4-126-18.5c-19.9-2.4-39.8-3.9-59.7-3.9h-1051
				C522.3,1098,502.3,1099.3,482.5,1101.9z"/>
			<path class="st246" d="M483.6,1102L483.6,1102c-25.9,2.9-77.4,11-125.9,18.4c-8.3,1.3-16.2,4.1-23.6,5.3h1387.6h79.6c0,0,0,0,0,0
				c-7.5-1.2-15.3-4-23.6-5.3c-48.5-7.4-100.1-15.3-125.9-18.4c-19.9-2.4-39.7-3.9-59.6-3.9H543.3
				C523.3,1098.1,503.5,1099.4,483.6,1102z"/>
			<path class="st247" d="M484.8,1102.1L484.8,1102.1c-26,2.9-77.1,10.8-125.8,18.3c-8.3,1.3-16.2,4-23.7,5.2h1385.5h79.5
				c0,0,0,0,0,0c-7.5-1.2-15.4-4-23.7-5.2c-48.7-7.4-99.9-15.1-125.8-18.3c-19.8-2.4-39.6-3.8-59.5-3.8H544.3
				C524.4,1098.3,504.6,1099.5,484.8,1102.1z"/>
			<path class="st248" d="M485.9,1102.2L485.9,1102.2c-26.1,2.9-76.8,10.7-125.7,18.1c-8.3,1.3-16.2,3.9-23.8,5.1h1383.3h79.4
				c0,0,0,0,0,0c-7.6-1.2-15.5-3.9-23.8-5.1c-48.9-7.5-99.7-15-125.7-18.1c-19.8-2.4-39.6-3.8-59.4-3.8H545.3
				C525.5,1098.4,505.7,1099.6,485.9,1102.2z"/>
			<path class="st249" d="M487.1,1102.3L487.1,1102.3c-26.2,3-76.5,10.5-125.6,18c-8.3,1.3-16.3,3.8-23.9,5.1h1381.2h79.3
				c0,0,0,0,0,0c-7.7-1.3-15.6-3.8-23.9-5.1c-49.1-7.5-99.4-14.9-125.6-18c-19.7-2.4-39.5-3.8-59.3-3.8H546.3
				C526.6,1098.5,506.8,1099.8,487.1,1102.3z"/>
			<path class="st250" d="M488.2,1102.4L488.2,1102.4c-26.3,3-76.2,10.4-125.5,17.9c-8.3,1.3-16.3,3.7-24,5h1379h79.1c0,0,0,0,0,0
				c-7.7-1.3-15.7-3.7-24-5c-49.3-7.5-99.2-14.7-125.5-17.9c-19.7-2.4-39.4-3.7-59.2-3.7H547.4
				C527.6,1098.6,507.9,1099.9,488.2,1102.4z"/>
			<path class="st251" d="M489.4,1102.5L489.4,1102.5c-26.4,3-75.9,10.3-125.4,17.7c-8.3,1.3-16.3,3.6-24.2,4.9h1376.9h79
				c0,0,0,0,0,0c-7.8-1.3-15.8-3.6-24.2-4.9c-49.5-7.5-99-14.6-125.4-17.7c-19.7-2.3-39.3-3.7-59-3.7H548.4
				C528.7,1098.8,509,1100,489.4,1102.5z"/>
			<path class="st252" d="M490.5,1102.5L490.5,1102.5c-26.5,3-75.6,10.1-125.3,17.6c-8.3,1.3-16.4,3.5-24.3,4.8h1374.7h78.9
				c0,0,0,0,0,0c-7.9-1.3-15.9-3.5-24.3-4.8c-49.7-7.5-98.8-14.5-125.3-17.6c-19.6-2.3-39.3-3.6-58.9-3.6H549.4
				C529.8,1098.9,510.1,1100.1,490.5,1102.5z"/>
			<path class="st253" d="M491.6,1102.6L491.6,1102.6c-26.6,3-75.3,10-125.2,17.5c-8.3,1.3-16.4,3.4-24.4,4.7h1372.6h78.8
				c0,0,0,0,0,0c-7.9-1.3-16-3.5-24.4-4.7c-49.9-7.5-98.6-14.3-125.2-17.5c-19.6-2.3-39.2-3.6-58.8-3.6H550.5
				C530.8,1099,511.2,1100.2,491.6,1102.6z"/>
			<path class="st254" d="M492.8,1102.7L492.8,1102.7c-26.7,3-75,9.8-125.1,17.3c-8.3,1.2-16.5,3.3-24.5,4.6h1370.5h78.6
				c0,0,0,0,0,0c-8-1.3-16.1-3.4-24.5-4.6c-50.1-7.5-98.4-14.2-125.1-17.3c-19.5-2.3-39.1-3.6-58.7-3.6H551.5
				C531.9,1099.2,512.3,1100.3,492.8,1102.7z"/>
			<path class="st255" d="M493.9,1102.8L493.9,1102.8c-26.8,3-74.7,9.7-125,17.2c-8.3,1.2-16.5,3.2-24.6,4.5h1368.3h78.5
				c0,0,0,0,0,0c-8.1-1.3-16.3-3.3-24.6-4.5c-50.3-7.5-98.2-14.1-125-17.2c-19.5-2.3-39-3.5-58.6-3.5H552.5
				C533,1099.3,513.4,1100.5,493.9,1102.8z"/>
			<path class="st256" d="M495.1,1102.9L495.1,1102.9c-27,3-74.4,9.5-125,17.1c-8.3,1.2-16.5,3.1-24.7,4.4h1366.2h78.4c0,0,0,0,0,0
				c-8.1-1.3-16.4-3.2-24.7-4.4c-50.6-7.5-98-13.9-125-17.1c-19.5-2.3-38.9-3.5-58.5-3.5H553.5
				C534,1099.4,514.5,1100.6,495.1,1102.9z"/>
			<path class="st257" d="M496.2,1103L496.2,1103c-27.1,3.1-74.1,9.4-124.9,16.9c-8.3,1.2-16.6,3.1-24.8,4.3h1364h78.3c0,0,0,0,0,0
				c-8.2-1.3-16.5-3.1-24.8-4.3c-50.8-7.6-97.8-13.8-124.9-16.9c-19.4-2.3-38.9-3.5-58.3-3.5H554.6
				C535.1,1099.5,515.6,1100.7,496.2,1103z"/>
			<path class="st258" d="M497.4,1103.1L497.4,1103.1c-27.2,3.1-73.8,9.3-124.8,16.8c-8.3,1.3-16.6,3-24.9,4.3h1361.9h78.1
				c0,0,0,0,0,0c-8.3-1.3-16.6-3-24.9-4.3c-51-7.5-97.6-13.7-124.8-16.8c-19.4-2.2-38.8-3.4-58.2-3.4H555.6
				C536.2,1099.7,516.7,1100.8,497.4,1103.1z"/>
			<path class="st259" d="M498.5,1103.2L498.5,1103.2c-27.3,3.1-73.5,9.2-124.7,16.7c-8.3,1.2-16.6,2.9-25,4.2h1359.7h78
				c0,0,0,0,0,0c-8.4-1.3-16.7-2.9-25-4.2c-51.2-7.5-97.4-13.5-124.7-16.7c-19.3-2.2-38.7-3.4-58.1-3.4H556.6
				C537.2,1099.8,517.8,1100.9,498.5,1103.2z"/>
			<path class="st260" d="M499.7,1103.3L499.7,1103.3c-27.4,3.1-73.2,9-124.6,16.5c-8.3,1.2-16.7,2.8-25.1,4.1h1357.6h77.9
				c0,0,0,0,0,0c-8.4-1.3-16.8-2.8-25.1-4.1c-51.4-7.5-97.2-13.4-124.6-16.5c-19.3-2.2-38.6-3.4-58-3.4H557.7
				C538.3,1099.9,518.9,1101.1,499.7,1103.3z"/>
			<path class="st261" d="M500.8,1103.4L500.8,1103.4c-27.5,3.1-72.9,8.9-124.5,16.4c-8.3,1.2-16.7,2.7-25.2,4h1355.4h77.8
				c0,0,0,0,0,0c-8.5-1.3-16.9-2.8-25.2-4c-51.6-7.6-97-13.3-124.5-16.4c-19.2-2.2-38.6-3.3-57.9-3.3H558.7
				C539.4,1100.1,520.1,1101.2,500.8,1103.4z"/>
			<path class="st262" d="M502,1103.5L502,1103.5c-27.6,3.1-72.6,8.7-124.4,16.3c-8.3,1.2-16.7,2.6-25.3,3.9h1353.3h77.7
				c0,0,0,0,0,0c-8.6-1.3-17-2.7-25.3-3.9c-51.8-7.6-96.8-13.2-124.4-16.3c-19.2-2.2-38.5-3.3-57.8-3.3h-1016
				C540.4,1100.2,521.2,1101.3,502,1103.5z"/>
			<path d="M1782,1123.5L1782,1123.5c-62.8-9.7-117.6-16.3-149.7-20c-19.2-2.2-38.4-3.2-57.6-3.2h-1014c-19.2,0-38.5,1.1-57.6,3.2
				c-32.1,3.6-86.9,10.3-149.7,20h0H1782z"/>
		</g>
		<g>
			<linearGradient id="SVGID_3_" gradientUnits="userSpaceOnUse" x1="56.233" y1="1086.3887" x2="2079.2134" y2="1086.3887">
				<stop  offset="0" style="stop-color:#D4D4D4"/>
				<stop  offset="5.215800e-02" style="stop-color:#E5E5E5"/>
				<stop  offset="5.747660e-02" style="stop-color:#E1E1E1"/>
				<stop  offset="7.509277e-02" style="stop-color:#D7D7D7"/>
				<stop  offset="9.747639e-02" style="stop-color:#D4D4D4"/>
				<stop  offset="0.1103" style="stop-color:#DEDEDE"/>
				<stop  offset="0.1343" style="stop-color:#EAEAEA"/>
				<stop  offset="0.1681" style="stop-color:#F0F0F0"/>
				<stop  offset="0.262" style="stop-color:#F2F2F2"/>
				<stop  offset="0.5416" style="stop-color:#F2F2F2"/>
				<stop  offset="0.7726" style="stop-color:#F2F2F2"/>
				<stop  offset="0.8467" style="stop-color:#F0F0F0"/>
				<stop  offset="0.8734" style="stop-color:#EAEAEA"/>
				<stop  offset="0.8924" style="stop-color:#DEDEDE"/>
				<stop  offset="0.9025" style="stop-color:#D4D4D4"/>
				<stop  offset="0.9301" style="stop-color:#D6D6D6"/>
				<stop  offset="0.9459" style="stop-color:#DEDEDE"/>
				<stop  offset="0.9533" style="stop-color:#E5E5E5"/>
				<stop  offset="1" style="stop-color:#D4D4D4"/>
			</linearGradient>
			<path class="st263" d="M2075.8,1097.3H59.6c-1.9,0-3.4-1.5-3.4-3.4v-15c0-1.9,1.5-3.4,3.4-3.4h2016.2c1.9,0,3.4,1.5,3.4,3.4v15
				C2079.2,1095.8,2077.7,1097.3,2075.8,1097.3z"/>
			<path class="st3" d="M61.3,1097.3L61.3,1097.3c88.4,10.1,165.6,17.1,210.9,20.9c27,2.3,54.1,3.4,81.2,3.4H1782
				c27.1,0,54.2-1.1,81.2-3.4c45.3-3.8,122.5-10.8,210.9-20.9h0H61.3z"/>
		</g>
		<linearGradient id="SVGID_4_" gradientUnits="userSpaceOnUse" x1="907.5632" y1="1081.3043" x2="1227.8834" y2="1081.3043">
			<stop  offset="0" style="stop-color:#B7B7B7"/>
			<stop  offset="4.555844e-02" style="stop-color:#C8C8C8"/>
			<stop  offset="0.1154" style="stop-color:#DBDBDB"/>
			<stop  offset="0.1869" style="stop-color:#E7E7E7"/>
			<stop  offset="0.262" style="stop-color:#EBEBEB"/>
			<stop  offset="0.5397" style="stop-color:#EBEBEB"/>
			<stop  offset="0.7716" style="stop-color:#EBEBEB"/>
			<stop  offset="0.8367" style="stop-color:#E7E7E7"/>
			<stop  offset="0.8993" style="stop-color:#DBDBDB"/>
			<stop  offset="0.9609" style="stop-color:#C8C8C8"/>
			<stop  offset="1" style="stop-color:#B7B7B7"/>
		</linearGradient>
		<path class="st264" d="M1212.6,1087.1H922.8c-5.2,0-9.8-2-11.5-4.9l-3.8-6.7h320.3l-3.8,6.7
			C1222.4,1085.1,1217.8,1087.1,1212.6,1087.1z"/>
	</g>
</g>
<image style="overflow:visible;" width="942" height="645" xlink:href="new.png"  transform="matrix(1.5511 0 0 1.4433 337.1589 112.4559)">
</image>
<rect x="981.6" y="943.3" class="st265" width="75.2" height="75.2"/>
</svg>
