<svg id="_ëîé_1" data-name="‘ëîé_1" xmlns="http://www.w3.org/2000/svg" xmlns:xlink="http://www.w3.org/1999/xlink" viewBox="0 0 2334.67 1153.14"><defs><style>.cls-1{fill:url(#åçûìßííûé_ãðàäèåíò_559);}.cls-2{fill:url(#åçûìßííûé_ãðàäèåíò_549);}.cls-3,.cls-32{fill:#e6e6e6;}.cls-4,.cls-78{fill:#b8b8b8;}.cls-124,.cls-5{fill:#8a8a8a;}.cls-6{opacity:0.3;}.cls-7{fill:#fff;opacity:0;}.cls-8{fill:#fefefe;opacity:0;}.cls-9{fill:#fdfdfd;opacity:0.01;}.cls-10{fill:#fcfcfc;opacity:0.01;}.cls-11{fill:#fbfbfb;opacity:0.02;}.cls-12{fill:#fafafa;opacity:0.02;}.cls-13{fill:#f9f9f9;opacity:0.02;}.cls-14{fill:#f8f8f8;opacity:0.03;}.cls-15{fill:#f7f7f7;opacity:0.03;}.cls-16{fill:#f6f6f6;opacity:0.04;}.cls-17{fill:#f5f5f5;opacity:0.04;}.cls-18{fill:#f4f4f4;opacity:0.04;}.cls-19{fill:#f3f3f3;opacity:0.05;}.cls-20{fill:#f2f2f2;opacity:0.05;}.cls-21{fill:#f1f1f1;opacity:0.05;}.cls-22{fill:#f0f0f0;opacity:0.06;}.cls-23{fill:#efefef;opacity:0.06;}.cls-24{fill:#eee;opacity:0.07;}.cls-25{fill:#ededed;opacity:0.07;}.cls-26{fill:#ececec;opacity:0.07;}.cls-27{fill:#ebebeb;opacity:0.08;}.cls-28{fill:#eaeaea;opacity:0.08;}.cls-29{fill:#e9e9e9;opacity:0.09;}.cls-30{fill:#e8e8e8;opacity:0.09;}.cls-31{fill:#e7e7e7;opacity:0.09;}.cls-32{opacity:0.1;}.cls-33{fill:#e5e5e5;opacity:0.1;}.cls-34{fill:#e4e4e4;opacity:0.11;}.cls-35{fill:#e3e3e3;opacity:0.11;}.cls-36{fill:#e2e2e2;opacity:0.11;}.cls-37{fill:#e1e1e1;opacity:0.12;}.cls-38{fill:#e0e0e0;opacity:0.12;}.cls-39{fill:#dfdfdf;opacity:0.13;}.cls-40{fill:#dedede;opacity:0.13;}.cls-41{fill:#ddd;opacity:0.13;}.cls-42{fill:#dcdcdc;opacity:0.14;}.cls-43{fill:#dbdbdb;opacity:0.14;}.cls-44{fill:#dadada;opacity:0.15;}.cls-45{fill:#d9d9d9;opacity:0.15;}.cls-46{fill:#d8d8d8;opacity:0.15;}.cls-47{fill:#d7d7d7;opacity:0.16;}.cls-48{fill:#d6d6d6;opacity:0.16;}.cls-49{fill:#d5d5d5;opacity:0.16;}.cls-50{fill:#d4d4d4;opacity:0.17;}.cls-51{fill:#d3d3d3;opacity:0.17;}.cls-52{fill:#d2d2d2;opacity:0.18;}.cls-53{fill:#d1d1d1;opacity:0.18;}.cls-54{fill:#d0d0d0;opacity:0.18;}.cls-55{fill:#cfcfcf;opacity:0.19;}.cls-56{fill:#cecece;opacity:0.19;}.cls-57{fill:#cdcdcd;opacity:0.2;}.cls-58{fill:#ccc;opacity:0.2;}.cls-59{fill:#cbcbcb;opacity:0.2;}.cls-60{fill:#cacaca;opacity:0.21;}.cls-61{fill:#c9c9c9;opacity:0.21;}.cls-62{fill:#c8c8c8;opacity:0.22;}.cls-63{fill:#c7c7c7;opacity:0.22;}.cls-64{fill:#c6c6c6;opacity:0.22;}.cls-65{fill:#c5c5c5;opacity:0.23;}.cls-66{fill:#c4c4c4;opacity:0.23;}.cls-67{fill:#c3c3c3;opacity:0.24;}.cls-68{fill:#c2c2c2;opacity:0.24;}.cls-69{fill:#c1c1c1;opacity:0.24;}.cls-70{fill:silver;opacity:0.25;}.cls-71{fill:#bfbfbf;opacity:0.25;}.cls-72{fill:#bebebe;opacity:0.25;}.cls-73{fill:#bdbdbd;opacity:0.26;}.cls-74{fill:#bcbcbc;opacity:0.26;}.cls-75{fill:#bbb;opacity:0.27;}.cls-76{fill:#bababa;opacity:0.27;}.cls-77{fill:#b9b9b9;opacity:0.27;}.cls-78{opacity:0.28;}.cls-79{fill:#b7b7b7;opacity:0.28;}.cls-80{fill:#b6b6b6;opacity:0.29;}.cls-81{fill:#b5b5b5;opacity:0.29;}.cls-82{fill:#b4b4b4;opacity:0.29;}.cls-83{fill:#b3b3b3;opacity:0.3;}.cls-84{fill:#b2b2b2;opacity:0.3;}.cls-85{fill:#b1b1b1;opacity:0.31;}.cls-86{fill:#b0b0b0;opacity:0.31;}.cls-87{fill:#afafaf;opacity:0.31;}.cls-88{fill:#aeaeae;opacity:0.32;}.cls-89{fill:#adadad;opacity:0.32;}.cls-90{fill:#acacac;opacity:0.33;}.cls-91{fill:#ababab;opacity:0.33;}.cls-92{fill:#aaa;opacity:0.33;}.cls-93{fill:#a9a9a9;opacity:0.34;}.cls-94{fill:#a8a8a8;opacity:0.34;}.cls-95{fill:#a7a7a7;opacity:0.35;}.cls-96{fill:#a6a6a6;opacity:0.35;}.cls-97{fill:#a5a5a5;opacity:0.35;}.cls-98{fill:#a4a4a4;opacity:0.36;}.cls-99{fill:#a3a3a3;opacity:0.36;}.cls-100{fill:#a2a2a2;opacity:0.36;}.cls-101{fill:#a1a1a1;opacity:0.37;}.cls-102{fill:#a0a0a0;opacity:0.37;}.cls-103{fill:#9f9f9f;opacity:0.38;}.cls-104{fill:#9e9e9e;opacity:0.38;}.cls-105{fill:#9d9d9d;opacity:0.38;}.cls-106{fill:#9c9c9c;opacity:0.39;}.cls-107{fill:#9b9b9b;opacity:0.39;}.cls-108{fill:#9a9a9a;opacity:0.4;}.cls-109{fill:#999;opacity:0.4;}.cls-110{fill:#989898;opacity:0.4;}.cls-111{fill:#979797;opacity:0.41;}.cls-112{fill:#969696;opacity:0.41;}.cls-113{fill:#959595;opacity:0.42;}.cls-114{fill:#949494;opacity:0.42;}.cls-115{fill:#939393;opacity:0.42;}.cls-116{fill:#929292;opacity:0.43;}.cls-117{fill:#919191;opacity:0.43;}.cls-118{fill:#909090;opacity:0.44;}.cls-119{fill:#8f8f8f;opacity:0.44;}.cls-120{fill:#8e8e8e;opacity:0.44;}.cls-121{fill:#8d8d8d;opacity:0.45;}.cls-122{fill:#8c8c8c;opacity:0.45;}.cls-123{fill:#8b8b8b;opacity:0.45;}.cls-124{opacity:0.46;}.cls-125{fill:#898989;opacity:0.46;}.cls-126{fill:#888;opacity:0.47;}.cls-127{fill:#878787;opacity:0.47;}.cls-128{fill:#868686;opacity:0.47;}.cls-129{fill:#858585;opacity:0.48;}.cls-130{fill:#848484;opacity:0.48;}.cls-131{fill:#838383;opacity:0.49;}.cls-132{fill:#828282;opacity:0.49;}.cls-133{fill:#818181;opacity:0.49;}.cls-134{fill:gray;opacity:0.5;}.cls-135{fill:#7f7f7f;opacity:0.5;}.cls-136{fill:#7e7e7e;opacity:0.51;}.cls-137{fill:#7d7d7d;opacity:0.51;}.cls-138{fill:#7c7c7c;opacity:0.51;}.cls-139{fill:#7b7b7b;opacity:0.52;}.cls-140{fill:#7a7a7a;opacity:0.52;}.cls-141{fill:#797979;opacity:0.53;}.cls-142{fill:#787878;opacity:0.53;}.cls-143{fill:#777;opacity:0.53;}.cls-144{fill:#767676;opacity:0.54;}.cls-145{fill:#757575;opacity:0.54;}.cls-146{fill:#747474;opacity:0.55;}.cls-147{fill:#737373;opacity:0.55;}.cls-148{fill:#727272;opacity:0.55;}.cls-149{fill:#717171;opacity:0.56;}.cls-150{fill:#707070;opacity:0.56;}.cls-151{fill:#6f6f6f;opacity:0.56;}.cls-152{fill:#6e6e6e;opacity:0.57;}.cls-153{fill:#6d6d6d;opacity:0.57;}.cls-154{fill:#6c6c6c;opacity:0.58;}.cls-155{fill:#6b6b6b;opacity:0.58;}.cls-156{fill:#6a6a6a;opacity:0.58;}.cls-157{fill:#696969;opacity:0.59;}.cls-158{fill:#686868;opacity:0.59;}.cls-159{fill:#676767;opacity:0.6;}.cls-160{fill:#666;opacity:0.6;}.cls-161{fill:#656565;opacity:0.6;}.cls-162{fill:#646464;opacity:0.61;}.cls-163{fill:#636363;opacity:0.61;}.cls-164{fill:#626262;opacity:0.62;}.cls-165{fill:#616161;opacity:0.62;}.cls-166{fill:#606060;opacity:0.62;}.cls-167{fill:#5f5f5f;opacity:0.63;}.cls-168{fill:#5e5e5e;opacity:0.63;}.cls-169{fill:#5d5d5d;opacity:0.64;}.cls-170{fill:#5c5c5c;opacity:0.64;}.cls-171{fill:#5b5b5b;opacity:0.64;}.cls-172{fill:#5a5a5a;opacity:0.65;}.cls-173{fill:#595959;opacity:0.65;}.cls-174{fill:#585858;opacity:0.65;}.cls-175{fill:#575757;opacity:0.66;}.cls-176{fill:#565656;opacity:0.66;}.cls-177{fill:#555;opacity:0.67;}.cls-178{fill:#545454;opacity:0.67;}.cls-179{fill:#535353;opacity:0.67;}.cls-180{fill:#525252;opacity:0.68;}.cls-181{fill:#515151;opacity:0.68;}.cls-182{fill:#505050;opacity:0.69;}.cls-183{fill:#4f4f4f;opacity:0.69;}.cls-184{fill:#4e4e4e;opacity:0.69;}.cls-185{fill:#4d4d4d;opacity:0.7;}.cls-186{fill:#4c4c4c;opacity:0.7;}.cls-187{fill:#4b4b4b;opacity:0.71;}.cls-188{fill:#4a4a4a;opacity:0.71;}.cls-189{fill:#494949;opacity:0.71;}.cls-190{fill:#484848;opacity:0.72;}.cls-191{fill:#474747;opacity:0.72;}.cls-192{fill:#464646;opacity:0.73;}.cls-193{fill:#454545;opacity:0.73;}.cls-194{fill:#444;opacity:0.73;}.cls-195{fill:#434343;opacity:0.74;}.cls-196{fill:#424242;opacity:0.74;}.cls-197{fill:#414141;opacity:0.75;}.cls-198{fill:#404040;opacity:0.75;}.cls-199{fill:#3f3f3f;opacity:0.75;}.cls-200{fill:#3e3e3e;opacity:0.76;}.cls-201{fill:#3d3d3d;opacity:0.76;}.cls-202{fill:#3c3c3c;opacity:0.76;}.cls-203{fill:#3b3b3b;opacity:0.77;}.cls-204{fill:#3a3a3a;opacity:0.77;}.cls-205{fill:#393939;opacity:0.78;}.cls-206{fill:#383838;opacity:0.78;}.cls-207{fill:#373737;opacity:0.78;}.cls-208{fill:#363636;opacity:0.79;}.cls-209{fill:#353535;opacity:0.79;}.cls-210{fill:#343434;opacity:0.8;}.cls-211{fill:#333;opacity:0.8;}.cls-212{fill:#323232;opacity:0.8;}.cls-213{fill:#313131;opacity:0.81;}.cls-214{fill:#303030;opacity:0.81;}.cls-215{fill:#2f2f2f;opacity:0.82;}.cls-216{fill:#2e2e2e;opacity:0.82;}.cls-217{fill:#2d2d2d;opacity:0.82;}.cls-218{fill:#2c2c2c;opacity:0.83;}.cls-219{fill:#2b2b2b;opacity:0.83;}.cls-220{fill:#2a2a2a;opacity:0.84;}.cls-221{fill:#292929;opacity:0.84;}.cls-222{fill:#282828;opacity:0.84;}.cls-223{fill:#272727;opacity:0.85;}.cls-224{fill:#262626;opacity:0.85;}.cls-225{fill:#252525;opacity:0.85;}.cls-226{fill:#242424;opacity:0.86;}.cls-227{fill:#232323;opacity:0.86;}.cls-228{fill:#222;opacity:0.87;}.cls-229{fill:#212121;opacity:0.87;}.cls-230{fill:#202020;opacity:0.87;}.cls-231{fill:#1f1f1f;opacity:0.88;}.cls-232{fill:#1e1e1e;opacity:0.88;}.cls-233{fill:#1d1d1d;opacity:0.89;}.cls-234{fill:#1c1c1c;opacity:0.89;}.cls-235{fill:#1b1b1b;opacity:0.89;}.cls-236{fill:#1a1a1a;opacity:0.9;}.cls-237{fill:#191919;opacity:0.9;}.cls-238{fill:#181818;opacity:0.91;}.cls-239{fill:#171717;opacity:0.91;}.cls-240{fill:#161616;opacity:0.91;}.cls-241{fill:#151515;opacity:0.92;}.cls-242{fill:#141414;opacity:0.92;}.cls-243{fill:#131313;opacity:0.93;}.cls-244{fill:#121212;opacity:0.93;}.cls-245{fill:#111;opacity:0.93;}.cls-246{fill:#101010;opacity:0.94;}.cls-247{fill:#0f0f0f;opacity:0.94;}.cls-248{fill:#0e0e0e;opacity:0.95;}.cls-249{fill:#0d0d0d;opacity:0.95;}.cls-250{fill:#0c0c0c;opacity:0.95;}.cls-251{fill:#0b0b0b;opacity:0.96;}.cls-252{fill:#0a0a0a;opacity:0.96;}.cls-253{fill:#090909;opacity:0.96;}.cls-254{fill:#080808;opacity:0.97;}.cls-255{fill:#070707;opacity:0.97;}.cls-256{fill:#060606;opacity:0.98;}.cls-257{fill:#050505;opacity:0.98;}.cls-258{fill:#040404;opacity:0.98;}.cls-259{fill:#030303;opacity:0.99;}.cls-260{fill:#020202;opacity:0.99;}.cls-261{fill:#010101;opacity:1;}.cls-262{fill:url(#åçûìßííûé_ãðàäèåíò_563);}.cls-263{fill:url(#åçûìßííûé_ãðàäèåíò_571);}</style><linearGradient id="åçûìßííûé_ãðàäèåíò_559" x1="1167.33" y1="1091.65" x2="1167.33" gradientUnits="userSpaceOnUse"><stop offset="0" stop-color="#bfbfbf"/><stop offset="0" stop-color="#c1c1c1"/><stop offset="0.06" stop-color="#d2d2d2"/><stop offset="0.13" stop-color="#ddd"/><stop offset="0.23" stop-color="#e4e4e4"/><stop offset="0.5" stop-color="#e6e6e6"/><stop offset="0.77" stop-color="#e4e4e4"/><stop offset="0.87" stop-color="#ddd"/><stop offset="0.94" stop-color="#d2d2d2"/><stop offset="1" stop-color="#c1c1c1"/><stop offset="1" stop-color="#bfbfbf"/></linearGradient><linearGradient id="åçûìßííûé_ãðàäèåíò_549" x1="424.39" y1="782.22" x2="2195.28" y2="782.22" gradientTransform="translate(527.61 2092.06) rotate(-90)" gradientUnits="userSpaceOnUse"><stop offset="0" stop-color="#f2f2f2"/><stop offset="0.25" stop-color="#fafafa"/><stop offset="0.57" stop-color="#fff"/><stop offset="0.86" stop-color="#f8f8f8"/><stop offset="1" stop-color="#f2f2f2"/></linearGradient><linearGradient id="åçûìßííûé_ãðàäèåíò_563" y1="1080.34" x2="2334.67" y2="1080.34" gradientUnits="userSpaceOnUse"><stop offset="0" stop-color="#d4d4d4"/><stop offset="0.05" stop-color="#e5e5e5"/><stop offset="0.06" stop-color="#e1e1e1"/><stop offset="0.07" stop-color="#d7d7d7"/><stop offset="0.1" stop-color="#d4d4d4"/><stop offset="0.11" stop-color="#dedede"/><stop offset="0.13" stop-color="#e9e9e9"/><stop offset="0.17" stop-color="#f0f0f0"/><stop offset="0.26" stop-color="#f2f2f2"/><stop offset="0.54" stop-color="#f2f2f2"/><stop offset="0.77" stop-color="#f2f2f2"/><stop offset="0.85" stop-color="#f0f0f0"/><stop offset="0.87" stop-color="#e9e9e9"/><stop offset="0.89" stop-color="#dedede"/><stop offset="0.9" stop-color="#d4d4d4"/><stop offset="0.93" stop-color="#d6d6d6"/><stop offset="0.95" stop-color="#dfdfdf"/><stop offset="0.95" stop-color="#e5e5e5"/><stop offset="1" stop-color="#d4d4d4"/></linearGradient><linearGradient id="åçûìßííûé_ãðàäèåíò_571" x1="1125" y1="1311.46" x2="1494.67" y2="1311.46" gradientUnits="userSpaceOnUse"><stop offset="0" stop-color="#b7b7b7"/><stop offset="0.05" stop-color="#c9c9c9"/><stop offset="0.12" stop-color="#dcdcdc"/><stop offset="0.19" stop-color="#e7e7e7"/><stop offset="0.26" stop-color="#ebebeb"/><stop offset="0.54" stop-color="#ebebeb"/><stop offset="0.77" stop-color="#ebebeb"/><stop offset="0.84" stop-color="#e7e7e7"/><stop offset="0.9" stop-color="#dcdcdc"/><stop offset="0.96" stop-color="#c8c8c8"/><stop offset="1" stop-color="#b7b7b7"/></linearGradient></defs><path class="cls-1" d="M323.43,0h1687.8a44.92,44.92,0,0,1,44.92,44.92V1072.15a19.5,19.5,0,0,1-19.5,19.5H298a19.5,19.5,0,0,1-19.5-19.5V44.92A44.92,44.92,0,0,1,323.43,0Z"/><path class="cls-2" d="M810.07-103.22H1834.74a17.78,17.78,0,0,1,17.78,17.78V1649.89a17.78,17.78,0,0,1-17.78,17.78H810.07a42.92,42.92,0,0,1-42.92-42.92V-60.3a42.92,42.92,0,0,1,42.92-42.92Z" transform="translate(1949.56 -764.01) rotate(90)"/><path class="cls-3" d="M811.21-99.84H1834a15.42,15.42,0,0,1,15.42,15.42v1733.3a15.42,15.42,0,0,1-15.42,15.42H811.21a40.92,40.92,0,0,1-40.92-40.92V-58.92A40.92,40.92,0,0,1,811.21-99.84Z" transform="translate(1949.56 -764.01) rotate(90)"/><ellipse class="cls-4" cx="1167.33" cy="38.97" rx="12.66" ry="11.38"/><ellipse class="cls-5" cx="1167.33" cy="38.97" rx="4.19" ry="3.76"/><g class="cls-6"><path class="cls-7" d="M2342.73,1389.53h125.81c10.47,0,11.89-24.39,1.6-27.51l-171.57-52.13a403.19,403.19,0,0,0-100.94-13H422a403.24,403.24,0,0,0-100.94,13h0L149.53,1362c-10.29,3.12-8.87,27.51,1.6,27.51Z" transform="translate(-142.5 -236.4)"/><path class="cls-8" d="M322.42,1310h0c-.12,0-171.23,52-171.46,52-10.51,2.27-8.91,27.41,1.48,27.42H2467.23c10.39,0,12-25.15,1.49-27.42-.24,0-171.35-52-171.47-52-34.08-6.07-67.16-12.91-100.81-12.91H423.23A403.56,403.56,0,0,0,322.42,1310Z" transform="translate(-142.5 -236.4)"/><path class="cls-9" d="M323.75,1310.08h0c-.26,0-170.9,51.75-171.37,51.86-10.5,2.26-8.94,27.31,1.37,27.33H2465.92c10.32,0,11.87-25.07,1.37-27.33-.47-.11-171.11-51.81-171.36-51.86-34-6.06-67.07-12.87-100.68-12.87H424.42A403.28,403.28,0,0,0,323.75,1310.08Z" transform="translate(-142.5 -236.4)"/><path class="cls-10" d="M325.07,1310.18h0c-.38,0-170.56,51.56-171.26,51.71-10.49,2.27-9,27.23,1.25,27.24H2464.61c10.24,0,11.75-25,1.25-27.24-.7-.15-170.88-51.65-171.26-51.71-34-6-67-12.84-100.53-12.84H425.6A403.54,403.54,0,0,0,325.07,1310.18Z" transform="translate(-142.5 -236.4)"/><path class="cls-11" d="M326.39,1310.27h0c-.51.06-170.22,51.38-171.16,51.58-10.48,2.26-9,27.13,1.14,27.15H2463.3c10.16,0,11.62-24.89,1.14-27.15-.94-.2-170.66-51.49-171.16-51.58-33.93-6-66.88-12.8-100.4-12.8H426.79A403.93,403.93,0,0,0,326.39,1310.27Z" transform="translate(-142.5 -236.4)"/><path class="cls-12" d="M327.71,1310.37h0c-.63.07-169.88,51.19-171,51.44-10.48,2.26-9.06,27,1,27H2462c10.08,0,11.5-24.79,1-27-1.17-.25-170.42-51.33-171.05-51.44-33.89-6-66.79-12.76-100.27-12.76H428A403.79,403.79,0,0,0,327.71,1310.37Z" transform="translate(-142.5 -236.4)"/><path class="cls-13" d="M329,1310.47h0c-.75.08-169.53,51-170.94,51.3-10.48,2.25-9.1,26.93.91,27H2460.68c10,0,11.38-24.71.9-27-1.4-.3-170.19-51.17-170.94-51.3-33.84-6-66.71-12.73-100.13-12.73H429.17A403.67,403.67,0,0,0,329,1310.47Z" transform="translate(-142.5 -236.4)"/><path class="cls-14" d="M330.36,1310.56h0c-.89.09-169.2,50.82-170.85,51.17-10.46,2.24-9.13,26.83.8,26.86H2459.37c9.92,0,11.26-24.62.79-26.86-1.64-.35-170-51-170.84-51.17-33.8-6-66.62-12.68-100-12.68h-1759A403.77,403.77,0,0,0,330.36,1310.56Z" transform="translate(-142.5 -236.4)"/><path class="cls-15" d="M331.68,1310.66h0c-1,.1-168.86,50.63-170.74,51-10.46,2.24-9.17,26.73.68,26.77H2458.05c9.85,0,11.14-24.53.68-26.77-1.88-.4-169.73-50.85-170.74-51-33.74-6-66.52-12.65-99.86-12.65H431.54A403.65,403.65,0,0,0,331.68,1310.66Z" transform="translate(-142.5 -236.4)"/><path class="cls-16" d="M333,1310.76h0c-1.14.11-168.52,50.44-170.63,50.89-10.46,2.23-9.21,26.63.56,26.67H2456.74c9.77,0,11-24.44.57-26.67-2.12-.45-169.51-50.69-170.64-50.89-33.7-6-66.43-12.61-99.72-12.61H432.73A404.05,404.05,0,0,0,333,1310.76Z" transform="translate(-142.5 -236.4)"/><path class="cls-17" d="M334.32,1310.86h0c-1.26.12-168.18,50.25-170.53,50.75-10.45,2.23-9.24,26.53.45,26.58H2455.43c9.69,0,10.9-24.35.45-26.58-2.35-.51-169.28-50.53-170.53-50.75-33.65-5.95-66.35-12.58-99.59-12.58H433.91A403.86,403.86,0,0,0,334.32,1310.86Z" transform="translate(-142.5 -236.4)"/><path class="cls-18" d="M335.64,1311h0c-1.39.14-167.84,50.06-170.42,50.62-10.45,2.22-9.28,26.43.33,26.49H2454.12c9.61,0,10.78-24.27.33-26.49-2.58-.56-169-50.38-170.42-50.62-33.6-5.92-66.26-12.53-99.46-12.53H435.1A404.19,404.19,0,0,0,335.64,1311Z" transform="translate(-142.5 -236.4)"/><path class="cls-19" d="M337,1311.05h0c-1.52.15-167.51,49.87-170.33,50.47-10.43,2.23-9.31,26.34.22,26.4h2286c9.53,0,10.66-24.17.22-26.4-2.82-.6-168.82-50.21-170.32-50.47-33.56-5.91-66.17-12.5-99.33-12.5H436.29A403.93,403.93,0,0,0,337,1311.05Z" transform="translate(-142.5 -236.4)"/><path class="cls-20" d="M338.29,1311.15h0c-1.65.16-167.17,49.68-170.22,50.33-10.43,2.22-9.35,26.24.1,26.31H2451.5c9.46,0,10.53-24.09.1-26.31-3-.65-168.59-50-170.22-50.33-33.5-5.9-66.07-12.47-99.18-12.47H437.47A403.8,403.8,0,0,0,338.29,1311.15Z" transform="translate(-142.5 -236.4)"/><path class="cls-21" d="M339.61,1311.24h0c-1.77.18-166.83,49.5-170.11,50.2-10.43,2.22-9.39,26.14,0,26.21H2450.19c9.38,0,10.41-24,0-26.21-3.28-.7-168.36-49.89-170.11-50.2-33.46-5.88-66-12.42-99-12.42H438.66A404.62,404.62,0,0,0,339.61,1311.24Z" transform="translate(-142.5 -236.4)"/><path class="cls-22" d="M340.93,1311.34h0c-1.89.19-166.48,49.31-170,50.06-10.42,2.21-9.43,26-.12,26.12H2448.88c9.3,0,10.29-23.91-.13-26.12-3.52-.75-168.13-49.73-170-50.06-33.41-5.87-65.9-12.39-98.92-12.39h-1740A404.51,404.51,0,0,0,340.93,1311.34Z" transform="translate(-142.5 -236.4)"/><path class="cls-23" d="M342.25,1311.44h0c-2,.2-166.14,49.12-169.9,49.92-10.42,2.21-9.47,25.94-.24,26H2447.57c9.22,0,10.17-23.81-.25-26-3.75-.8-167.9-49.57-169.9-49.92-33.36-5.85-65.81-12.35-98.78-12.35H441A404.39,404.39,0,0,0,342.25,1311.44Z" transform="translate(-142.5 -236.4)"/><path class="cls-24" d="M343.58,1311.53h0c-2.15.22-165.81,48.94-169.8,49.79-10.41,2.2-9.51,25.84-.36,25.93H2446.25c9.15,0,10.05-23.73-.35-25.93-4-.85-167.68-49.41-169.8-49.79-33.32-5.83-65.72-12.31-98.65-12.31H442.22A404.53,404.53,0,0,0,343.58,1311.53Z" transform="translate(-142.5 -236.4)"/><path class="cls-25" d="M344.9,1311.63h0c-2.28.23-165.47,48.75-169.7,49.65-10.4,2.19-9.54,25.74-.47,25.84H2444.94c9.07,0,9.93-23.65-.47-25.84-4.23-.9-167.44-49.26-169.7-49.65-33.26-5.82-65.62-12.27-98.51-12.27H443.41A404.41,404.41,0,0,0,344.9,1311.63Z" transform="translate(-142.5 -236.4)"/><path class="cls-26" d="M346.22,1311.73h0c-2.4.24-165.13,48.56-169.59,49.51-10.4,2.19-9.58,25.64-.59,25.74H2443.63c9,0,9.81-23.55-.59-25.74-4.46-1-167.21-49.1-169.59-49.51-33.22-5.81-65.53-12.24-98.37-12.24H444.6A404.86,404.86,0,0,0,346.22,1311.73Z" transform="translate(-142.5 -236.4)"/><path class="cls-27" d="M347.54,1311.82h0c-2.53.26-164.79,48.39-169.49,49.37-10.39,2.19-9.61,25.55-.7,25.66h2265c8.91,0,9.69-23.47-.7-25.66-4.7-1-167-48.93-169.49-49.37-33.17-5.79-65.45-12.2-98.24-12.2H445.78A405.21,405.21,0,0,0,347.54,1311.82Z" transform="translate(-142.5 -236.4)"/><path class="cls-28" d="M348.86,1311.92h0c-2.65.27-164.45,48.2-169.38,49.23-10.38,2.19-9.65,25.45-.82,25.56H2441c8.83,0,9.57-23.37-.82-25.56-4.93-1-166.75-48.77-169.38-49.23-33.13-5.77-65.36-12.16-98.11-12.16H447A405,405,0,0,0,348.86,1311.92Z" transform="translate(-142.5 -236.4)"/><path class="cls-29" d="M350.19,1312h0c-2.79.28-164.12,48-169.28,49.09-10.38,2.18-9.69,25.36-.94,25.47H2439.7c8.75-.06,9.44-23.29-.93-25.47-5.17-1.08-166.53-48.61-169.28-49.09-33.08-5.76-65.27-12.13-98-12.13H448.16A404.79,404.79,0,0,0,350.19,1312Z" transform="translate(-142.5 -236.4)"/><path class="cls-30" d="M351.51,1312.11h0c-2.91.3-163.77,47.83-169.18,49-10.37,2.18-9.72,25.26-1.05,25.37H2438.39c8.67-.06,9.32-23.19-1-25.37-5.4-1.13-166.3-48.46-169.18-49-33-5.74-65.17-12.08-97.83-12.08h-1721A405.16,405.16,0,0,0,351.51,1312.11Z" transform="translate(-142.5 -236.4)"/><path class="cls-31" d="M352.83,1312.21h0c-3,.31-163.43,47.64-169.07,48.82-10.37,2.17-9.76,25.16-1.16,25.28H2437.08c8.6-.06,9.2-23.11-1.17-25.28-5.64-1.18-166.06-48.3-169.07-48.82-33-5.73-65.08-12-97.7-12H450.53A405,405,0,0,0,352.83,1312.21Z" transform="translate(-142.5 -236.4)"/><path class="cls-32" d="M354.15,1312.31h0c-3.16.32-163.09,47.45-169,48.68-10.37,2.17-9.8,25.06-1.28,25.18H2435.77c8.52-.06,9.08-23-1.28-25.18-5.88-1.23-165.84-48.14-169-48.68-32.93-5.72-65-12-97.57-12H451.72A405.43,405.43,0,0,0,354.15,1312.31Z" transform="translate(-142.5 -236.4)"/><path class="cls-33" d="M355.48,1312.4h0c-3.29.34-162.76,47.27-168.87,48.55-10.35,2.16-9.83,25-1.39,25.09H2434.45c8.45-.07,9-22.93-1.39-25.09-6.11-1.28-165.6-48-168.86-48.55-32.89-5.69-64.91-12-97.43-12H452.91A405.69,405.69,0,0,0,355.48,1312.4Z" transform="translate(-142.5 -236.4)"/><path class="cls-34" d="M356.8,1312.5h0c-3.42.35-162.42,47.08-168.76,48.41-10.35,2.16-9.88,24.86-1.51,25H2433.14c8.37-.07,8.84-22.84-1.51-25-6.34-1.33-165.37-47.82-168.75-48.41-32.84-5.68-64.82-11.93-97.3-11.93H454.09A405.56,405.56,0,0,0,356.8,1312.5Z" transform="translate(-142.5 -236.4)"/><path class="cls-35" d="M358.12,1312.6h0c-3.54.36-162.08,46.89-168.66,48.27-10.34,2.15-9.91,24.76-1.62,24.9h2244c8.29-.07,8.72-22.75-1.62-24.9-6.58-1.38-165.15-47.67-168.66-48.27-32.79-5.67-64.72-11.9-97.16-11.9H455.28A405.47,405.47,0,0,0,358.12,1312.6Z" transform="translate(-142.5 -236.4)"/><path class="cls-36" d="M359.44,1312.69h0c-3.67.38-161.73,46.72-168.55,48.13-10.34,2.15-9.95,24.67-1.74,24.82H2430.52c8.21-.08,8.6-22.67-1.74-24.82-6.81-1.41-164.91-47.5-168.55-48.13-32.74-5.65-64.64-11.86-97-11.86H456.47A405.87,405.87,0,0,0,359.44,1312.69Z" transform="translate(-142.5 -236.4)"/><path class="cls-37" d="M360.76,1312.79h0c-3.79.39-161.39,46.53-168.44,48-10.33,2.15-10,24.57-1.86,24.72H2429.21c8.13-.07,8.48-22.57-1.85-24.72-7.06-1.46-164.69-47.34-168.45-48-32.7-5.64-64.55-11.82-96.89-11.82H457.65A406.26,406.26,0,0,0,360.76,1312.79Z" transform="translate(-142.5 -236.4)"/><path class="cls-38" d="M362.09,1312.89h0c-3.93.4-161.06,46.34-168.35,47.85-10.32,2.14-10,24.47-2,24.63H2427.9c8-.08,8.35-22.49-2-24.63-7.29-1.51-164.46-47.18-168.34-47.85-32.65-5.63-64.46-11.79-96.76-11.79h-1702A406,406,0,0,0,362.09,1312.89Z" transform="translate(-142.5 -236.4)"/><path class="cls-39" d="M363.41,1313h0c-4.05.42-160.72,46.16-168.24,47.72-10.32,2.14-10.06,24.37-2.09,24.53H2426.59c8-.08,8.23-22.39-2.09-24.53-7.52-1.56-164.22-47-168.23-47.72-32.6-5.6-64.37-11.74-96.63-11.74H460A406.37,406.37,0,0,0,363.41,1313Z" transform="translate(-142.5 -236.4)"/><path class="cls-40" d="M364.73,1313.08h0c-4.18.43-160.38,46-168.13,47.58-10.32,2.13-10.1,24.27-2.2,24.44H2425.28c7.89-.08,8.11-22.31-2.2-24.44-7.76-1.61-164-46.87-168.14-47.58-32.55-5.59-64.27-11.71-96.48-11.71H461.22A406.35,406.35,0,0,0,364.73,1313.08Z" transform="translate(-142.5 -236.4)"/><path class="cls-41" d="M366.05,1313.18h0c-4.3.43-160,45.79-168,47.44-10.31,2.13-10.13,24.17-2.31,24.35H2424c7.82-.09,8-22.22-2.32-24.35-8-1.65-163.77-46.71-168-47.44-32.5-5.58-64.19-11.67-96.35-11.67H462.4A406.23,406.23,0,0,0,366.05,1313.18Z" transform="translate(-142.5 -236.4)"/><path class="cls-42" d="M367.37,1313.27h0c-4.43.45-159.69,45.61-167.92,47.31-10.3,2.12-10.17,24.07-2.43,24.25H2422.65c7.75-.09,7.88-22.13-2.43-24.25-8.22-1.7-163.53-46.55-167.92-47.31-32.46-5.56-64.1-11.63-96.22-11.63H463.59A407.11,407.11,0,0,0,367.37,1313.27Z" transform="translate(-142.5 -236.4)"/><path class="cls-43" d="M368.7,1313.37h0c-4.56.46-159.36,45.42-167.83,47.17-10.29,2.12-10.2,24-2.54,24.16h2223c7.67-.1,7.75-22-2.54-24.16-8.47-1.75-163.31-46.4-167.82-47.17-32.41-5.55-64-11.6-96.08-11.6H464.78A406.89,406.89,0,0,0,368.7,1313.37Z" transform="translate(-142.5 -236.4)"/><path class="cls-44" d="M370,1313.47h0c-4.68.47-159,45.24-167.72,47-10.29,2.12-10.24,23.88-2.66,24.07H2420c7.59-.09,7.63-22-2.66-24.07-8.7-1.78-163.08-46.23-167.71-47-32.37-5.53-63.92-11.56-95.95-11.56H466A406.78,406.78,0,0,0,370,1313.47Z" transform="translate(-142.5 -236.4)"/><path class="cls-45" d="M371.34,1313.57h0c-4.81.48-158.68,45-167.61,46.88-10.29,2.12-10.29,23.78-2.78,24H2418.72c7.51-.1,7.51-21.86-2.77-24-8.94-1.83-162.85-46.07-167.62-46.88-32.31-5.52-63.82-11.53-95.81-11.53H467.15A406.71,406.71,0,0,0,371.34,1313.57Z" transform="translate(-142.5 -236.4)"/><path class="cls-46" d="M372.66,1313.66h0c-4.93.5-158.34,44.87-167.51,46.75-10.28,2.11-10.32,23.68-2.89,23.88H2417.41c7.43-.1,7.39-21.77-2.89-23.88-9.17-1.88-162.62-45.91-167.51-46.75-32.26-5.5-63.74-11.48-95.68-11.48h-1683A407.13,407.13,0,0,0,372.66,1313.66Z" transform="translate(-142.5 -236.4)"/><path class="cls-47" d="M374,1313.76h0c-5.06.51-158,44.69-167.4,46.61-10.27,2.1-10.36,23.58-3,23.79H2416.1c7.35-.1,7.27-21.69-3-23.79-9.4-1.92-162.39-45.76-167.4-46.61-32.22-5.49-63.65-11.45-95.54-11.45H469.52A407,407,0,0,0,374,1313.76Z" transform="translate(-142.5 -236.4)"/><path class="cls-48" d="M375.31,1313.86h0c-5.19.52-157.66,44.5-167.31,46.47-10.26,2.1-10.39,23.49-3.12,23.69H2414.79c7.27-.1,7.14-21.59-3.12-23.69-9.65-2-162.16-45.6-167.3-46.47-32.17-5.48-63.56-11.41-95.41-11.41H470.71A407.34,407.34,0,0,0,375.31,1313.86Z" transform="translate(-142.5 -236.4)"/><path class="cls-49" d="M376.63,1314h0c-5.32.54-157.32,44.32-167.2,46.34-10.26,2.09-10.43,23.39-3.24,23.6H2413.48c7.19-.11,7-21.51-3.24-23.6-9.88-2-161.93-45.44-167.19-46.34-32.13-5.45-63.47-11.37-95.28-11.37H471.9A407.73,407.73,0,0,0,376.63,1314Z" transform="translate(-142.5 -236.4)"/><path class="cls-50" d="M378,1314.05h0c-5.44.55-157,44.14-167.09,46.2-10.26,2.09-10.47,23.29-3.35,23.51H2412.17c7.11-.11,6.9-21.42-3.36-23.51-10.11-2.06-161.7-45.29-167.09-46.2-32.07-5.44-63.37-11.33-95.13-11.33H473.09A407.71,407.71,0,0,0,378,1314.05Z" transform="translate(-142.5 -236.4)"/><path class="cls-51" d="M379.27,1314.15h0c-5.57.56-156.64,43.95-167,46.06s-10.5,23.19-3.46,23.41h2202c7.05-.11,6.79-21.33-3.46-23.41s-161.47-45.13-167-46.06c-32-5.43-63.29-11.3-95-11.3H474.27A407.63,407.63,0,0,0,379.27,1314.15Z" transform="translate(-142.5 -236.4)"/><path class="cls-52" d="M380.59,1314.24h0c-5.69.58-156.29,43.77-166.88,45.93-10.24,2.08-10.54,23.09-3.58,23.32H2409.54c7-.12,6.66-21.24-3.58-23.32-10.58-2.16-161.24-45-166.88-45.93-32-5.41-63.2-11.26-94.87-11.26H475.46A408,408,0,0,0,380.59,1314.24Z" transform="translate(-142.5 -236.4)"/><path class="cls-53" d="M381.92,1314.34h0c-5.82.59-156,43.59-166.78,45.78-10.24,2.08-10.58,23-3.7,23.23H2408.23c6.89-.11,6.54-21.15-3.69-23.23-10.83-2.19-161-44.81-166.78-45.78-31.94-5.4-63.11-11.22-94.74-11.22H476.65A408.35,408.35,0,0,0,381.92,1314.34Z" transform="translate(-142.5 -236.4)"/><path class="cls-54" d="M383.24,1314.44h0c-5.95.6-155.62,43.4-166.68,45.64-10.23,2.08-10.61,22.9-3.81,23.14H2406.92c6.81-.12,6.42-21.06-3.81-23.14-11.06-2.24-160.78-44.65-166.68-45.64-31.88-5.38-63-11.19-94.59-11.19h-1664A408.33,408.33,0,0,0,383.24,1314.44Z" transform="translate(-142.5 -236.4)"/><path class="cls-55" d="M384.56,1314.53h0c-6.07.62-155.28,43.23-166.57,45.51-10.23,2.07-10.65,22.8-3.93,23H2405.61c6.73-.12,6.3-21-3.93-23-11.29-2.28-160.55-44.49-166.57-45.51-31.83-5.36-62.93-11.14-94.46-11.14H479A408.79,408.79,0,0,0,384.56,1314.53Z" transform="translate(-142.5 -236.4)"/><path class="cls-56" d="M385.88,1314.63h0c-6.2.63-154.94,43-166.47,45.37-10.21,2.07-10.69,22.7-4,23H2404.3c6.65-.13,6.18-20.88-4-23-11.53-2.33-160.32-44.34-166.47-45.37-31.79-5.35-62.84-11.11-94.33-11.11H480.21A408.68,408.68,0,0,0,385.88,1314.63Z" transform="translate(-142.5 -236.4)"/><path class="cls-57" d="M387.2,1314.73h0c-6.32.64-154.59,42.86-166.36,45.23-10.21,2.06-10.73,22.6-4.16,22.86H2403c6.57-.13,6.05-20.8-4.16-22.86-11.76-2.37-160.09-44.18-166.36-45.23-31.74-5.34-62.75-11.07-94.19-11.07H481.4A408.61,408.61,0,0,0,387.2,1314.73Z" transform="translate(-142.5 -236.4)"/><path class="cls-58" d="M388.53,1314.82h0c-6.46.66-154.26,42.68-166.26,45.1-10.21,2-10.77,22.5-4.28,22.76H2401.68c6.49-.13,5.93-20.71-4.28-22.76-12-2.42-159.86-44-166.25-45.1-31.7-5.32-62.66-11-94.06-11H482.58A409.48,409.48,0,0,0,388.53,1314.82Z" transform="translate(-142.5 -236.4)"/><path class="cls-59" d="M389.85,1314.92h0c-6.58.67-153.92,42.5-166.16,45-10.2,2-10.8,22.4-4.38,22.67H2400.37c6.41-.14,5.81-20.62-4.39-22.67-12.24-2.46-159.63-43.87-166.16-45-31.64-5.3-62.56-11-93.92-11H483.77A409.43,409.43,0,0,0,389.85,1314.92Z" transform="translate(-142.5 -236.4)"/><path class="cls-60" d="M391.17,1315h0c-6.71.68-153.58,42.31-166,44.82-10.2,2-10.84,22.3-4.5,22.57H2399.06c6.34-.13,5.69-20.53-4.51-22.57-12.47-2.51-159.4-43.71-166.05-44.82-31.6-5.29-62.48-11-93.78-11H485A409.38,409.38,0,0,0,391.17,1315Z" transform="translate(-142.5 -236.4)"/><path class="cls-61" d="M392.49,1315.11h0c-6.83.7-153.24,42.14-165.94,44.68-10.19,2-10.88,22.21-4.62,22.49H2397.74c6.27-.14,5.58-20.44-4.61-22.49-12.71-2.54-159.18-43.54-166-44.68-31.55-5.27-62.39-10.92-93.65-10.92H486.14A409.85,409.85,0,0,0,392.49,1315.11Z" transform="translate(-142.5 -236.4)"/><path class="cls-62" d="M393.81,1315.21h0c-7,.71-152.89,42-165.84,44.54-10.18,2-10.91,22.11-4.73,22.39H2396.43c6.19-.14,5.45-20.35-4.73-22.39-12.95-2.59-158.94-43.39-165.84-44.54-31.5-5.26-62.3-10.88-93.52-10.88h-1645A409.8,409.8,0,0,0,393.81,1315.21Z" transform="translate(-142.5 -236.4)"/><path class="cls-63" d="M395.14,1315.31h0c-7.09.72-152.56,41.77-165.74,44.4-10.18,2-11,22-4.85,22.3H2395.12c6.11-.14,5.33-20.26-4.85-22.3-13.18-2.63-158.71-43.23-165.73-44.4-31.46-5.25-62.21-10.85-93.39-10.85H488.52A409.55,409.55,0,0,0,395.14,1315.31Z" transform="translate(-142.5 -236.4)"/><path class="cls-64" d="M396.46,1315.4h0c-7.21.74-152.22,41.59-165.64,44.27-10.17,2-11,21.91-5,22.21h2168c6-.14,5.21-20.17-5-22.2-13.42-2.68-158.48-43.08-165.64-44.27-31.4-5.22-62.11-10.8-93.24-10.8H489.7A410.65,410.65,0,0,0,396.46,1315.4Z" transform="translate(-142.5 -236.4)"/><path class="cls-65" d="M397.78,1315.5h0c-7.34.75-151.88,41.41-165.53,44.13-10.17,2-11,21.81-5.08,22.11H2392.5c5.95-.15,5.09-20.08-5.08-22.11-13.65-2.72-158.25-42.92-165.53-44.13-31.36-5.21-62-10.77-93.11-10.77H490.89A410.62,410.62,0,0,0,397.78,1315.5Z" transform="translate(-142.5 -236.4)"/><path class="cls-66" d="M399.1,1315.6h0c-7.46.76-151.53,41.22-165.42,44-10.16,2-11.06,21.71-5.2,22H2391.19c5.87-.15,5-20-5.2-22-13.89-2.77-158-42.76-165.42-44-31.31-5.2-61.94-10.73-93-10.73H492.08A410.51,410.51,0,0,0,399.1,1315.6Z" transform="translate(-142.5 -236.4)"/><path class="cls-67" d="M400.42,1315.69h0c-7.59.78-151.19,41-165.32,43.86-10.15,2-11.1,21.62-5.31,21.92H2389.88c5.79-.15,4.84-19.9-5.31-21.92-14.13-2.81-157.79-42.61-165.32-43.86-31.27-5.18-61.85-10.69-92.84-10.69H493.27A411,411,0,0,0,400.42,1315.69Z" transform="translate(-142.5 -236.4)"/><path class="cls-68" d="M401.75,1315.79h0c-7.72.79-150.86,40.87-165.22,43.72-10.15,2-11.14,21.52-5.42,21.83H2388.57c5.71-.16,4.72-19.82-5.43-21.83-14.36-2.85-157.56-42.45-165.21-43.72-31.22-5.17-61.76-10.66-92.71-10.66H494.45A410.84,410.84,0,0,0,401.75,1315.79Z" transform="translate(-142.5 -236.4)"/><path class="cls-69" d="M403.07,1315.89h0c-7.85.79-150.52,40.68-165.11,43.58-10.15,2-11.18,21.42-5.54,21.73H2387.26c5.64-.16,4.6-19.73-5.54-21.73-14.6-2.9-157.34-42.3-165.12-43.58-31.17-5.15-61.66-10.62-92.57-10.62H495.64A411.37,411.37,0,0,0,403.07,1315.89Z" transform="translate(-142.5 -236.4)"/><path class="cls-70" d="M404.39,1316h0c-8,.81-150.17,40.51-165,43.44-10.14,2-11.21,21.33-5.65,21.65H2385.94c5.57-.16,4.49-19.64-5.65-21.65-14.84-2.93-157.1-42.13-165-43.44-31.12-5.13-61.58-10.58-92.44-10.58h-1626A411.91,411.91,0,0,0,404.39,1316Z" transform="translate(-142.5 -236.4)"/><path class="cls-71" d="M405.71,1316.08h0c-8.1.82-149.83,40.33-164.9,43.3-10.13,2-11.25,21.23-5.77,21.55H2384.63c5.49-.16,4.36-19.55-5.77-21.55-15.07-3-156.87-42-164.9-43.3-31.07-5.12-61.49-10.54-92.3-10.54H498A411.86,411.86,0,0,0,405.71,1316.08Z" transform="translate(-142.5 -236.4)"/><path class="cls-72" d="M407,1316.18h0c-8.22.83-149.49,40.14-164.8,43.16-10.12,2-11.28,21.13-5.88,21.46h2147c5.41-.17,4.24-19.46-5.88-21.46-15.31-3-156.65-41.82-164.8-43.16-31-5.11-61.4-10.51-92.17-10.51H499.2A411.84,411.84,0,0,0,407,1316.18Z" transform="translate(-142.5 -236.4)"/><path class="cls-73" d="M408.36,1316.27h0c-8.35.85-149.16,40-164.7,43-10.12,2-11.32,21-6,21.37H2382c5.33-.17,4.12-19.38-6-21.37-15.54-3.06-156.41-41.66-164.69-43-31-5.1-61.31-10.47-92-10.47H500.39A412.23,412.23,0,0,0,408.36,1316.27Z" transform="translate(-142.5 -236.4)"/><path class="cls-74" d="M409.68,1316.37h0c-8.48.86-148.81,39.79-164.59,42.89-10.12,2-11.36,20.93-6.12,21.27H2380.7c5.25-.17,4-19.28-6.12-21.27-15.78-3.1-156.18-41.51-164.59-42.89-30.93-5.08-61.22-10.43-91.89-10.43H501.58A412.81,412.81,0,0,0,409.68,1316.37Z" transform="translate(-142.5 -236.4)"/><path class="cls-75" d="M411,1316.47h0c-8.6.87-148.47,39.6-164.49,42.75-10.11,2-11.39,20.83-6.23,21.18H2379.39c5.17-.18,3.88-19.2-6.23-21.18-16-3.15-155.95-41.35-164.49-42.75-30.88-5.06-61.13-10.4-91.76-10.4H502.76A412.78,412.78,0,0,0,411,1316.47Z" transform="translate(-142.5 -236.4)"/><path class="cls-76" d="M412.32,1316.57h0c-8.73.88-148.13,39.42-164.38,42.61-10.1,2-11.43,20.73-6.35,21.08H2378.08c5.09-.17,3.75-19.1-6.35-21.08-16.25-3.19-155.72-41.2-164.38-42.61-30.84-5-61-10.36-91.63-10.36H504A412.69,412.69,0,0,0,412.32,1316.57Z" transform="translate(-142.5 -236.4)"/><path class="cls-77" d="M413.64,1316.66h0c-8.85.9-147.78,39.25-164.27,42.48-10.1,2-11.47,20.63-6.46,21H2376.77c5-.18,3.63-19-6.46-21-16.49-3.23-155.5-41-164.28-42.48-30.79-5-61-10.32-91.49-10.32H505.14A413.26,413.26,0,0,0,413.64,1316.66Z" transform="translate(-142.5 -236.4)"/><path class="cls-78" d="M415,1316.76h0c-9,.91-147.45,39.07-164.18,42.34-10.09,2-11.51,20.53-6.57,20.89H2375.46c4.94-.18,3.51-18.92-6.58-20.9-16.73-3.26-155.26-40.88-164.17-42.33-30.75-5-60.86-10.28-91.36-10.28h-1607A413.14,413.14,0,0,0,415,1316.76Z" transform="translate(-142.5 -236.4)"/><path class="cls-79" d="M416.29,1316.86h0c-9.11.92-147.11,38.89-164.07,42.19-10.09,2-11.55,20.44-6.69,20.81H2374.14c4.87-.18,3.4-18.84-6.69-20.81-17-3.3-155-40.72-164.07-42.19-30.69-5-60.77-10.25-91.22-10.25H507.51A413.14,413.14,0,0,0,416.29,1316.86Z" transform="translate(-142.5 -236.4)"/><path class="cls-80" d="M417.61,1317h0c-9.24.94-146.77,38.71-164,42.06-10.07,2-11.58,20.34-6.8,20.72h2126c4.79-.19,3.28-18.75-6.8-20.72-17.2-3.35-154.8-40.57-164-42.06-30.65-5-60.68-10.2-91.09-10.2H508.7A414.25,414.25,0,0,0,417.61,1317Z" transform="translate(-142.5 -236.4)"/><path class="cls-81" d="M418.93,1317.05h0c-9.36,1-146.42,38.53-163.86,41.92-10.07,2-11.62,20.24-6.92,20.62H2371.52c4.71-.19,3.15-18.66-6.92-20.62-17.44-3.39-154.57-40.41-163.86-41.92-30.6-5-60.59-10.17-90.95-10.17H509.88A414.23,414.23,0,0,0,418.93,1317.05Z" transform="translate(-142.5 -236.4)"/><path class="cls-82" d="M420.25,1317.15h0c-9.49,1-146.08,38.35-163.75,41.78-10.07,2-11.66,20.14-7,20.53H2370.21c4.63-.2,3-18.58-7-20.53-17.67-3.43-154.34-40.26-163.75-41.78-30.55-5-60.5-10.14-90.82-10.14H511.07A414.24,414.24,0,0,0,420.25,1317.15Z" transform="translate(-142.5 -236.4)"/><path class="cls-83" d="M421.58,1317.24h0c-9.62,1-145.75,38.18-163.66,41.65-10.06,1.95-11.69,20-7.15,20.43H2368.9c4.55-.19,2.91-18.48-7.15-20.43-17.91-3.47-154.11-40.1-163.65-41.65-30.51-4.94-60.41-10.09-90.69-10.09H512.26A414.67,414.67,0,0,0,421.58,1317.24Z" transform="translate(-142.5 -236.4)"/><path class="cls-84" d="M422.9,1317.34h0c-9.74,1-145.4,38-163.55,41.51-10.06,1.94-11.73,19.94-7.27,20.34H2367.59c4.48-.2,2.79-18.4-7.27-20.34-18.14-3.51-153.88-39.95-163.55-41.51-30.45-4.93-60.32-10.06-90.54-10.06H513.45A414.69,414.69,0,0,0,422.9,1317.34Z" transform="translate(-142.5 -236.4)"/><path class="cls-85" d="M424.22,1317.44h0c-9.87,1-145.06,37.82-163.44,41.37-10,1.94-11.77,19.84-7.39,20.24H2366.28c4.4-.2,2.67-18.3-7.38-20.24-18.39-3.55-153.66-39.79-163.45-41.37-30.41-4.91-60.23-10-90.41-10H514.63A415.28,415.28,0,0,0,424.22,1317.44Z" transform="translate(-142.5 -236.4)"/><path class="cls-86" d="M425.54,1317.53h0c-10,1-144.72,37.64-163.34,41.24-10,1.93-11.8,19.75-7.49,20.15H2365c4.32-.2,2.54-18.22-7.5-20.15-18.62-3.6-153.42-39.64-163.34-41.24-30.36-4.89-60.14-10-90.28-10h-1588A415.91,415.91,0,0,0,425.54,1317.53Z" transform="translate(-142.5 -236.4)"/><path class="cls-87" d="M426.86,1317.63h0c-10.12,1-144.38,37.46-163.23,41.09-10,1.94-11.84,19.66-7.61,20.06H2363.66c4.24-.2,2.42-18.12-7.62-20.06-18.85-3.63-153.19-39.47-163.23-41.09-30.32-4.88-60-9.94-90.14-9.94H517A415.85,415.85,0,0,0,426.86,1317.63Z" transform="translate(-142.5 -236.4)"/><path class="cls-88" d="M428.19,1317.73h0c-10.25,1-144,37.28-163.14,41-10,1.93-11.87,19.56-7.72,20h2105c4.17-.21,2.31-18-7.72-20-19.1-3.67-153-39.32-163.13-41-30.27-4.87-60-9.91-90-9.91H518.19A415.76,415.76,0,0,0,428.19,1317.73Z" transform="translate(-142.5 -236.4)"/><path class="cls-89" d="M429.51,1317.82h0c-10.38,1.06-143.7,37.11-163,40.82-10,1.93-11.92,19.46-7.84,19.88H2361c4.09-.21,2.19-18-7.84-19.88-19.33-3.71-152.73-39.16-163-40.82-30.22-4.85-59.87-9.86-89.87-9.86H519.38A416.39,416.39,0,0,0,429.51,1317.82Z" transform="translate(-142.5 -236.4)"/><path class="cls-90" d="M430.83,1317.92h0c-10.5,1.07-143.36,36.93-162.92,40.68-10,1.92-12,19.36-8,19.78H2359.72c4-.21,2.07-17.86-7.95-19.78-19.57-3.75-152.51-39-162.93-40.68-30.17-4.83-59.78-9.83-89.74-9.83H520.57A417,417,0,0,0,430.83,1317.92Z" transform="translate(-142.5 -236.4)"/><path class="cls-91" d="M432.15,1318h0c-10.63,1.08-143,36.75-162.82,40.54-10,1.92-12,19.26-8.07,19.69H2358.41c3.94-.22,1.94-17.77-8.07-19.69-19.81-3.79-152.27-38.86-162.82-40.54-30.13-4.82-59.69-9.8-89.6-9.8H521.76A417,417,0,0,0,432.15,1318Z" transform="translate(-142.5 -236.4)"/><path class="cls-92" d="M433.47,1318.11h0c-10.75,1.1-142.67,36.58-162.71,40.41-10,1.91-12,19.16-8.19,19.59H2357.1c3.86-.21,1.82-17.68-8.19-19.59-20-3.83-152-38.7-162.71-40.41-30.08-4.8-59.6-9.75-89.47-9.75H522.94A417.71,417.71,0,0,0,433.47,1318.11Z" transform="translate(-142.5 -236.4)"/><path class="cls-93" d="M434.8,1318.21h0c-10.88,1.11-142.34,36.4-162.61,40.27-10,1.9-12.07,19.06-8.31,19.5H2355.79c3.78-.22,1.7-17.6-8.3-19.5-20.28-3.87-151.81-38.55-162.61-40.27-30-4.79-59.52-9.72-89.34-9.72H524.13A417.59,417.59,0,0,0,434.8,1318.21Z" transform="translate(-142.5 -236.4)"/><path class="cls-94" d="M436.12,1318.31h0c-11,1.12-142,36.22-162.51,40.13-10,1.9-12.1,19-8.42,19.4H2354.48c3.7-.22,1.58-17.5-8.42-19.4-20.51-3.91-151.58-38.39-162.51-40.13-30-4.78-59.42-9.68-89.19-9.68h-1569A417.55,417.55,0,0,0,436.12,1318.31Z" transform="translate(-142.5 -236.4)"/><path class="cls-95" d="M437.44,1318.4h0c-11.13,1.14-141.65,36-162.4,40-10,1.89-12.14,18.86-8.53,19.31H2353.17c3.62-.23,1.46-17.42-8.54-19.31-20.75-4-151.35-38.24-162.4-40-29.93-4.75-59.33-9.64-89.06-9.64H526.5A418.2,418.2,0,0,0,437.44,1318.4Z" transform="translate(-142.5 -236.4)"/><path class="cls-96" d="M438.76,1318.5h0c-11.26,1.15-141.31,35.87-162.3,39.85-10,1.9-12.17,18.77-8.64,19.23h2084c3.55-.23,1.33-17.33-8.65-19.23-21-4-151.12-38.07-162.3-39.85-29.89-4.74-59.24-9.6-88.93-9.6H527.69A418.88,418.88,0,0,0,438.76,1318.5Z" transform="translate(-142.5 -236.4)"/><path class="cls-97" d="M440.08,1318.6h0c-11.38,1.15-141,35.69-162.19,39.71-10,1.89-12.21,18.67-8.76,19.13H2350.54c3.48-.23,1.22-17.24-8.76-19.13-21.22-4-150.89-37.92-162.19-39.71-29.84-4.73-59.15-9.57-88.8-9.57H528.88A418.94,418.94,0,0,0,440.08,1318.6Z" transform="translate(-142.5 -236.4)"/><path class="cls-98" d="M441.41,1318.69h0c-11.52,1.17-140.63,35.52-162.09,39.58-10,1.89-12.25,18.57-8.88,19H2349.23c3.4-.24,1.1-17.15-8.87-19-21.47-4.06-150.66-37.77-162.09-39.58-29.8-4.71-59.07-9.53-88.66-9.53H530.06A419.45,419.45,0,0,0,441.41,1318.69Z" transform="translate(-142.5 -236.4)"/><path class="cls-99" d="M442.73,1318.79h0c-11.64,1.18-140.29,35.34-162,39.44-10,1.88-12.28,18.47-9,18.94H2347.92c3.32-.23,1-17.06-9-18.94-21.7-4.1-150.43-37.61-162-39.44-29.74-4.7-59-9.49-88.52-9.49H531.25A419.5,419.5,0,0,0,442.73,1318.79Z" transform="translate(-142.5 -236.4)"/><path class="cls-100" d="M444.05,1318.89h0c-11.77,1.19-139.94,35.16-161.88,39.3-10,1.88-12.33,18.37-9.11,18.85H2346.61c3.24-.24.86-17-9.11-18.85-21.93-4.14-150.2-37.46-161.88-39.3-29.7-4.69-58.88-9.46-88.39-9.46H532.44A419.56,419.56,0,0,0,444.05,1318.89Z" transform="translate(-142.5 -236.4)"/><path class="cls-101" d="M445.37,1319h0c-11.89,1.21-139.6,35-161.78,39.17-9.95,1.87-12.36,18.27-9.22,18.75H2345.3c3.17-.24.73-16.88-9.22-18.75-22.18-4.17-150-37.31-161.78-39.17-29.65-4.66-58.79-9.41-88.25-9.41H533.63A420.85,420.85,0,0,0,445.37,1319Z" transform="translate(-142.5 -236.4)"/><path class="cls-102" d="M446.69,1319.08h0c-12,1.22-139.26,34.82-161.67,39-9.95,1.87-12.4,18.17-9.34,18.66H2344c3.09-.24.61-16.79-9.34-18.66-22.41-4.21-149.74-37.15-161.67-39-29.61-4.65-58.7-9.38-88.12-9.38H534.81A421,421,0,0,0,446.69,1319.08Z" transform="translate(-142.5 -236.4)"/><path class="cls-103" d="M448,1319.18h0c-12.15,1.23-138.92,34.64-161.57,38.89-9.95,1.86-12.44,18.07-9.46,18.56H2342.68c3-.24.49-16.7-9.46-18.56-22.64-4.25-149.5-37-161.56-38.89-29.56-4.64-58.62-9.34-88-9.34H536A420.87,420.87,0,0,0,448,1319.18Z" transform="translate(-142.5 -236.4)"/><path class="cls-104" d="M449.34,1319.28h0c-12.27,1.24-138.58,34.46-161.47,38.74-9.94,1.87-12.47,18-9.56,18.48H2341.37c2.93-.25.37-16.61-9.57-18.48-22.89-4.28-149.28-36.84-161.47-38.74-29.51-4.63-58.52-9.31-87.84-9.31H537.19A420.87,420.87,0,0,0,449.34,1319.28Z" transform="translate(-142.5 -236.4)"/><path class="cls-105" d="M450.66,1319.37h0c-12.4,1.26-138.24,34.29-161.36,38.61-9.93,1.86-12.51,17.89-9.68,18.39H2340.06c2.85-.26.25-16.53-9.69-18.39-23.12-4.32-149-36.68-161.36-38.61-29.46-4.61-58.43-9.26-87.71-9.26H538.37A421.58,421.58,0,0,0,450.66,1319.37Z" transform="translate(-142.5 -236.4)"/><path class="cls-106" d="M452,1319.47h0c-12.52,1.27-137.89,34.11-161.25,38.47-9.93,1.85-12.55,17.79-9.8,18.29H2338.74c2.79-.25.13-16.44-9.79-18.29-23.37-4.36-148.82-36.53-161.26-38.47-29.42-4.59-58.34-9.23-87.58-9.23H539.56A422.34,422.34,0,0,0,452,1319.47Z" transform="translate(-142.5 -236.4)"/><path class="cls-107" d="M453.3,1319.57h0c-12.65,1.28-137.55,33.94-161.15,38.33-9.92,1.85-12.58,17.69-9.91,18.2H2337.43c2.71-.26,0-16.35-9.91-18.2-23.6-4.39-148.59-36.38-161.15-38.33-29.37-4.58-58.25-9.2-87.45-9.2H540.75A422.5,422.5,0,0,0,453.3,1319.57Z" transform="translate(-142.5 -236.4)"/><path class="cls-108" d="M454.63,1319.66h0c-12.78,1.3-137.22,33.77-161,38.2-9.92,1.84-12.62,17.59-10,18.1H2336.12c2.63-.26-.11-16.26-10-18.1-23.83-4.43-148.35-36.22-161-38.2-29.32-4.56-58.17-9.15-87.31-9.15H541.93A423,423,0,0,0,454.63,1319.66Z" transform="translate(-142.5 -236.4)"/><path class="cls-109" d="M456,1319.76h0c-12.91,1.31-136.87,33.59-160.95,38.06-9.91,1.84-12.65,17.49-10.14,18h2050c2.55-.26-.23-16.17-10.14-18-24.08-4.47-148.13-36.07-161-38.06-29.27-4.55-58.07-9.12-87.17-9.12H543.12A423.09,423.09,0,0,0,456,1319.76Z" transform="translate(-142.5 -236.4)"/><path class="cls-110" d="M457.27,1319.86h0c-13,1.32-136.53,33.41-160.84,37.92-9.91,1.83-12.69,17.39-10.26,17.91H2333.5c2.48-.26-.35-16.08-10.26-17.91-24.31-4.51-147.89-35.92-160.84-37.92-29.22-4.54-58-9.08-87-9.08H544.31A423.17,423.17,0,0,0,457.27,1319.86Z" transform="translate(-142.5 -236.4)"/><path class="cls-111" d="M458.59,1320h0c-13.16,1.34-136.19,33.25-160.73,37.79-9.9,1.83-12.73,17.29-10.38,17.82H2332.19c2.4-.27-.48-16-10.38-17.82-24.54-4.54-147.66-35.76-160.73-37.79-29.18-4.51-57.89-9-86.9-9H545.5A424.65,424.65,0,0,0,458.59,1320Z" transform="translate(-142.5 -236.4)"/><path class="cls-112" d="M459.91,1320.05h0c-13.28,1.35-135.84,33.07-160.63,37.65-9.89,1.82-12.77,17.19-10.49,17.73H2330.88c2.32-.27-.6-15.91-10.49-17.73-24.79-4.58-147.44-35.61-160.63-37.65-29.13-4.5-57.81-9-86.77-9H546.68A424.72,424.72,0,0,0,459.91,1320.05Z" transform="translate(-142.5 -236.4)"/><path class="cls-113" d="M461.24,1320.15h0c-13.41,1.36-135.51,32.89-160.53,37.5-9.89,1.83-12.81,17.1-10.61,17.64H2329.57c2.25-.27-.72-15.81-10.61-17.64-25-4.61-147.2-35.45-160.52-37.5-29.09-4.49-57.72-9-86.64-9H547.87A424.67,424.67,0,0,0,461.24,1320.15Z" transform="translate(-142.5 -236.4)"/><path class="cls-114" d="M462.56,1320.24h0C449,1321.62,327.4,1353,302.14,1357.61c-9.89,1.82-12.85,17-10.72,17.55H2328.26c2.17-.28-.84-15.73-10.72-17.55-25.26-4.64-147-35.3-160.43-37.37-29-4.47-57.62-8.93-86.5-8.93H549.06A425.48,425.48,0,0,0,462.56,1320.24Z" transform="translate(-142.5 -236.4)"/><path class="cls-115" d="M463.88,1320.34h0c-13.66,1.39-134.82,32.55-160.32,37.23-9.88,1.82-12.88,16.9-10.83,17.45H2326.94c2.1-.28-1-15.63-10.83-17.45-25.5-4.68-146.74-35.14-160.32-37.23-29-4.46-57.53-8.89-86.36-8.89H550.24A425.48,425.48,0,0,0,463.88,1320.34Z" transform="translate(-142.5 -236.4)"/><path class="cls-116" d="M465.2,1320.44h0c-13.79,1.4-134.48,32.37-160.21,37.09-9.87,1.81-12.92,16.8-10.95,17.36H2325.63c2-.28-1.08-15.55-11-17.36-25.73-4.72-146.51-35-160.21-37.09-28.94-4.45-57.44-8.86-86.23-8.86H551.43A425.68,425.68,0,0,0,465.2,1320.44Z" transform="translate(-142.5 -236.4)"/><path class="cls-117" d="M466.52,1320.53h0c-13.91,1.42-134.13,32.21-160.11,37-9.86,1.81-13,16.7-11.06,17.26h2029c1.95-.28-1.2-15.45-11.06-17.26-26-4.75-146.28-34.84-160.11-37-28.9-4.42-57.36-8.81-86.1-8.81H552.62A427.22,427.22,0,0,0,466.52,1320.53Z" transform="translate(-142.5 -236.4)"/><path class="cls-118" d="M467.85,1320.63h0c-14.05,1.43-133.8,32-160,36.82-9.86,1.8-13,16.6-11.18,17.17H2323c1.88-.29-1.32-15.37-11.18-17.17-26.21-4.79-146-34.69-160-36.82-28.85-4.41-57.27-8.78-86-8.78H553.81A427.11,427.11,0,0,0,467.85,1320.63Z" transform="translate(-142.5 -236.4)"/><path class="cls-119" d="M469.17,1320.73h0c-14.17,1.44-133.45,31.85-159.9,36.68-9.86,1.79-13,16.5-11.3,17.07H2321.7c1.8-.29-1.44-15.28-11.3-17.07-26.44-4.83-145.82-34.53-159.9-36.68-28.8-4.4-57.17-8.74-85.82-8.74H555A427.2,427.2,0,0,0,469.17,1320.73Z" transform="translate(-142.5 -236.4)"/><path class="cls-120" d="M470.49,1320.82h0c-14.3,1.46-133.11,31.69-159.8,36.55-9.85,1.79-13.06,16.4-11.41,17H2320.39c1.73-.29-1.56-15.19-11.41-17-26.69-4.86-145.59-34.38-159.8-36.55-28.75-4.38-57.08-8.7-85.69-8.7H556.18A428.06,428.06,0,0,0,470.49,1320.82Z" transform="translate(-142.5 -236.4)"/><path class="cls-121" d="M471.81,1320.92h0c-14.42,1.47-132.77,31.51-159.69,36.4-9.84,1.79-13.1,16.31-11.53,16.9H2319.08c1.58-.59-1.68-15.11-11.53-16.9-26.92-4.89-145.36-34.22-159.69-36.4-28.71-4.37-57-8.66-85.55-8.66H557.37A428.27,428.27,0,0,0,471.81,1320.92Z" transform="translate(-142.5 -236.4)"/><path class="cls-122" d="M473.13,1321h0c-14.55,1.48-132.42,31.34-159.58,36.26-9.84,1.79-13.14,16.21-11.65,16.8H2317.77c1.5-.59-1.81-15-11.64-16.8-27.17-4.92-145.13-34.07-159.59-36.26-28.66-4.35-56.91-8.63-85.42-8.63H558.55A429.06,429.06,0,0,0,473.13,1321Z" transform="translate(-142.5 -236.4)"/><path class="cls-123" d="M474.46,1321.11h0c-14.68,1.5-132.09,31.17-159.49,36.13-9.83,1.78-13.18,16.11-11.75,16.71H2316.46c1.42-.6-1.93-14.93-11.76-16.71-27.4-5-144.9-33.92-159.48-36.13-28.62-4.33-56.82-8.59-85.29-8.59H559.74A429.77,429.77,0,0,0,474.46,1321.11Z" transform="translate(-142.5 -236.4)"/><path class="cls-124" d="M475.78,1321.21h0c-14.8,1.5-131.75,31-159.38,36-9.83,1.78-13.22,16-11.87,16.61H2315.14c1.35-.59-2-14.83-11.87-16.61-27.63-5-144.66-33.76-159.38-36-28.56-4.32-56.72-8.55-85.15-8.55H560.93A429.91,429.91,0,0,0,475.78,1321.21Z" transform="translate(-142.5 -236.4)"/><path class="cls-125" d="M477.1,1321.31h0c-14.93,1.51-131.4,30.82-159.28,35.85-9.82,1.77-13.25,15.92-12,16.52h2008c1.27-.6-2.16-14.75-12-16.52-27.88-5-144.44-33.61-159.28-35.85-28.51-4.31-56.63-8.52-85-8.52H562.11A430,430,0,0,0,477.1,1321.31Z" transform="translate(-142.5 -236.4)"/><path class="cls-126" d="M478.42,1321.4h0c-15.05,1.53-131.06,30.66-159.17,35.72-9.81,1.77-13.29,15.82-12.1,16.42H2312.52c1.19-.6-2.28-14.65-12.1-16.42-28.11-5.06-144.21-33.46-159.17-35.72-28.47-4.29-56.54-8.47-84.88-8.47H563.3A431,431,0,0,0,478.42,1321.4Z" transform="translate(-142.5 -236.4)"/><path class="cls-127" d="M479.74,1321.5h0C464.56,1323,349,1352,320.68,1357.08c-9.81,1.76-13.33,15.72-12.22,16.33H2311.21c1.11-.61-2.41-14.57-12.22-16.33-28.35-5.1-144-33.31-159.06-35.58-28.42-4.27-56.46-8.44-84.75-8.44H564.49A431.88,431.88,0,0,0,479.74,1321.5Z" transform="translate(-142.5 -236.4)"/><path class="cls-128" d="M481.07,1321.6h0c-15.31,1.55-130.38,30.31-159,35.44-9.8,1.76-13.36,15.62-12.33,16.24H2309.9c1-.62-2.53-14.48-12.33-16.24-28.59-5.13-143.75-33.16-159-35.44-28.38-4.26-56.37-8.4-84.61-8.4H565.68A431.87,431.87,0,0,0,481.07,1321.6Z" transform="translate(-142.5 -236.4)"/><path class="cls-129" d="M482.39,1321.69h0c-15.44,1.57-130,30.14-158.86,35.31-9.8,1.75-13.4,15.52-12.45,16.14H2308.59c.95-.62-2.65-14.39-12.45-16.14-28.82-5.17-143.51-33-158.86-35.31-28.32-4.24-56.27-8.36-84.47-8.36H566.86A432.71,432.71,0,0,0,482.39,1321.69Z" transform="translate(-142.5 -236.4)"/><path class="cls-130" d="M483.71,1321.79h0c-15.56,1.58-129.69,30-158.75,35.16-9.8,1.76-13.44,15.43-12.57,16.06H2307.28c.87-.63-2.77-14.31-12.56-16.06-29.07-5.19-143.29-32.84-158.76-35.16-28.28-4.23-56.18-8.33-84.34-8.33H568.05A433,433,0,0,0,483.71,1321.79Z" transform="translate(-142.5 -236.4)"/><path class="cls-131" d="M485,1321.89h0c-15.69,1.59-129.35,29.79-158.65,35-9.78,1.75-13.47,15.33-12.68,16H2306c.79-.63-2.89-14.21-12.68-16-29.3-5.23-143.05-32.69-158.65-35-28.23-4.22-56.1-8.29-84.2-8.29H569.24A433.15,433.15,0,0,0,485,1321.89Z" transform="translate(-142.5 -236.4)"/><path class="cls-132" d="M486.35,1322h0c-15.81,1.6-129,29.62-158.54,34.88-9.78,1.74-13.51,15.23-12.79,15.87H2304.66c.72-.64-3-14.13-12.8-15.87-29.54-5.26-142.82-32.54-158.54-34.88-28.19-4.2-56-8.26-84.07-8.26H570.42A433.25,433.25,0,0,0,486.35,1322Z" transform="translate(-142.5 -236.4)"/><path class="cls-133" d="M487.68,1322.08h0c-15.94,1.62-128.67,29.46-158.45,34.75-9.77,1.74-13.54,15.13-12.9,15.77h1987c.65-.64-3.13-14-12.9-15.77-29.78-5.29-142.6-32.39-158.44-34.75-28.14-4.18-55.92-8.21-83.94-8.21H571.61A434.81,434.81,0,0,0,487.68,1322.08Z" transform="translate(-142.5 -236.4)"/><path class="cls-134" d="M489,1322.18h0c-16.07,1.63-128.32,29.28-158.34,34.61-9.77,1.73-13.59,15-13,15.68H2302c.57-.65-3.25-14-13-15.68-30-5.33-142.36-32.24-158.34-34.61-28.09-4.17-55.82-8.18-83.8-8.18H572.8A435,435,0,0,0,489,1322.18Z" transform="translate(-142.5 -236.4)"/><path class="cls-135" d="M490.32,1322.28h0c-16.19,1.64-128,29.11-158.23,34.47-9.77,1.73-13.63,14.93-13.14,15.58H2300.72c.49-.65-3.37-13.85-13.14-15.58-30.25-5.36-142.13-32.09-158.23-34.47-28-4.16-55.73-8.14-83.66-8.14H574A435.3,435.3,0,0,0,490.32,1322.28Z" transform="translate(-142.5 -236.4)"/><path class="cls-136" d="M491.64,1322.37h0c-16.32,1.66-127.64,29-158.13,34.34-9.76,1.72-13.66,14.83-13.25,15.49H2299.41c.41-.66-3.49-13.77-13.25-15.49-30.49-5.39-141.9-31.94-158.13-34.34-28-4.14-55.65-8.1-83.53-8.1H575.17A436.2,436.2,0,0,0,491.64,1322.37Z" transform="translate(-142.5 -236.4)"/><path class="cls-137" d="M493,1322.47h0c-16.44,1.67-127.29,28.77-158,34.2-9.75,1.72-13.7,14.73-13.37,15.4H2298.1c.33-.67-3.62-13.68-13.37-15.4-30.73-5.43-141.67-31.79-158-34.2-27.95-4.13-55.56-8.06-83.4-8.06H576.36A436.41,436.41,0,0,0,493,1322.47Z" transform="translate(-142.5 -236.4)"/><path class="cls-138" d="M494.29,1322.57h0c-16.58,1.68-127,28.6-157.92,34-9.75,1.72-13.74,14.64-13.49,15.31H2296.79c.25-.67-3.74-13.59-13.48-15.31-31-5.45-141.44-31.63-157.92-34-27.91-4.11-55.47-8-83.26-8H577.55A437.27,437.27,0,0,0,494.29,1322.57Z" transform="translate(-142.5 -236.4)"/><path class="cls-139" d="M495.61,1322.66h0c-16.7,1.7-126.61,28.44-157.82,33.92-9.74,1.72-13.77,14.54-13.6,15.22H2295.48c.17-.68-3.86-13.5-13.6-15.22-31.21-5.48-141.21-31.48-157.82-33.92-27.85-4.09-55.37-8-83.12-8H578.73A438.2,438.2,0,0,0,495.61,1322.66Z" transform="translate(-142.5 -236.4)"/><path class="cls-140" d="M496.93,1322.76h0c-16.83,1.71-126.27,28.26-157.71,33.78-9.74,1.71-13.81,14.44-13.72,15.12H2294.17c.09-.68-4-13.41-13.72-15.12-31.44-5.52-141-31.33-157.71-33.78-27.81-4.08-55.28-8-83-8H579.92A438.51,438.51,0,0,0,496.93,1322.76Z" transform="translate(-142.5 -236.4)"/><path class="cls-141" d="M498.25,1322.86h0c-16.95,1.72-125.92,28.09-157.61,33.64-9.73,1.71-13.84,14.34-13.82,15h1966c0-.69-4.1-13.32-13.83-15-31.69-5.55-140.75-31.18-157.61-33.64-27.76-4.07-55.2-7.92-82.86-7.92H581.11A438.76,438.76,0,0,0,498.25,1322.86Z" transform="translate(-142.5 -236.4)"/><path class="cls-142" d="M499.57,1323h0c-17.08,1.74-125.58,27.93-157.5,33.51-9.72,1.7-13.88,14.24-13.94,14.93H2291.54c-.06-.69-4.21-13.23-13.94-14.93-31.92-5.58-140.51-31-157.5-33.51-27.72-4-55.11-7.87-82.72-7.87H582.29A439.79,439.79,0,0,0,499.57,1323Z" transform="translate(-142.5 -236.4)"/><path class="cls-143" d="M500.9,1323.05h0c-17.21,1.75-125.24,27.76-157.4,33.37-9.72,1.69-13.92,14.15-14.06,14.84H2290.23c-.13-.69-4.34-13.15-14.06-14.84-32.15-5.61-140.28-30.87-157.39-33.37-27.67-4-55-7.84-82.59-7.84H583.48A440.62,440.62,0,0,0,500.9,1323.05Z" transform="translate(-142.5 -236.4)"/><path class="cls-144" d="M502.22,1323.15h0c-17.33,1.76-124.9,27.59-157.3,33.23-9.71,1.69-13.95,14-14.17,14.75H2288.92c-.21-.7-4.46-13.06-14.17-14.75-32.4-5.64-140.06-30.72-157.3-33.23-27.62-4-54.92-7.8-82.45-7.8H584.67A440.88,440.88,0,0,0,502.22,1323.15Z" transform="translate(-142.5 -236.4)"/><path class="cls-145" d="M503.54,1323.24h0c-17.46,1.78-124.56,27.42-157.19,33.1-9.71,1.68-14,14-14.29,14.65H2287.61c-.29-.7-4.58-13-14.29-14.65-32.63-5.68-139.82-30.57-157.19-33.1-27.57-4-54.83-7.76-82.31-7.76h-1448A442.06,442.06,0,0,0,503.54,1323.24Z" transform="translate(-142.5 -236.4)"/><path class="cls-146" d="M504.86,1323.34h0c-17.58,1.79-124.21,27.25-157.08,33-9.71,1.68-14,13.85-14.41,14.56H2286.3c-.37-.71-4.7-12.88-14.4-14.56-32.88-5.71-139.6-30.42-157.09-33-27.53-4-54.75-7.73-82.18-7.73H587A442.23,442.23,0,0,0,504.86,1323.34Z" transform="translate(-142.5 -236.4)"/><path class="cls-147" d="M506.18,1323.44h0c-17.71,1.8-123.87,27.08-157,32.81-9.69,1.68-14.07,13.76-14.52,14.47H2285c-.45-.71-4.82-12.79-14.52-14.47-33.11-5.73-139.36-30.26-157-32.81-27.48-4-54.66-7.69-82-7.69H588.23A442.51,442.51,0,0,0,506.18,1323.44Z" transform="translate(-142.5 -236.4)"/><path class="cls-148" d="M507.51,1323.53h0c-17.84,1.82-123.53,26.92-156.88,32.68-9.69,1.68-14.11,13.66-14.64,14.38H2283.68c-.53-.72-4.95-12.7-14.64-14.38-33.35-5.76-139.13-30.12-156.87-32.68-27.44-4-54.57-7.65-81.91-7.65H589.42A443.45,443.45,0,0,0,507.51,1323.53Z" transform="translate(-142.5 -236.4)"/><path class="cls-149" d="M508.83,1323.63h0c-18,1.83-123.19,26.75-156.78,32.54-9.68,1.67-14.14,13.56-14.75,14.28H2282.37c-.61-.72-5.07-12.61-14.75-14.28-33.59-5.79-138.9-30-156.78-32.54-27.38-3.94-54.47-7.61-81.77-7.61H590.6A444.66,444.66,0,0,0,508.83,1323.63Z" transform="translate(-142.5 -236.4)"/><path class="cls-150" d="M510.15,1323.73h0c-18.09,1.84-122.84,26.58-156.67,32.4-9.68,1.67-14.18,13.46-14.86,14.19H2281.06c-.69-.73-5.19-12.52-14.87-14.19-33.83-5.82-138.67-29.82-156.67-32.4-27.34-3.93-54.39-7.58-81.64-7.58H591.79A444.89,444.89,0,0,0,510.15,1323.73Z" transform="translate(-142.5 -236.4)"/><path class="cls-151" d="M511.47,1323.82h0c-18.22,1.86-122.5,26.42-156.56,32.27-9.68,1.66-14.22,13.36-15,14.1H2279.75c-.77-.74-5.31-12.44-15-14.1-34.06-5.85-138.43-29.67-156.56-32.27-27.29-3.91-54.3-7.53-81.51-7.53H593A446.05,446.05,0,0,0,511.47,1323.82Z" transform="translate(-142.5 -236.4)"/><path class="cls-152" d="M512.79,1323.92h0c-18.34,1.86-122.15,26.25-156.46,32.13-9.67,1.66-14.25,13.26-15.09,14H2278.43c-.84-.74-5.42-12.34-15.09-14-34.31-5.88-138.21-29.52-156.46-32.13-27.25-3.9-54.21-7.5-81.37-7.5H594.16A446.34,446.34,0,0,0,512.79,1323.92Z" transform="translate(-142.5 -236.4)"/><path class="cls-153" d="M514.12,1324h0c-18.48,1.87-121.82,26.08-156.36,32-9.66,1.65-14.29,13.16-15.21,13.91H2277.12c-.92-.75-5.54-12.26-15.21-13.91-34.54-5.91-138-29.37-156.35-32-27.2-3.89-54.12-7.47-81.24-7.47h-1429A446.4,446.4,0,0,0,514.12,1324Z" transform="translate(-142.5 -236.4)"/><path class="cls-154" d="M515.44,1324.11h0C496.84,1326,394,1350,359.18,1356c-9.65,1.65-14.32,13.06-15.32,13.81h1932c-1-.75-5.67-12.16-15.32-13.81-34.79-6-137.75-29.22-156.26-31.86-27.15-3.86-54-7.42-81.1-7.42H596.54A448.58,448.58,0,0,0,515.44,1324.11Z" transform="translate(-142.5 -236.4)"/><path class="cls-155" d="M516.76,1324.21h0c-18.72,1.9-121.13,25.74-156.15,31.71-9.65,1.65-14.36,13-15.44,13.73H2274.5c-1.07-.76-5.79-12.08-15.44-13.73-35-6-137.51-29.06-156.15-31.71-27.1-3.85-53.94-7.39-81-7.39H597.73A448.92,448.92,0,0,0,516.76,1324.21Z" transform="translate(-142.5 -236.4)"/><path class="cls-156" d="M518.08,1324.31h0c-18.85,1.91-120.78,25.57-156,31.57-9.65,1.64-14.41,12.87-15.56,13.63H2273.19c-1.15-.76-5.91-12-15.56-13.63-35.26-6-137.28-28.91-156-31.57-27.06-3.84-53.85-7.35-80.83-7.35H598.91A449.15,449.15,0,0,0,518.08,1324.31Z" transform="translate(-142.5 -236.4)"/><path class="cls-157" d="M519.4,1324.4h0c-19,1.93-120.44,25.42-155.94,31.44-9.64,1.64-14.44,12.77-15.67,13.54H2271.88c-1.23-.77-6-11.9-15.67-13.54-35.5-6-137.06-28.76-155.94-31.44-27-3.82-53.76-7.31-80.7-7.31H600.1A450.4,450.4,0,0,0,519.4,1324.4Z" transform="translate(-142.5 -236.4)"/><path class="cls-158" d="M520.73,1324.5h0c-19.11,1.94-120.1,25.25-155.84,31.3-9.63,1.63-14.48,12.67-15.79,13.44H2270.57c-1.31-.77-6.15-11.81-15.79-13.44-35.73-6-136.82-28.61-155.83-31.3-27-3.81-53.67-7.27-80.57-7.27H601.29A450.56,450.56,0,0,0,520.73,1324.5Z" transform="translate(-142.5 -236.4)"/><path class="cls-159" d="M522.05,1324.6h0c-19.23,2-119.76,25.08-155.73,31.16-9.63,1.63-14.52,12.57-15.9,13.35H2269.26c-1.39-.78-6.28-11.72-15.9-13.35-36-6.08-136.6-28.46-155.74-31.16-26.91-3.79-53.57-7.24-80.42-7.24H602.47A451.91,451.91,0,0,0,522.05,1324.6Z" transform="translate(-142.5 -236.4)"/><path class="cls-160" d="M523.37,1324.7h0c-19.36,2-119.41,24.91-155.63,31-9.62,1.62-14.55,12.47-16,13.26H2268c-1.47-.79-6.4-11.64-16-13.26-36.21-6.11-136.36-28.32-155.63-31-26.87-3.78-53.49-7.2-80.29-7.2H603.66A452.2,452.2,0,0,0,523.37,1324.7Z" transform="translate(-142.5 -236.4)"/><path class="cls-161" d="M524.69,1324.79h0c-19.48,2-119.07,24.75-155.52,30.89-9.62,1.62-14.59,12.37-16.13,13.16H2266.63c-1.54-.79-6.51-11.54-16.13-13.16-36.45-6.14-136.13-28.17-155.52-30.89-26.82-3.76-53.4-7.16-80.16-7.16h-1410A453.51,453.51,0,0,0,524.69,1324.79Z" transform="translate(-142.5 -236.4)"/><path class="cls-162" d="M526,1324.89h0c-19.61,2-118.72,24.58-155.42,30.75-9.61,1.61-14.62,12.28-16.24,13.07h1911c-1.62-.79-6.63-11.46-16.24-13.07-36.69-6.17-135.9-28-155.42-30.75-26.78-3.75-53.31-7.13-80-7.13H606A453.9,453.9,0,0,0,526,1324.89Z" transform="translate(-142.5 -236.4)"/><path class="cls-163" d="M527.34,1325h0C507.6,1327,409,1349.4,372,1355.6c-9.61,1.61-14.66,12.18-16.36,13H2264c-1.7-.79-6.75-11.36-16.36-13-36.93-6.2-135.67-27.87-155.31-30.61-26.73-3.74-53.22-7.09-79.89-7.09H607.22A454,454,0,0,0,527.34,1325Z" transform="translate(-142.5 -236.4)"/><path class="cls-164" d="M528.66,1325.08h0c-19.86,2-118,24.25-155.21,30.47-9.6,1.61-14.7,12.09-16.48,12.89H2262.7c-1.78-.8-6.87-11.28-16.48-12.89-37.16-6.22-135.43-27.71-155.21-30.47-26.68-3.72-53.12-7-79.75-7H608.41A455.42,455.42,0,0,0,528.66,1325.08Z" transform="translate(-142.5 -236.4)"/><path class="cls-165" d="M530,1325.18h0c-20,2-117.7,24.08-155.11,30.33-9.59,1.61-14.73,12-16.59,12.79H2261.39c-1.86-.8-7-11.18-16.59-12.79-37.41-6.25-135.21-27.56-155.11-30.33-26.63-3.7-53-7-79.61-7H609.6A456.79,456.79,0,0,0,530,1325.18Z" transform="translate(-142.5 -236.4)"/><path class="cls-166" d="M531.3,1325.28h0c-20.11,2-117.35,23.91-155,30.19-9.59,1.6-14.77,11.89-16.71,12.7H2260.08c-1.93-.81-7.12-11.1-16.71-12.7-37.64-6.28-135-27.42-155-30.19-26.59-3.69-52.95-7-79.48-7H610.78A457.2,457.2,0,0,0,531.3,1325.28Z" transform="translate(-142.5 -236.4)"/><path class="cls-167" d="M532.62,1325.37h0c-20.24,2.06-117,23.76-154.89,30.06-9.59,1.6-14.82,11.79-16.83,12.61H2258.77c-2-.82-7.24-11-16.82-12.61-37.89-6.3-134.75-27.27-154.9-30.06-26.54-3.67-52.86-6.93-79.35-6.93H612A458.5,458.5,0,0,0,532.62,1325.37Z" transform="translate(-142.5 -236.4)"/><path class="cls-168" d="M534,1325.47h0c-20.37,2.07-116.67,23.59-154.8,29.92-9.58,1.59-14.85,11.69-16.93,12.51H2257.46c-2.09-.82-7.36-10.92-16.94-12.51-38.13-6.33-134.51-27.12-154.79-29.92-26.5-3.66-52.77-6.9-79.22-6.9H613.16A458.83,458.83,0,0,0,534,1325.47Z" transform="translate(-142.5 -236.4)"/><path class="cls-169" d="M535.27,1325.57h0c-20.5,2.08-116.33,23.42-154.69,29.78-9.58,1.59-14.89,11.59-17.05,12.42H2256.15c-2.17-.83-7.48-10.84-17.06-12.42-38.36-6.36-134.28-27-154.69-29.78-26.44-3.65-52.68-6.87-79.07-6.87h-1391A459.26,459.26,0,0,0,535.27,1325.57Z" transform="translate(-142.5 -236.4)"/><path class="cls-170" d="M536.59,1325.66h0c-20.62,2.1-116,23.26-154.59,29.65-9.56,1.58-14.92,11.49-17.16,12.32h1890c-2.24-.83-7.6-10.74-17.16-12.32-38.61-6.39-134.05-26.83-154.59-29.65-26.4-3.62-52.59-6.82-78.94-6.82H615.53A461.62,461.62,0,0,0,536.59,1325.66Z" transform="translate(-142.5 -236.4)"/><path class="cls-171" d="M537.91,1325.76h0c-20.75,2.11-115.64,23.1-154.48,29.51-9.56,1.57-15,11.39-17.28,12.23H2253.52c-2.32-.84-7.72-10.66-17.28-12.23-38.84-6.41-133.82-26.68-154.48-29.51-26.35-3.61-52.5-6.79-78.81-6.79H616.72A462.09,462.09,0,0,0,537.91,1325.76Z" transform="translate(-142.5 -236.4)"/><path class="cls-172" d="M539.23,1325.86h0c-20.87,2.12-115.29,22.93-154.37,29.37-9.56,1.57-15,11.29-17.4,12.13H2252.21c-2.4-.84-7.84-10.56-17.4-12.14-39.08-6.43-133.58-26.52-154.37-29.36-26.31-3.6-52.41-6.75-78.67-6.75H617.91A462.56,462.56,0,0,0,539.23,1325.86Z" transform="translate(-142.5 -236.4)"/><path class="cls-173" d="M540.56,1326h0c-21,2.14-115,22.77-154.28,29.23-9.55,1.57-15,11.2-17.51,12H2250.9c-2.48-.85-8-10.48-17.51-12-39.32-6.46-133.36-26.37-154.27-29.23-26.26-3.58-52.32-6.71-78.54-6.71H619.09A463.93,463.93,0,0,0,540.56,1326Z" transform="translate(-142.5 -236.4)"/><path class="cls-174" d="M541.88,1326.05h0c-21.13,2.15-114.61,22.61-154.17,29.09-9.55,1.57-15.07,11.1-17.63,11.95H2249.59c-2.56-.85-8.08-10.38-17.63-11.95-39.56-6.48-133.12-26.23-154.17-29.09-26.21-3.57-52.23-6.67-78.4-6.67H620.28A464.33,464.33,0,0,0,541.88,1326.05Z" transform="translate(-142.5 -236.4)"/><path class="cls-175" d="M543.2,1326.15h0c-21.25,2.16-114.27,22.44-154.06,28.95-9.54,1.56-15.11,11-17.75,11.86H2248.28c-2.64-.86-8.2-10.3-17.74-11.86-39.8-6.51-132.9-26.08-154.07-28.95-26.16-3.56-52.14-6.64-78.27-6.64H621.47A465.88,465.88,0,0,0,543.2,1326.15Z" transform="translate(-142.5 -236.4)"/><path class="cls-176" d="M544.52,1326.24h0c-21.38,2.18-113.92,22.28-154,28.82-9.53,1.56-15.14,10.9-17.86,11.77H2247c-2.72-.87-8.33-10.21-17.86-11.77-40-6.54-132.66-25.93-154-28.82-26.12-3.53-52.05-6.59-78.13-6.59H622.65A467.41,467.41,0,0,0,544.52,1326.24Z" transform="translate(-142.5 -236.4)"/><path class="cls-177" d="M545.84,1326.34h0c-21.5,2.19-113.58,22.12-153.85,28.68-9.53,1.55-15.18,10.8-18,11.67H2245.66c-2.79-.87-8.45-10.12-18-11.67-40.27-6.56-132.43-25.79-153.85-28.68-26.07-3.52-52-6.56-78-6.56h-1372A467.85,467.85,0,0,0,545.84,1326.34Z" transform="translate(-142.5 -236.4)"/><path class="cls-178" d="M547.17,1326.44h0c-21.64,2.2-113.24,22-153.76,28.54-9.52,1.55-15.22,10.7-18.08,11.58h1869c-2.87-.88-8.57-10-18.09-11.58-40.52-6.59-132.2-25.64-153.75-28.54-26-3.51-51.87-6.53-77.87-6.53H625A468.28,468.28,0,0,0,547.17,1326.44Z" transform="translate(-142.5 -236.4)"/><path class="cls-179" d="M548.49,1326.53h0c-21.76,2.22-112.9,21.79-153.65,28.41-9.52,1.54-15.26,10.6-18.2,11.48H2243c-2.94-.88-8.68-9.94-18.2-11.48-40.75-6.62-132-25.49-153.65-28.41-26-3.49-51.78-6.48-77.72-6.48H626.22A469.89,469.89,0,0,0,548.49,1326.53Z" transform="translate(-142.5 -236.4)"/><path class="cls-180" d="M549.81,1326.63h0c-21.89,2.22-112.55,21.63-153.54,28.27-9.52,1.54-15.3,10.5-18.32,11.39H2241.72c-3-.89-8.8-9.85-18.32-11.39-41-6.64-131.73-25.35-153.54-28.27-25.93-3.48-51.69-6.45-77.59-6.45H627.4A470.42,470.42,0,0,0,549.81,1326.63Z" transform="translate(-142.5 -236.4)"/><path class="cls-181" d="M551.13,1326.73h0c-22,2.23-112.2,21.46-153.44,28.12-9.5,1.54-15.33,10.42-18.43,11.3H2240.41c-3.1-.88-8.92-9.76-18.43-11.3-41.23-6.66-131.51-25.19-153.44-28.12-25.88-3.46-51.6-6.41-77.46-6.41H628.59A472,472,0,0,0,551.13,1326.73Z" transform="translate(-142.5 -236.4)"/><path class="cls-182" d="M552.45,1326.82h0c-22.14,2.25-111.86,21.31-153.33,28-9.5,1.54-15.37,10.32-18.55,11.21H2239.1c-3.18-.89-9-9.67-18.55-11.21-41.47-6.68-131.27-25-153.33-28-25.84-3.44-51.51-6.37-77.32-6.37H629.78A473.67,473.67,0,0,0,552.45,1326.82Z" transform="translate(-142.5 -236.4)"/><path class="cls-183" d="M553.78,1326.92h0c-22.27,2.26-111.52,21.14-153.23,27.85-9.5,1.53-15.41,10.22-18.67,11.12H2237.79c-3.26-.9-9.17-9.59-18.66-11.12-41.71-6.71-131.05-24.9-153.23-27.85-25.79-3.43-51.42-6.33-77.19-6.33H631A474.11,474.11,0,0,0,553.78,1326.92Z" transform="translate(-142.5 -236.4)"/><path class="cls-184" d="M555.1,1327h0c-22.39,2.27-111.18,21-153.13,27.71-9.49,1.52-15.44,10.12-18.78,11H2236.48c-3.34-.9-9.29-9.5-18.78-11-41.95-6.73-130.81-24.75-153.13-27.71-25.74-3.42-51.33-6.3-77.05-6.3H632.15A474.63,474.63,0,0,0,555.1,1327Z" transform="translate(-142.5 -236.4)"/><path class="cls-185" d="M556.42,1327.11h0c-22.52,2.29-110.83,20.82-153,27.58-9.49,1.52-15.48,10-18.9,10.93H2235.17c-3.42-.91-9.41-9.41-18.9-10.93-42.19-6.76-130.58-24.6-153-27.58-25.69-3.4-51.24-6.26-76.92-6.26h-1353A476.37,476.37,0,0,0,556.42,1327.11Z" transform="translate(-142.5 -236.4)"/><path class="cls-186" d="M557.74,1327.21h0c-22.64,2.3-110.49,20.66-152.92,27.44-9.48,1.51-15.51,9.92-19,10.83H2233.86c-3.5-.91-9.53-9.32-19-10.83-42.43-6.78-130.35-24.46-152.92-27.44-25.65-3.39-51.15-6.22-76.78-6.22H634.52A478.11,478.11,0,0,0,557.74,1327.21Z" transform="translate(-142.5 -236.4)"/><path class="cls-187" d="M559.06,1327.31h0c-22.77,2.31-110.14,20.49-152.81,27.3-9.47,1.51-15.55,9.82-19.12,10.74H2232.55c-3.58-.92-9.65-9.23-19.13-10.74-42.67-6.81-130.12-24.31-152.81-27.3-25.61-3.37-51.06-6.19-76.65-6.19H635.71A478.77,478.77,0,0,0,559.06,1327.31Z" transform="translate(-142.5 -236.4)"/><path class="cls-188" d="M560.39,1327.41h0c-22.9,2.32-109.81,20.33-152.71,27.16-9.47,1.5-15.59,9.72-19.24,10.64H2231.23c-3.64-.92-9.77-9.14-19.24-10.64-42.9-6.83-129.88-24.17-152.7-27.16-25.56-3.36-51-6.15-76.52-6.15H636.9A479.2,479.2,0,0,0,560.39,1327.41Z" transform="translate(-142.5 -236.4)"/><path class="cls-189" d="M561.71,1327.5h0c-23,2.34-109.46,20.17-152.61,27-9.46,1.5-15.63,9.62-19.35,10.55H2229.92c-3.72-.93-9.89-9-19.35-10.55-43.15-6.86-129.66-24-152.61-27-25.51-3.34-50.88-6.11-76.37-6.11H638.09A481,481,0,0,0,561.71,1327.5Z" transform="translate(-142.5 -236.4)"/><path class="cls-190" d="M563,1327.6h0c-23.15,2.35-109.11,20-152.5,26.88-9.46,1.5-15.67,9.53-19.47,10.46H2228.61c-3.8-.93-10-9-19.47-10.46-43.38-6.87-129.42-23.87-152.5-26.88-25.46-3.33-50.79-6.07-76.24-6.07H639.27A481.67,481.67,0,0,0,563,1327.6Z" transform="translate(-142.5 -236.4)"/><path class="cls-191" d="M564.35,1327.7h0c-23.28,2.36-108.77,19.85-152.39,26.74-9.46,1.5-15.71,9.43-19.59,10.37H2227.3c-3.88-.94-10.13-8.87-19.58-10.37-43.63-6.89-129.2-23.72-152.4-26.74-25.42-3.32-50.7-6-76.11-6H640.46A483.47,483.47,0,0,0,564.35,1327.7Z" transform="translate(-142.5 -236.4)"/><path class="cls-192" d="M565.67,1327.79h0c-23.4,2.38-108.42,19.69-152.29,26.61-9.45,1.49-15.74,9.33-19.7,10.28H2226c-4-1-10.25-8.79-19.7-10.28-43.87-6.92-129-23.58-152.29-26.61-25.37-3.29-50.61-6-76-6H641.65A485.46,485.46,0,0,0,565.67,1327.79Z" transform="translate(-142.5 -236.4)"/><path class="cls-193" d="M567,1327.89h0c-23.54,2.39-108.09,19.53-152.19,26.47-9.44,1.49-15.78,9.23-19.82,10.18H2224.68c-4-1-10.38-8.69-19.82-10.18-44.1-6.94-128.73-23.43-152.18-26.47-25.33-3.28-50.53-6-75.84-6h-1334A485.94,485.94,0,0,0,567,1327.89Z" transform="translate(-142.5 -236.4)"/><path class="cls-194" d="M568.32,1328h0c-23.66,2.4-107.74,19.37-152.09,26.33-9.43,1.48-15.81,9.13-19.93,10.09H2223.37c-4.12-1-10.5-8.61-19.93-10.09-44.35-7-128.5-23.29-152.09-26.33-25.27-3.27-50.43-5.93-75.7-5.93H644A486.69,486.69,0,0,0,568.32,1328Z" transform="translate(-142.5 -236.4)"/><path class="cls-195" d="M569.64,1328.08h0c-23.78,2.42-107.4,19.21-152,26.2-9.43,1.48-15.85,9-20.05,10H2222.06c-4.2-1-10.62-8.51-20-10-44.58-7-128.27-23.14-152-26.2-25.23-3.25-50.34-5.88-75.57-5.88H645.21A488.55,488.55,0,0,0,569.64,1328.08Z" transform="translate(-142.5 -236.4)"/><path class="cls-196" d="M571,1328.18h0c-23.91,2.43-107,19-151.87,26.06-9.43,1.47-15.89,8.93-20.16,9.9H2220.75c-4.28-1-10.74-8.43-20.17-9.9-44.82-7-128-23-151.87-26.06-25.18-3.24-50.25-5.85-75.43-5.85H646.39A489.29,489.29,0,0,0,571,1328.18Z" transform="translate(-142.5 -236.4)"/><path class="cls-197" d="M572.29,1328.28h0c-24,2.44-106.71,18.89-151.78,25.92-9.42,1.46-15.92,8.83-20.27,9.8H2219.43c-4.35-1-10.85-8.34-20.27-9.8-45.06-7-127.81-22.85-151.77-25.92-25.14-3.23-50.16-5.81-75.3-5.81H647.58A491.19,491.19,0,0,0,572.29,1328.28Z" transform="translate(-142.5 -236.4)"/><path class="cls-198" d="M573.61,1328.37h0c-24.17,2.46-106.37,18.74-151.67,25.78-9.42,1.47-16,8.74-20.39,9.72H2218.12c-4.43-1-11-8.25-20.39-9.72-45.3-7-127.57-22.7-151.67-25.78-25.08-3.2-50.07-5.77-75.16-5.77H648.77A493.16,493.16,0,0,0,573.61,1328.37Z" transform="translate(-142.5 -236.4)"/><path class="cls-199" d="M574.93,1328.47h0c-24.29,2.47-106,18.57-151.56,25.64-9.41,1.46-16,8.64-20.51,9.63h1814c-4.5-1-11.1-8.17-20.5-9.63-45.55-7.07-127.35-22.55-151.57-25.64-25-3.19-50-5.73-75-5.73H650A494,494,0,0,0,574.93,1328.47Z" transform="translate(-142.5 -236.4)"/><path class="cls-200" d="M576.25,1328.57h0c-24.42,2.48-105.68,18.41-151.46,25.5-9.4,1.46-16,8.55-20.62,9.53H2215.5c-4.58-1-11.22-8.07-20.62-9.53-45.78-7.09-127.11-22.41-151.46-25.5-25-3.18-49.89-5.7-74.89-5.7H651.14A494.78,494.78,0,0,0,576.25,1328.57Z" transform="translate(-142.5 -236.4)"/><path class="cls-201" d="M577.57,1328.66h0c-24.54,2.5-105.33,18.26-151.35,25.37-9.4,1.45-16.08,8.45-20.74,9.44H2214.19c-4.66-1-11.34-8-20.74-9.44-46-7.11-126.88-22.27-151.35-25.37-24.95-3.16-49.8-5.66-74.76-5.66h-1315A496.92,496.92,0,0,0,577.57,1328.66Z" transform="translate(-142.5 -236.4)"/><path class="cls-202" d="M578.9,1328.76h0c-24.68,2.51-105,18.1-151.26,25.23-9.39,1.45-16.11,8.35-20.85,9.34H2212.88c-4.74-1-11.46-7.89-20.85-9.34-46.26-7.13-126.65-22.12-151.25-25.23-24.91-3.15-49.71-5.62-74.63-5.62H653.52A498.86,498.86,0,0,0,578.9,1328.76Z" transform="translate(-142.5 -236.4)"/><path class="cls-203" d="M580.22,1328.86h0c-24.8,2.52-104.65,17.94-151.15,25.09-9.39,1.44-16.15,8.25-21,9.25H2211.57c-4.82-1-11.58-7.81-21-9.25-46.5-7.15-126.42-22-151.15-25.09s-49.62-5.59-74.48-5.59H654.7A499.72,499.72,0,0,0,580.22,1328.86Z" transform="translate(-142.5 -236.4)"/><path class="cls-204" d="M581.54,1329h0c-24.92,2.54-104.3,17.79-151,25-9.39,1.44-16.19,8.15-21.09,9.15H2210.26c-4.9-1-11.7-7.71-21.09-9.15-46.74-7.17-126.18-21.83-151-25s-49.53-5.54-74.35-5.54H655.89A502,502,0,0,0,581.54,1329Z" transform="translate(-142.5 -236.4)"/><path class="cls-205" d="M582.86,1329.05h0c-25.05,2.55-104,17.62-150.94,24.82-9.37,1.43-16.22,8.05-21.19,9.06H2209c-5-1-11.83-7.63-21.2-9.06-47-7.2-126-21.69-150.94-24.82-24.76-3.1-49.44-5.51-74.22-5.51H657.08A502.77,502.77,0,0,0,582.86,1329.05Z" transform="translate(-142.5 -236.4)"/><path class="cls-206" d="M584.18,1329.15h0c-25.17,2.56-103.61,17.46-150.83,24.68-9.37,1.43-16.26,8-21.31,9H2207.63c-5.05-1-11.94-7.53-21.31-9-47.22-7.22-125.72-21.55-150.83-24.68-24.72-3.09-49.35-5.47-74.08-5.47H658.27A503.7,503.7,0,0,0,584.18,1329.15Z" transform="translate(-142.5 -236.4)"/><path class="cls-207" d="M585.51,1329.24h0c-25.31,2.57-103.27,17.31-150.74,24.54-9.36,1.43-16.29,7.86-21.42,8.88h1793c-5.13-1-12.06-7.45-21.42-8.88-47.46-7.23-125.49-21.39-150.73-24.54-24.67-3.07-49.27-5.43-74-5.43H659.45A507.25,507.25,0,0,0,585.51,1329.24Z" transform="translate(-142.5 -236.4)"/><path class="cls-208" d="M586.83,1329.34h0c-25.43,2.58-102.93,17.15-150.63,24.4-9.36,1.43-16.33,7.76-21.54,8.79H2205c-5.21-1-12.18-7.36-21.54-8.79-47.7-7.25-125.26-21.25-150.63-24.4-24.62-3.06-49.17-5.39-73.81-5.39H660.64A508.22,508.22,0,0,0,586.83,1329.34Z" transform="translate(-142.5 -236.4)"/><path class="cls-209" d="M588.15,1329.44h0c-25.56,2.59-102.58,17-150.52,24.26-9.36,1.42-16.37,7.66-21.66,8.69H2203.7c-5.29-1-12.3-7.27-21.66-8.69-47.94-7.27-125-21.11-150.52-24.26-24.57-3-49.08-5.36-73.67-5.36h-1296A509.12,509.12,0,0,0,588.15,1329.44Z" transform="translate(-142.5 -236.4)"/><path class="cls-210" d="M589.47,1329.53h0c-25.68,2.61-102.24,16.84-150.42,24.13-9.35,1.42-16.4,7.56-21.77,8.6H2202.39c-5.36-1-12.42-7.18-21.77-8.6-48.18-7.29-124.8-21-150.42-24.13-24.53-3-49-5.32-73.54-5.32H663A511.52,511.52,0,0,0,589.47,1329.53Z" transform="translate(-142.5 -236.4)"/><path class="cls-211" d="M590.79,1329.63h0c-25.81,2.62-101.89,16.68-150.31,24-9.34,1.41-16.44,7.46-21.89,8.5H2201.08c-5.44-1-12.55-7.09-21.89-8.5-48.42-7.31-124.56-20.82-150.31-24-24.48-3-48.9-5.28-73.41-5.28H664.2A512.66,512.66,0,0,0,590.79,1329.63Z" transform="translate(-142.5 -236.4)"/><path class="cls-212" d="M592.12,1329.73h0c-25.94,2.63-101.55,16.52-150.21,23.85-9.34,1.4-16.49,7.36-22,8.41H2199.77c-5.52-1-12.67-7-22-8.41-48.65-7.33-124.33-20.68-150.2-23.85-24.44-3-48.82-5.25-73.28-5.25H665.39A514.83,514.83,0,0,0,592.12,1329.73Z" transform="translate(-142.5 -236.4)"/><path class="cls-213" d="M593.44,1329.82h0c-26.07,2.65-101.21,16.37-150.11,23.72-9.33,1.4-16.52,7.26-22.12,8.31H2198.46c-5.6-1-12.79-6.91-22.12-8.31-48.9-7.35-124.1-20.54-150.11-23.72-24.38-3-48.72-5.2-73.13-5.2H666.57A517.33,517.33,0,0,0,593.44,1329.82Z" transform="translate(-142.5 -236.4)"/><path class="cls-214" d="M594.76,1329.92h0c-26.19,2.66-100.86,16.21-150,23.58-9.33,1.39-16.56,7.16-22.23,8.22H2197.15c-5.68-1.06-12.91-6.83-22.24-8.22-49.14-7.37-123.87-20.39-150-23.58-24.34-3-48.63-5.17-73-5.17H667.76A518.45,518.45,0,0,0,594.76,1329.92Z" transform="translate(-142.5 -236.4)"/><path class="cls-215" d="M596.08,1330h0c-26.31,2.67-100.52,16-149.9,23.43-9.32,1.4-16.59,7.07-22.34,8.14h1772c-5.75-1.07-13-6.74-22.34-8.14-49.38-7.38-123.64-20.24-149.9-23.43-24.3-3-48.54-5.13-72.87-5.13H669A519.56,519.56,0,0,0,596.08,1330Z" transform="translate(-142.5 -236.4)"/><path class="cls-216" d="M597.4,1330.12h0C571,1332.8,497.23,1346,447.61,1353.41c-9.32,1.39-16.63,7-22.46,8H2194.52c-5.83-1.07-13.14-6.65-22.46-8-49.62-7.4-123.41-20.1-149.79-23.29-24.25-2.94-48.45-5.1-72.73-5.1H670.14A520.71,520.71,0,0,0,597.4,1330.12Z" transform="translate(-142.5 -236.4)"/><path class="cls-217" d="M598.73,1330.21h0c-26.57,2.7-99.83,15.74-149.69,23.16-9.31,1.39-16.67,6.87-22.58,8H2193.21c-5.91-1.08-13.26-6.56-22.58-8-49.86-7.42-123.17-20-149.68-23.16-24.21-2.92-48.37-5.06-72.6-5.06h-1277A523.11,523.11,0,0,0,598.73,1330.21Z" transform="translate(-142.5 -236.4)"/><path class="cls-218" d="M600.05,1330.31h0c-26.7,2.71-99.49,15.59-149.59,23-9.3,1.38-16.7,6.77-22.69,7.85H2191.9c-6-1.08-13.39-6.47-22.69-7.85-50.1-7.43-122.94-19.82-149.59-23-24.15-2.91-48.27-5-72.46-5H672.51A525.85,525.85,0,0,0,600.05,1330.31Z" transform="translate(-142.5 -236.4)"/><path class="cls-219" d="M601.37,1330.41h0c-26.82,2.72-99.14,15.43-149.48,22.88-9.3,1.38-16.74,6.68-22.81,7.76H2190.59c-6.07-1.08-13.51-6.38-22.81-7.76-50.34-7.45-122.71-19.67-149.48-22.88-24.11-2.9-48.18-5-72.33-5H673.7A527,527,0,0,0,601.37,1330.41Z" transform="translate(-142.5 -236.4)"/><path class="cls-220" d="M602.69,1330.5h0c-27,2.74-98.79,15.28-149.37,22.75-9.3,1.37-16.78,6.58-22.93,7.66H2189.28c-6.15-1.08-13.63-6.29-22.92-7.66-50.58-7.47-122.48-19.53-149.38-22.75-24.06-2.87-48.09-4.94-72.19-4.94H674.88A529.74,529.74,0,0,0,602.69,1330.5Z" transform="translate(-142.5 -236.4)"/><path class="cls-221" d="M604,1330.6h0c-27.07,2.75-98.45,15.12-149.27,22.61-9.29,1.37-16.81,6.48-23,7.57H2188c-6.22-1.09-13.75-6.2-23-7.57-50.82-7.49-122.25-19.39-149.27-22.61-24-2.86-48-4.91-72.06-4.91H676.07A531.12,531.12,0,0,0,604,1330.6Z" transform="translate(-142.5 -236.4)"/><path class="cls-222" d="M605.34,1330.7h0c-27.21,2.76-98.11,15-149.17,22.47-9.29,1.36-16.85,6.38-23.16,7.48H2186.66c-6.3-1.1-13.87-6.12-23.16-7.48-51.06-7.51-122-19.25-149.16-22.47-24-2.85-47.92-4.87-71.93-4.87H677.26A532.14,532.14,0,0,0,605.34,1330.7Z" transform="translate(-142.5 -236.4)"/><path class="cls-223" d="M606.66,1330.79h0c-27.33,2.78-97.77,14.82-149.07,22.34-9.27,1.36-16.89,6.28-23.26,7.38h1751c-6.38-1.1-14-6-23.27-7.38-51.3-7.52-121.79-19.11-149.07-22.34-23.92-2.83-47.82-4.83-71.78-4.83H678.45A536.63,536.63,0,0,0,606.66,1330.79Z" transform="translate(-142.5 -236.4)"/><path class="cls-224" d="M608,1330.89h0c-27.45,2.79-97.42,14.66-149,22.19-9.27,1.36-16.93,6.19-23.38,7.3H2184c-6.45-1.11-14.11-5.94-23.38-7.3-51.54-7.53-121.55-19-149-22.19-23.88-2.82-47.73-4.8-71.65-4.8H679.63A538,538,0,0,0,608,1330.89Z" transform="translate(-142.5 -236.4)"/><path class="cls-225" d="M609.3,1331h0c-27.58,2.8-97.07,14.5-148.85,22-9.27,1.35-17,6.09-23.5,7.2H2182.72c-6.53-1.11-14.23-5.85-23.5-7.2-51.78-7.55-121.32-18.82-148.85-22-23.83-2.81-47.64-4.76-71.52-4.76h-1258A539.32,539.32,0,0,0,609.3,1331Z" transform="translate(-142.5 -236.4)"/><path class="cls-226" d="M610.62,1331.08h0c-27.7,2.82-96.73,14.35-148.75,21.92-9.26,1.35-17,6-23.61,7.11H2181.41c-6.61-1.12-14.35-5.76-23.61-7.11-52-7.57-121.09-18.68-148.75-21.92-23.79-2.78-47.56-4.72-71.38-4.72H682A542.42,542.42,0,0,0,610.62,1331.08Z" transform="translate(-142.5 -236.4)"/><path class="cls-227" d="M612,1331.18h0c-27.84,2.83-96.39,14.2-148.65,21.78-9.26,1.34-17,5.89-23.73,7H2180.1c-6.69-1.12-14.47-5.67-23.73-7-52.26-7.58-120.86-18.54-148.64-21.78-23.74-2.77-47.47-4.68-71.25-4.68H683.19A543.55,543.55,0,0,0,612,1331.18Z" transform="translate(-142.5 -236.4)"/><path class="cls-228" d="M613.27,1331.28h0c-28,2.84-96,14-148.54,21.64-9.26,1.34-17.08,5.79-23.85,6.92H2178.79c-6.77-1.13-14.59-5.58-23.84-6.92-52.51-7.6-120.63-18.4-148.55-21.64-23.69-2.76-47.37-4.65-71.11-4.65H684.38A546.76,546.76,0,0,0,613.27,1331.28Z" transform="translate(-142.5 -236.4)"/><path class="cls-229" d="M614.59,1331.37h0c-28.09,2.86-95.7,13.89-148.44,21.51-9.24,1.33-17.11,5.69-24,6.82H2177.48c-6.85-1.13-14.71-5.49-24-6.82-52.74-7.62-120.39-18.26-148.44-21.51a616.42,616.42,0,0,0-71-4.6H685.57A550,550,0,0,0,614.59,1331.37Z" transform="translate(-142.5 -236.4)"/><path class="cls-230" d="M615.91,1331.47h0c-28.21,2.87-95.35,13.74-148.33,21.37-9.24,1.33-17.15,5.59-24.08,6.73H2176.17c-6.93-1.14-14.84-5.4-24.08-6.73-53-7.63-120.16-18.12-148.33-21.37a616.35,616.35,0,0,0-70.84-4.57H686.75A551.51,551.51,0,0,0,615.91,1331.47Z" transform="translate(-142.5 -236.4)"/><path class="cls-231" d="M617.23,1331.57h0c-28.34,2.88-95,13.58-148.23,21.23-9.23,1.32-17.18,5.49-24.19,6.64H2174.86c-7-1.15-15-5.32-24.19-6.64-53.23-7.65-119.93-18-148.23-21.23a618.71,618.71,0,0,0-70.71-4.53H687.94A553.07,553.07,0,0,0,617.23,1331.57Z" transform="translate(-142.5 -236.4)"/><path class="cls-232" d="M618.56,1331.66h0c-28.47,2.9-94.67,13.43-148.13,21.09-9.23,1.33-17.22,5.4-24.3,6.55H2173.55c-7.08-1.15-15.08-5.22-24.31-6.55-53.46-7.66-119.7-17.83-148.12-21.09a620.81,620.81,0,0,0-70.58-4.49H689.13A556.21,556.21,0,0,0,618.56,1331.66Z" transform="translate(-142.5 -236.4)"/><path class="cls-233" d="M619.88,1331.76h0c-28.6,2.91-94.32,13.28-148,21-9.23,1.32-17.26,5.3-24.42,6.46h1724.8c-7.16-1.16-15.2-5.14-24.43-6.46-53.7-7.67-119.46-17.69-148-21a620.45,620.45,0,0,0-70.43-4.46h-1239A557.73,557.73,0,0,0,619.88,1331.76Z" transform="translate(-142.5 -236.4)"/><path class="cls-234" d="M621.2,1331.86h0c-28.72,2.92-94,13.12-147.92,20.81-9.22,1.32-17.3,5.2-24.53,6.36H2170.92c-7.23-1.16-15.31-5-24.53-6.36-53.95-7.69-119.24-17.55-147.92-20.81a620.28,620.28,0,0,0-70.3-4.42H691.5A561.22,561.22,0,0,0,621.2,1331.86Z" transform="translate(-142.5 -236.4)"/><path class="cls-235" d="M622.52,1332h0c-28.84,2.93-93.63,13-147.81,20.68-9.22,1.31-17.34,5.1-24.65,6.27H2169.61c-7.31-1.17-15.43-5-24.65-6.27-54.18-7.7-119-17.41-147.81-20.68a622.59,622.59,0,0,0-70.17-4.38H692.69A565,565,0,0,0,622.52,1332Z" transform="translate(-142.5 -236.4)"/><path class="cls-236" d="M623.84,1332.05h0c-29,2.94-93.28,12.82-147.7,20.54-9.21,1.31-17.38,5-24.77,6.17H2168.3c-7.39-1.17-15.55-4.86-24.76-6.17-54.43-7.72-118.77-17.27-147.71-20.54a622.58,622.58,0,0,0-70-4.34H693.88A566.57,566.57,0,0,0,623.84,1332.05Z" transform="translate(-142.5 -236.4)"/><path class="cls-237" d="M625.17,1332.15h0c-29.1,2.95-92.94,12.67-147.61,20.4-9.2,1.3-17.41,4.9-24.88,6.08H2167c-7.47-1.18-15.68-4.78-24.88-6.08-54.67-7.73-118.54-17.13-147.6-20.4a624.93,624.93,0,0,0-69.9-4.31H695.06A568,568,0,0,0,625.17,1332.15Z" transform="translate(-142.5 -236.4)"/><path class="cls-238" d="M626.49,1332.24h0c-29.23,3-92.6,12.52-147.5,20.27-9.2,1.3-17.45,4.81-25,6H2165.68c-7.55-1.18-15.8-4.69-25-6-54.9-7.75-118.3-17-147.5-20.27a627,627,0,0,0-69.76-4.26H696.25A571.8,571.8,0,0,0,626.49,1332.24Z" transform="translate(-142.5 -236.4)"/><path class="cls-239" d="M627.81,1332.34h0c-29.35,3-92.25,12.37-147.4,20.13-9.19,1.29-17.48,4.71-25.11,5.89H2164.37c-7.63-1.18-15.92-4.6-25.11-5.89-55.15-7.76-118.08-16.85-147.4-20.13a626.9,626.9,0,0,0-69.63-4.23H697.44A575.68,575.68,0,0,0,627.81,1332.34Z" transform="translate(-142.5 -236.4)"/><path class="cls-240" d="M629.13,1332.44h0c-29.48,3-91.9,12.21-147.29,20-9.19,1.28-17.52,4.61-25.23,5.8H2163.06c-7.71-1.19-16-4.52-25.23-5.8-55.39-7.78-117.84-16.71-147.29-20a626.91,626.91,0,0,0-69.49-4.2H698.63A577.59,577.59,0,0,0,629.13,1332.44Z" transform="translate(-142.5 -236.4)"/><path class="cls-241" d="M630.45,1332.53h0c-29.6,3-91.56,12.07-147.18,19.85-9.19,1.29-17.56,4.52-25.34,5.71H2161.75c-7.79-1.19-16.16-4.42-25.35-5.71-55.62-7.78-117.61-16.56-147.18-19.85a629.37,629.37,0,0,0-69.36-4.15h-1220A581.54,581.54,0,0,0,630.45,1332.53Z" transform="translate(-142.5 -236.4)"/><path class="cls-242" d="M631.78,1332.63h0c-29.74,3-91.22,11.92-147.09,19.71-9.17,1.28-17.59,4.42-25.45,5.62h1701.2c-7.87-1.2-16.28-4.34-25.46-5.62-55.87-7.79-117.38-16.43-147.08-19.71a629.44,629.44,0,0,0-69.23-4.12H701A583.25,583.25,0,0,0,631.78,1332.63Z" transform="translate(-142.5 -236.4)"/><path class="cls-243" d="M633.1,1332.73h0c-29.86,3-90.87,11.76-147,19.57-9.17,1.28-17.63,4.32-25.57,5.52H2159.12c-7.94-1.2-16.4-4.24-25.57-5.52-56.11-7.81-117.14-16.29-147-19.57a631.61,631.61,0,0,0-69.08-4.08H702.19A585.13,585.13,0,0,0,633.1,1332.73Z" transform="translate(-142.5 -236.4)"/><path class="cls-244" d="M634.42,1332.82h0c-30,3-90.53,11.62-146.87,19.44-9.17,1.27-17.67,4.22-25.69,5.43h1696c-8-1.21-16.52-4.16-25.68-5.43-56.35-7.82-116.92-16.15-146.88-19.44a634,634,0,0,0-69-4H703.37A591.49,591.49,0,0,0,634.42,1332.82Z" transform="translate(-142.5 -236.4)"/><path class="cls-245" d="M635.74,1332.92h0c-30.11,3.06-90.18,11.46-146.77,19.3-9.16,1.27-17.71,4.12-25.8,5.33H2156.5c-8.09-1.21-16.64-4.06-25.8-5.33-56.59-7.84-116.68-16-146.77-19.3a634.28,634.28,0,0,0-68.82-4H704.56A593.75,593.75,0,0,0,635.74,1332.92Z" transform="translate(-142.5 -236.4)"/><path class="cls-246" d="M637.06,1333h0c-30.23,3.07-89.83,11.31-146.66,19.16-9.16,1.26-17.75,4-25.92,5.24H2155.19c-8.17-1.22-16.76-4-25.92-5.24-56.83-7.85-116.45-15.87-146.66-19.16a634.24,634.24,0,0,0-68.69-4H705.75A595.93,595.93,0,0,0,637.06,1333Z" transform="translate(-142.5 -236.4)"/><path class="cls-247" d="M638.39,1333.12h0c-30.37,3.08-89.5,11.16-146.57,19-9.15,1.26-17.78,3.92-26,5.15H2153.88c-8.25-1.23-16.88-3.89-26-5.15-57.07-7.86-116.22-15.74-146.56-19a634.3,634.3,0,0,0-68.55-3.93H706.93A597.66,597.66,0,0,0,638.39,1333.12Z" transform="translate(-142.5 -236.4)"/><path class="cls-248" d="M639.71,1333.21h0c-30.49,3.1-89.15,11-146.46,18.89-9.15,1.25-17.82,3.82-26.15,5.05H2152.57c-8.33-1.23-17-3.8-26.15-5.05-57.31-7.87-116-15.6-146.46-18.89a636.5,636.5,0,0,0-68.41-3.89H708.12A602.21,602.21,0,0,0,639.71,1333.21Z" transform="translate(-142.5 -236.4)"/><path class="cls-249" d="M641,1333.31h0c-30.62,3.11-88.8,10.86-146.35,18.75-9.14,1.25-17.86,3.72-26.27,5H2151.26c-8.41-1.24-17.12-3.71-26.27-5-57.55-7.88-115.75-15.45-146.35-18.74a639.24,639.24,0,0,0-68.28-3.86h-1201A604.66,604.66,0,0,0,641,1333.31Z" transform="translate(-142.5 -236.4)"/><path class="cls-250" d="M642.35,1333.41h0c-30.74,3.12-88.45,10.71-146.25,18.6-9.13,1.25-17.89,3.63-26.38,4.87H2150c-8.49-1.24-17.25-3.62-26.38-4.87-57.79-7.89-115.52-15.32-146.25-18.6a639.48,639.48,0,0,0-68.14-3.82H710.5A609.25,609.25,0,0,0,642.35,1333.41Z" transform="translate(-142.5 -236.4)"/><path class="cls-251" d="M643.67,1333.5h0c-30.87,3.14-88.11,10.57-146.14,18.47-9.13,1.25-17.93,3.53-26.49,4.78h1677.6c-8.57-1.25-17.37-3.53-26.5-4.78-58-7.9-115.29-15.18-146.14-18.47a642.13,642.13,0,0,0-68-3.78H711.68A614,614,0,0,0,643.67,1333.5Z" transform="translate(-142.5 -236.4)"/><path class="cls-252" d="M645,1333.6h0c-31,3.15-87.77,10.42-146,18.33-9.13,1.24-18,3.43-26.61,4.68h1675c-8.64-1.25-17.48-3.44-26.6-4.68-58.28-7.91-115.06-15-146-18.33a642.29,642.29,0,0,0-67.88-3.74H712.87A616.23,616.23,0,0,0,645,1333.6Z" transform="translate(-142.5 -236.4)"/><path class="cls-253" d="M646.32,1333.7h0c-31.13,3.16-87.42,10.26-145.94,18.19-9.12,1.24-18,3.33-26.72,4.59H2146c-8.72-1.26-17.6-3.35-26.72-4.59-58.52-7.93-114.83-14.91-145.94-18.19a642,642,0,0,0-67.73-3.71H714.06A618.78,618.78,0,0,0,646.32,1333.7Z" transform="translate(-142.5 -236.4)"/><path class="cls-254" d="M647.64,1333.79h0c-31.25,3.18-87.08,10.12-145.83,18.06-9.12,1.23-18,3.23-26.84,4.5H2144.7c-8.8-1.27-17.72-3.27-26.84-4.5-58.75-7.94-114.59-14.77-145.83-18.06a647.54,647.54,0,0,0-67.6-3.66H715.24A623.83,623.83,0,0,0,647.64,1333.79Z" transform="translate(-142.5 -236.4)"/><path class="cls-255" d="M649,1333.89h0c-31.37,3.19-86.73,10-145.73,17.92-9.11,1.22-18.07,3.13-27,4.4H2143.39c-8.87-1.27-17.84-3.18-26.95-4.4-59-8-114.36-14.63-145.73-17.92a647.91,647.91,0,0,0-67.47-3.63H716.43A629.09,629.09,0,0,0,649,1333.89Z" transform="translate(-142.5 -236.4)"/><path class="cls-256" d="M650.28,1334h0c-31.5,3.2-86.38,9.82-145.62,17.78-9.1,1.22-18.12,3-27.07,4.31H2142.08c-8.95-1.28-18-3.09-27.07-4.31-59.24-8-114.13-14.5-145.62-17.78a648,648,0,0,0-67.34-3.6H717.62A631.84,631.84,0,0,0,650.28,1334Z" transform="translate(-142.5 -236.4)"/><path class="cls-257" d="M651.61,1334.08h0c-31.63,3.22-86,9.79-145.52,17.65-9.1,1.23-18.16,2.94-27.19,4.21H2140.77c-9-1.27-18.09-3-27.19-4.21-59.49-7.86-113.89-14.36-145.51-17.65a650.94,650.94,0,0,0-67.2-3.55H718.8A636.78,636.78,0,0,0,651.61,1334.08Z" transform="translate(-142.5 -236.4)"/><path class="cls-258" d="M652.93,1334.18h0c-31.76,3.23-85.69,9.62-145.42,17.5-9.09,1.23-18.19,2.85-27.3,4.13H2139.46c-9.11-1.28-18.21-2.9-27.3-4.13-59.73-7.88-113.66-14.27-145.42-17.5a639.67,639.67,0,0,0-67.06-3.52H720A639.67,639.67,0,0,0,652.93,1334.18Z" transform="translate(-142.5 -236.4)"/><path class="cls-259" d="M654.25,1334.28h0c-31.88,3.24-85.34,9.45-145.31,17.36-9.09,1.22-18.23,2.75-27.42,4H2138.15c-9.19-1.28-18.33-2.81-27.42-4-60-7.91-113.43-14.12-145.31-17.36a642.61,642.61,0,0,0-66.93-3.48H721.18A642.75,642.75,0,0,0,654.25,1334.28Z" transform="translate(-142.5 -236.4)"/><path class="cls-260" d="M655.57,1334.37h0c-32,3.26-85,9.28-145.21,17.23-9.08,1.22-18.26,2.65-27.52,3.94h1654c-9.27-1.29-18.45-2.73-27.53-3.94-60.21-7.95-113.2-14-145.21-17.23a651.18,651.18,0,0,0-66.79-3.44H722.37A651.37,651.37,0,0,0,655.57,1334.37Z" transform="translate(-142.5 -236.4)"/><path class="cls-261" d="M656.89,1334.47h0c-32.13,3.27-84.65,9.11-145.1,17.09-9.08,1.21-18.3,2.55-27.64,3.84H2135.52c-9.34-1.29-18.56-2.63-27.64-3.84-60.45-8-113-13.82-145.1-17.09a654.3,654.3,0,0,0-66.66-3.4H723.55A654.3,654.3,0,0,0,656.89,1334.47Z" transform="translate(-142.5 -236.4)"/><path d="M2134.21,1355.27h0c-72.43-10-135.67-16.93-172.75-20.7a657.5,657.5,0,0,0-66.53-3.37H724.74a657.16,657.16,0,0,0-66.52,3.37c-37.09,3.77-100.33,10.69-172.76,20.7H2134.21Z" transform="translate(-142.5 -236.4)"/></g><rect class="cls-262" y="1069.03" width="2334.67" height="22.62" rx="3.38"/><path class="cls-3" d="M148.39,1328.05h0c102.05,10.5,191.14,17.76,243.39,21.72q46.76,3.52,93.73,3.53H2134.17q46.92,0,93.72-3.53c52.25-4,141.34-11.22,243.4-21.72H148.39Z" transform="translate(-142.5 -236.4)"/><path class="cls-263" d="M1477,1317.5H1142.62c-6,0-11.28-2.06-13.22-5.12l-4.4-7h369.67l-4.42,7C1488.3,1315.45,1483,1317.5,1477,1317.5Z" transform="translate(-142.5 -236.4)"/></svg>